<?xml version="1.0" encoding="UTF-8" standalone="no"?>
<!-- Created with Inkscape (http://www.inkscape.org/) -->

<svg
   width="3.7793074mm"
   height="3.7793076mm"
   viewBox="0 0 3.7793074 3.7793076"
   version="1.1"
   id="svg1"
   xmlns:inkscape="http://www.inkscape.org/namespaces/inkscape"
   xmlns:sodipodi="http://sodipodi.sourceforge.net/DTD/sodipodi-0.dtd"
   xmlns="http://www.w3.org/2000/svg"
   xmlns:svg="http://www.w3.org/2000/svg">
  <sodipodi:namedview
     id="namedview1"
     pagecolor="#ffffff"
     bordercolor="#000000"
     borderopacity="0.25"
     inkscape:showpageshadow="2"
     inkscape:pageopacity="0.0"
     inkscape:pagecheckerboard="0"
     inkscape:deskcolor="#d1d1d1"
     inkscape:document-units="mm" />
  <defs
     id="defs1">
    <clipPath
       clipPathUnits="userSpaceOnUse"
       id="clipPath325">
      <path
         d="M 0,300.977 H 833.992 V 0 H 0 Z"
         id="path325" />
    </clipPath>
    <clipPath
       clipPathUnits="userSpaceOnUse"
       id="clipPath327">
      <path
         d="M 0,300.977 H 833.992 V 0 H 0 Z"
         id="path327" />
    </clipPath>
    <clipPath
       clipPathUnits="userSpaceOnUse"
       id="clipPath329">
      <path
         d="M 0,300.977 H 833.992 V 0 H 0 Z"
         id="path329" />
    </clipPath>
    <clipPath
       clipPathUnits="userSpaceOnUse"
       id="clipPath331">
      <path
         d="M 0,300.977 H 833.992 V 0 H 0 Z"
         id="path331" />
    </clipPath>
  </defs>
  <g
     inkscape:label="Layer 1"
     inkscape:groupmode="layer"
     id="layer1"
     transform="translate(-21.431248,-89.429166)">
    <g
       id="g14"
       transform="matrix(0.26458333,0,0,0.26458333,-59.273369,58.529712)">
      <path
         id="path324"
         d="m 239.232,202.925 h -10.213 v 10.213 h 10.213 z"
         style="fill:none;stroke:#000000;stroke-width:0.5;stroke-linecap:butt;stroke-linejoin:miter;stroke-miterlimit:10;stroke-dasharray:none;stroke-opacity:1"
         transform="matrix(1.3333333,0,0,-1.3333333,0,401.30267)"
         clip-path="url(#clipPath325)" />
      <path
         id="path326"
         d="m 239.448,208.032 h -5.323 v 5.323 h 5.323 z"
         style="fill:#000000;fill-opacity:1;fill-rule:evenodd;stroke:none"
         transform="matrix(1.3333333,0,0,-1.3333333,0,401.30267)"
         clip-path="url(#clipPath327)" />
      <path
         id="path328"
         d="m 234.125,208.032 h -5.323 v 5.323 h 5.323 z"
         style="fill:#000000;fill-opacity:1;fill-rule:evenodd;stroke:none"
         transform="matrix(1.3333333,0,0,-1.3333333,0,401.30267)"
         clip-path="url(#clipPath329)" />
      <path
         id="path330"
         d="m 234.125,202.709 h -5.323 v 5.323 h 5.323 z"
         style="fill:#000000;fill-opacity:1;fill-rule:evenodd;stroke:none"
         transform="matrix(1.3333333,0,0,-1.3333333,0,401.30267)"
         clip-path="url(#clipPath331)" />
    </g>
  </g>
</svg>
