<?xml version="1.0" encoding="UTF-8" standalone="no"?>
<!-- Created with Inkscape (http://www.inkscape.org/) -->

<svg
   width="3.7793095mm"
   height="3.7793076mm"
   viewBox="0 0 3.7793095 3.7793076"
   version="1.1"
   id="svg1"
   xmlns="http://www.w3.org/2000/svg"
   xmlns:svg="http://www.w3.org/2000/svg">
  <defs
     id="defs1">
    <pattern
       patternTransform="matrix(0.0917013,0,0,0.082627,-7066.76,7703.3)"
       patternUnits="userSpaceOnUse"
       x="0"
       y="0"
       width="60.7988"
       height="60.7998"
       id="pattern378">
      <path
         d="m 22.799,7.601 -15.199,0 0,-15.2 15.199,0 0,15.2 z"
         style="fill:#231f20;fill-opacity:1;fill-rule:nonzero;stroke:none"
         id="path367" />
      <path
         d="m 53.199,7.601 -15.2,0 0,-15.2 15.2,0 0,15.2 z"
         style="fill:#231f20;fill-opacity:1;fill-rule:nonzero;stroke:none"
         id="path368" />
      <path
         d="m 22.799,22.8 15.2,0 0,-15.199 -15.2,0 0,15.199 z"
         style="fill:#231f20;fill-opacity:1;fill-rule:nonzero;stroke:none"
         id="path369" />
      <path
         d="m 53.199,22.8 15.2,0 0,-15.199 -15.2,0 0,15.199 z"
         style="fill:#231f20;fill-opacity:1;fill-rule:nonzero;stroke:none"
         id="path370" />
      <path
         d="m 22.799,37.999 -15.199,0 0,-15.199 15.199,0 0,15.199 z"
         style="fill:#231f20;fill-opacity:1;fill-rule:nonzero;stroke:none"
         id="path371" />
      <path
         d="m 53.199,37.999 -15.2,0 0,-15.199 15.2,0 0,15.199 z"
         style="fill:#231f20;fill-opacity:1;fill-rule:nonzero;stroke:none"
         id="path372" />
      <path
         d="m 22.799,53.199 15.2,0 0,-15.2 -15.2,0 0,15.2 z"
         style="fill:#231f20;fill-opacity:1;fill-rule:nonzero;stroke:none"
         id="path373" />
      <path
         d="m 53.199,53.199 15.2,0 0,-15.2 -15.2,0 0,15.2 z"
         style="fill:#231f20;fill-opacity:1;fill-rule:nonzero;stroke:none"
         id="path374" />
      <path
         d="m -7.6,22.8 15.2,0 0,-15.199 -15.2,0 0,15.199 z"
         style="fill:#231f20;fill-opacity:1;fill-rule:nonzero;stroke:none"
         id="path375" />
      <path
         d="m -7.6,53.199 15.2,0 0,-15.2 -15.2,0 0,15.2 z"
         style="fill:#231f20;fill-opacity:1;fill-rule:nonzero;stroke:none"
         id="path376" />
      <path
         d="m 22.799,68.4 -15.199,0 0,-15.2 15.199,0 0,15.2 z"
         style="fill:#231f20;fill-opacity:1;fill-rule:nonzero;stroke:none"
         id="path377" />
      <path
         d="m 53.199,68.4 -15.2,0 0,-15.2 15.2,0 0,15.2 z"
         style="fill:#231f20;fill-opacity:1;fill-rule:nonzero;stroke:none"
         id="path378" />
    </pattern>
    <clipPath
       clipPathUnits="userSpaceOnUse"
       id="clipPath379">
      <path
         d="M 0,300.977 H 833.992 V 0 H 0 Z"
         id="path379" />
    </clipPath>
    <clipPath
       clipPathUnits="userSpaceOnUse"
       id="clipPath381">
      <path
         d="M 0,300.977 H 833.992 V 0 H 0 Z"
         id="path381" />
    </clipPath>
  </defs>
  <g
     id="layer1"
     transform="translate(-21.431248,-89.429166)">
    <g
       id="g19"
       transform="matrix(0.26458333,0,0,0.26458333,-45.018677,39.701962)">
      <path
         id="path366"
         d="m 198.825,154.661 h -10.213 v 5.107 h 10.213 z"
         style="fill:url(#pattern378);fill-rule:evenodd"
         transform="matrix(1.3333333,0,0,-1.3333333,0,401.30267)"
         clip-path="url(#clipPath379)" />
      <path
         style="color:#000000;fill:#000000;stroke-miterlimit:10;-inkscape-stroke:none"
         d="m 188.36133,149.30469 v 10.71289 h 10.71289 v -10.71289 h -0.25 z m 0.5,0.5 h 9.71289 v 9.71289 h -9.71289 z"
         id="path380"
         transform="matrix(1.3333333,0,0,-1.3333333,0,401.30267)" />
    </g>
  </g>
</svg>
