<?xml version="1.0" encoding="UTF-8" standalone="no"?>
<!-- Created with Inkscape (http://www.inkscape.org/) -->

<svg
   width="3.7793095mm"
   height="3.7793076mm"
   viewBox="0 0 3.7793095 3.7793076"
   version="1.1"
   id="svg1"
   xmlns:inkscape="http://www.inkscape.org/namespaces/inkscape"
   xmlns:sodipodi="http://sodipodi.sourceforge.net/DTD/sodipodi-0.dtd"
   xmlns="http://www.w3.org/2000/svg"
   xmlns:svg="http://www.w3.org/2000/svg">
  <sodipodi:namedview
     id="namedview1"
     pagecolor="#ffffff"
     bordercolor="#000000"
     borderopacity="0.25"
     inkscape:showpageshadow="2"
     inkscape:pageopacity="0.0"
     inkscape:pagecheckerboard="0"
     inkscape:deskcolor="#d1d1d1"
     inkscape:document-units="mm" />
  <defs
     id="defs1">
    <pattern
       patternTransform="matrix(-0.0917013,0,0,-0.082627,-8448.43,8978.21)"
       patternUnits="userSpaceOnUse"
       x="0"
       y="0"
       width="60.7988"
       height="60.7998"
       id="pattern394">
      <path
         d="m 22.799,7.601 -15.199,0 0,-15.2 15.199,0 0,15.2 z"
         style="fill:#231f20;fill-opacity:1;fill-rule:nonzero;stroke:none"
         id="path383" />
      <path
         d="m 53.199,7.601 -15.2,0 0,-15.2 15.2,0 0,15.2 z"
         style="fill:#231f20;fill-opacity:1;fill-rule:nonzero;stroke:none"
         id="path384" />
      <path
         d="m 22.799,22.8 15.2,0 0,-15.199 -15.2,0 0,15.199 z"
         style="fill:#231f20;fill-opacity:1;fill-rule:nonzero;stroke:none"
         id="path385" />
      <path
         d="m 53.199,22.8 15.2,0 0,-15.199 -15.2,0 0,15.199 z"
         style="fill:#231f20;fill-opacity:1;fill-rule:nonzero;stroke:none"
         id="path386" />
      <path
         d="m 22.799,37.999 -15.199,0 0,-15.199 15.199,0 0,15.199 z"
         style="fill:#231f20;fill-opacity:1;fill-rule:nonzero;stroke:none"
         id="path387" />
      <path
         d="m 53.199,37.999 -15.2,0 0,-15.199 15.2,0 0,15.199 z"
         style="fill:#231f20;fill-opacity:1;fill-rule:nonzero;stroke:none"
         id="path388" />
      <path
         d="m 22.799,53.199 15.2,0 0,-15.2 -15.2,0 0,15.2 z"
         style="fill:#231f20;fill-opacity:1;fill-rule:nonzero;stroke:none"
         id="path389" />
      <path
         d="m 53.199,53.199 15.2,0 0,-15.2 -15.2,0 0,15.2 z"
         style="fill:#231f20;fill-opacity:1;fill-rule:nonzero;stroke:none"
         id="path390" />
      <path
         d="m -7.6,22.8 15.2,0 0,-15.199 -15.2,0 0,15.199 z"
         style="fill:#231f20;fill-opacity:1;fill-rule:nonzero;stroke:none"
         id="path391" />
      <path
         d="m -7.6,53.199 15.2,0 0,-15.2 -15.2,0 0,15.2 z"
         style="fill:#231f20;fill-opacity:1;fill-rule:nonzero;stroke:none"
         id="path392" />
      <path
         d="m 22.799,68.4 -15.199,0 0,-15.2 15.199,0 0,15.2 z"
         style="fill:#231f20;fill-opacity:1;fill-rule:nonzero;stroke:none"
         id="path393" />
      <path
         d="m 53.199,68.4 -15.2,0 0,-15.2 15.2,0 0,15.2 z"
         style="fill:#231f20;fill-opacity:1;fill-rule:nonzero;stroke:none"
         id="path394" />
    </pattern>
    <clipPath
       clipPathUnits="userSpaceOnUse"
       id="clipPath395">
      <path
         d="M 0,300.977 H 833.992 V 0 H 0 Z"
         id="path395" />
    </clipPath>
    <clipPath
       clipPathUnits="userSpaceOnUse"
       id="clipPath397">
      <path
         d="M 0,300.977 H 833.992 V 0 H 0 Z"
         id="path397" />
    </clipPath>
  </defs>
  <g
     inkscape:label="Layer 1"
     inkscape:groupmode="layer"
     id="layer1"
     transform="translate(-21.431248,-89.429166)">
    <g
       id="g20"
       transform="matrix(0.26458333,0,0,0.26458333,-64.054212,39.680089)">
      <path
         id="path382"
         d="m 242.571,154.599 h 10.213 v -5.107 h -10.213 z"
         style="fill:url(#pattern394);fill-opacity:1;fill-rule:evenodd;stroke:none"
         transform="matrix(1.3333333,0,0,-1.3333333,0,401.30267)"
         clip-path="url(#clipPath395)" />
      <path
         id="path396"
         d="m 242.571,159.706 h 10.213 v -10.213 h -10.213 z"
         style="fill:none;stroke:#000000;stroke-width:0.5;stroke-linecap:butt;stroke-linejoin:miter;stroke-miterlimit:10;stroke-dasharray:none;stroke-opacity:1"
         transform="matrix(1.3333333,0,0,-1.3333333,0,401.30267)"
         clip-path="url(#clipPath397)" />
    </g>
  </g>
</svg>
