<?xml version="1.0" encoding="UTF-8" standalone="no"?>
<!-- Created with Inkscape (http://www.inkscape.org/) -->

<svg
   width="3.7793074mm"
   height="3.7793076mm"
   viewBox="0 0 3.7793074 3.7793076"
   version="1.1"
   id="svg1"
   xmlns:inkscape="http://www.inkscape.org/namespaces/inkscape"
   xmlns:sodipodi="http://sodipodi.sourceforge.net/DTD/sodipodi-0.dtd"
   xmlns="http://www.w3.org/2000/svg"
   xmlns:svg="http://www.w3.org/2000/svg">
  <sodipodi:namedview
     id="namedview1"
     pagecolor="#ffffff"
     bordercolor="#000000"
     borderopacity="0.25"
     inkscape:showpageshadow="2"
     inkscape:pageopacity="0.0"
     inkscape:pagecheckerboard="0"
     inkscape:deskcolor="#d1d1d1"
     inkscape:document-units="mm" />
  <defs
     id="defs1">
    <pattern
       patternTransform="matrix(0.0917013,0,0,0.082627,-7031.3,7728.36)"
       patternUnits="userSpaceOnUse"
       x="0"
       y="0"
       width="60.7988"
       height="60.7998"
       id="pattern410">
      <path
         d="m 22.799,7.601 -15.199,0 0,-15.2 15.199,0 0,15.2 z"
         style="fill:#231f20;fill-opacity:1;fill-rule:nonzero;stroke:none"
         id="path399" />
      <path
         d="m 53.199,7.601 -15.2,0 0,-15.2 15.2,0 0,15.2 z"
         style="fill:#231f20;fill-opacity:1;fill-rule:nonzero;stroke:none"
         id="path400" />
      <path
         d="m 22.799,22.8 15.2,0 0,-15.199 -15.2,0 0,15.199 z"
         style="fill:#231f20;fill-opacity:1;fill-rule:nonzero;stroke:none"
         id="path401" />
      <path
         d="m 53.199,22.8 15.2,0 0,-15.199 -15.2,0 0,15.199 z"
         style="fill:#231f20;fill-opacity:1;fill-rule:nonzero;stroke:none"
         id="path402" />
      <path
         d="m 22.799,37.999 -15.199,0 0,-15.199 15.199,0 0,15.199 z"
         style="fill:#231f20;fill-opacity:1;fill-rule:nonzero;stroke:none"
         id="path403" />
      <path
         d="m 53.199,37.999 -15.2,0 0,-15.199 15.2,0 0,15.199 z"
         style="fill:#231f20;fill-opacity:1;fill-rule:nonzero;stroke:none"
         id="path404" />
      <path
         d="m 22.799,53.199 15.2,0 0,-15.2 -15.2,0 0,15.2 z"
         style="fill:#231f20;fill-opacity:1;fill-rule:nonzero;stroke:none"
         id="path405" />
      <path
         d="m 53.199,53.199 15.2,0 0,-15.2 -15.2,0 0,15.2 z"
         style="fill:#231f20;fill-opacity:1;fill-rule:nonzero;stroke:none"
         id="path406" />
      <path
         d="m -7.6,22.8 15.2,0 0,-15.199 -15.2,0 0,15.199 z"
         style="fill:#231f20;fill-opacity:1;fill-rule:nonzero;stroke:none"
         id="path407" />
      <path
         d="m -7.6,53.199 15.2,0 0,-15.2 -15.2,0 0,15.2 z"
         style="fill:#231f20;fill-opacity:1;fill-rule:nonzero;stroke:none"
         id="path408" />
      <path
         d="m 22.799,68.4 -15.199,0 0,-15.2 15.199,0 0,15.2 z"
         style="fill:#231f20;fill-opacity:1;fill-rule:nonzero;stroke:none"
         id="path409" />
      <path
         d="m 53.199,68.4 -15.2,0 0,-15.2 15.2,0 0,15.2 z"
         style="fill:#231f20;fill-opacity:1;fill-rule:nonzero;stroke:none"
         id="path410" />
    </pattern>
    <clipPath
       clipPathUnits="userSpaceOnUse"
       id="clipPath411">
      <path
         d="M 0,300.977 H 833.992 V 0 H 0 Z"
         id="path411" />
    </clipPath>
    <clipPath
       clipPathUnits="userSpaceOnUse"
       id="clipPath413">
      <path
         d="M 0,300.977 H 833.992 V 0 H 0 Z"
         id="path413" />
    </clipPath>
    <clipPath
       clipPathUnits="userSpaceOnUse"
       id="clipPath415">
      <path
         d="M 0,300.977 H 833.992 V 0 H 0 Z"
         id="path415" />
    </clipPath>
  </defs>
  <g
     inkscape:label="Layer 1"
     inkscape:groupmode="layer"
     id="layer1"
     transform="translate(-21.431248,-89.429166)">
    <g
       id="g21"
       transform="matrix(0.26458333,0,0,0.26458333,-83.09751,39.679737)">
      <path
         id="path398"
         d="m 306.765,154.599 h -10.213 v 5.107 h 10.213 z"
         style="fill:url(#pattern410);fill-opacity:1;fill-rule:evenodd;stroke:none"
         transform="matrix(1.3333333,0,0,-1.3333333,0,401.30267)"
         clip-path="url(#clipPath411)" />
      <path
         id="path412"
         d="m 306.765,149.492 h -10.213 v 10.213 h 10.213 z"
         style="fill:none;stroke:#000000;stroke-width:0.5;stroke-linecap:butt;stroke-linejoin:miter;stroke-miterlimit:10;stroke-dasharray:none;stroke-opacity:1"
         transform="matrix(1.3333333,0,0,-1.3333333,0,401.30267)"
         clip-path="url(#clipPath413)" />
      <path
         id="path414"
         d="m 306.765,149.423 h -9.961 v 5.323 h 9.961 z"
         style="fill:#000000;fill-opacity:1;fill-rule:evenodd;stroke:none"
         transform="matrix(1.3333333,0,0,-1.3333333,0,401.30267)"
         clip-path="url(#clipPath415)" />
    </g>
  </g>
</svg>
