%TF.GenerationSoftware,KiCad,Pcbnew,9.0.2*%
%TF.CreationDate,2025-07-24T10:59:42+01:00*%
%TF.ProjectId,ZX-81Keyboard_v1.1,5a582d38-314b-4657-9962-6f6172645f76,rev?*%
%TF.SameCoordinates,Original*%
%TF.FileFunction,Legend,Bot*%
%TF.FilePolarity,Positive*%
%FSLAX46Y46*%
G04 Gerber Fmt 4.6, Leading zero omitted, Abs format (unit mm)*
G04 Created by KiCad (PCBNEW 9.0.2) date 2025-07-24 10:59:42*
%MOMM*%
%LPD*%
G01*
G04 APERTURE LIST*
%ADD10C,0.300000*%
G04 APERTURE END LIST*
D10*
X47791427Y-111314328D02*
X47434284Y-112314328D01*
X47434284Y-112314328D02*
X47077141Y-111314328D01*
X45719998Y-112314328D02*
X46577141Y-112314328D01*
X46148570Y-112314328D02*
X46148570Y-110814328D01*
X46148570Y-110814328D02*
X46291427Y-111028614D01*
X46291427Y-111028614D02*
X46434284Y-111171471D01*
X46434284Y-111171471D02*
X46577141Y-111242900D01*
X45077142Y-112171471D02*
X45005713Y-112242900D01*
X45005713Y-112242900D02*
X45077142Y-112314328D01*
X45077142Y-112314328D02*
X45148570Y-112242900D01*
X45148570Y-112242900D02*
X45077142Y-112171471D01*
X45077142Y-112171471D02*
X45077142Y-112314328D01*
X44077141Y-110814328D02*
X43934284Y-110814328D01*
X43934284Y-110814328D02*
X43791427Y-110885757D01*
X43791427Y-110885757D02*
X43719999Y-110957185D01*
X43719999Y-110957185D02*
X43648570Y-111100042D01*
X43648570Y-111100042D02*
X43577141Y-111385757D01*
X43577141Y-111385757D02*
X43577141Y-111742900D01*
X43577141Y-111742900D02*
X43648570Y-112028614D01*
X43648570Y-112028614D02*
X43719999Y-112171471D01*
X43719999Y-112171471D02*
X43791427Y-112242900D01*
X43791427Y-112242900D02*
X43934284Y-112314328D01*
X43934284Y-112314328D02*
X44077141Y-112314328D01*
X44077141Y-112314328D02*
X44219999Y-112242900D01*
X44219999Y-112242900D02*
X44291427Y-112171471D01*
X44291427Y-112171471D02*
X44362856Y-112028614D01*
X44362856Y-112028614D02*
X44434284Y-111742900D01*
X44434284Y-111742900D02*
X44434284Y-111385757D01*
X44434284Y-111385757D02*
X44362856Y-111100042D01*
X44362856Y-111100042D02*
X44291427Y-110957185D01*
X44291427Y-110957185D02*
X44219999Y-110885757D01*
X44219999Y-110885757D02*
X44077141Y-110814328D01*
X41862856Y-110957185D02*
X41791428Y-110885757D01*
X41791428Y-110885757D02*
X41648571Y-110814328D01*
X41648571Y-110814328D02*
X41291428Y-110814328D01*
X41291428Y-110814328D02*
X41148571Y-110885757D01*
X41148571Y-110885757D02*
X41077142Y-110957185D01*
X41077142Y-110957185D02*
X41005713Y-111100042D01*
X41005713Y-111100042D02*
X41005713Y-111242900D01*
X41005713Y-111242900D02*
X41077142Y-111457185D01*
X41077142Y-111457185D02*
X41934285Y-112314328D01*
X41934285Y-112314328D02*
X41005713Y-112314328D01*
X40077142Y-110814328D02*
X39934285Y-110814328D01*
X39934285Y-110814328D02*
X39791428Y-110885757D01*
X39791428Y-110885757D02*
X39720000Y-110957185D01*
X39720000Y-110957185D02*
X39648571Y-111100042D01*
X39648571Y-111100042D02*
X39577142Y-111385757D01*
X39577142Y-111385757D02*
X39577142Y-111742900D01*
X39577142Y-111742900D02*
X39648571Y-112028614D01*
X39648571Y-112028614D02*
X39720000Y-112171471D01*
X39720000Y-112171471D02*
X39791428Y-112242900D01*
X39791428Y-112242900D02*
X39934285Y-112314328D01*
X39934285Y-112314328D02*
X40077142Y-112314328D01*
X40077142Y-112314328D02*
X40220000Y-112242900D01*
X40220000Y-112242900D02*
X40291428Y-112171471D01*
X40291428Y-112171471D02*
X40362857Y-112028614D01*
X40362857Y-112028614D02*
X40434285Y-111742900D01*
X40434285Y-111742900D02*
X40434285Y-111385757D01*
X40434285Y-111385757D02*
X40362857Y-111100042D01*
X40362857Y-111100042D02*
X40291428Y-110957185D01*
X40291428Y-110957185D02*
X40220000Y-110885757D01*
X40220000Y-110885757D02*
X40077142Y-110814328D01*
X39005714Y-110957185D02*
X38934286Y-110885757D01*
X38934286Y-110885757D02*
X38791429Y-110814328D01*
X38791429Y-110814328D02*
X38434286Y-110814328D01*
X38434286Y-110814328D02*
X38291429Y-110885757D01*
X38291429Y-110885757D02*
X38220000Y-110957185D01*
X38220000Y-110957185D02*
X38148571Y-111100042D01*
X38148571Y-111100042D02*
X38148571Y-111242900D01*
X38148571Y-111242900D02*
X38220000Y-111457185D01*
X38220000Y-111457185D02*
X39077143Y-112314328D01*
X39077143Y-112314328D02*
X38148571Y-112314328D01*
X36791429Y-110814328D02*
X37505715Y-110814328D01*
X37505715Y-110814328D02*
X37577143Y-111528614D01*
X37577143Y-111528614D02*
X37505715Y-111457185D01*
X37505715Y-111457185D02*
X37362858Y-111385757D01*
X37362858Y-111385757D02*
X37005715Y-111385757D01*
X37005715Y-111385757D02*
X36862858Y-111457185D01*
X36862858Y-111457185D02*
X36791429Y-111528614D01*
X36791429Y-111528614D02*
X36720000Y-111671471D01*
X36720000Y-111671471D02*
X36720000Y-112028614D01*
X36720000Y-112028614D02*
X36791429Y-112171471D01*
X36791429Y-112171471D02*
X36862858Y-112242900D01*
X36862858Y-112242900D02*
X37005715Y-112314328D01*
X37005715Y-112314328D02*
X37362858Y-112314328D01*
X37362858Y-112314328D02*
X37505715Y-112242900D01*
X37505715Y-112242900D02*
X37577143Y-112171471D01*
M02*
