%TF.GenerationSoftware,KiCad,Pcbnew,9.0.2*%
%TF.CreationDate,2025-07-24T10:59:42+01:00*%
%TF.ProjectId,ZX-81Keyboard_v1.1,5a582d38-314b-4657-9962-6f6172645f76,rev?*%
%TF.SameCoordinates,Original*%
%TF.FileFunction,Legend,Top*%
%TF.FilePolarity,Positive*%
%FSLAX46Y46*%
G04 Gerber Fmt 4.6, Leading zero omitted, Abs format (unit mm)*
G04 Created by KiCad (PCBNEW 9.0.2) date 2025-07-24 10:59:42*
%MOMM*%
%LPD*%
G01*
G04 APERTURE LIST*
%ADD10C,0.300000*%
%ADD11C,0.150000*%
%ADD12C,0.120000*%
G04 APERTURE END LIST*
D10*
X229025142Y-46401328D02*
X229025142Y-44901328D01*
X229882285Y-46401328D02*
X229239428Y-45544185D01*
X229882285Y-44901328D02*
X229025142Y-45758471D01*
X232108857Y-45972757D02*
X232823143Y-45972757D01*
X231966000Y-46401328D02*
X232466000Y-44901328D01*
X232466000Y-44901328D02*
X232966000Y-46401328D01*
D11*
X120030476Y-93463200D02*
X120173333Y-93510819D01*
X120173333Y-93510819D02*
X120411428Y-93510819D01*
X120411428Y-93510819D02*
X120506666Y-93463200D01*
X120506666Y-93463200D02*
X120554285Y-93415580D01*
X120554285Y-93415580D02*
X120601904Y-93320342D01*
X120601904Y-93320342D02*
X120601904Y-93225104D01*
X120601904Y-93225104D02*
X120554285Y-93129866D01*
X120554285Y-93129866D02*
X120506666Y-93082247D01*
X120506666Y-93082247D02*
X120411428Y-93034628D01*
X120411428Y-93034628D02*
X120220952Y-92987009D01*
X120220952Y-92987009D02*
X120125714Y-92939390D01*
X120125714Y-92939390D02*
X120078095Y-92891771D01*
X120078095Y-92891771D02*
X120030476Y-92796533D01*
X120030476Y-92796533D02*
X120030476Y-92701295D01*
X120030476Y-92701295D02*
X120078095Y-92606057D01*
X120078095Y-92606057D02*
X120125714Y-92558438D01*
X120125714Y-92558438D02*
X120220952Y-92510819D01*
X120220952Y-92510819D02*
X120459047Y-92510819D01*
X120459047Y-92510819D02*
X120601904Y-92558438D01*
X120935238Y-92510819D02*
X121173333Y-93510819D01*
X121173333Y-93510819D02*
X121363809Y-92796533D01*
X121363809Y-92796533D02*
X121554285Y-93510819D01*
X121554285Y-93510819D02*
X121792381Y-92510819D01*
X122078095Y-92510819D02*
X122697142Y-92510819D01*
X122697142Y-92510819D02*
X122363809Y-92891771D01*
X122363809Y-92891771D02*
X122506666Y-92891771D01*
X122506666Y-92891771D02*
X122601904Y-92939390D01*
X122601904Y-92939390D02*
X122649523Y-92987009D01*
X122649523Y-92987009D02*
X122697142Y-93082247D01*
X122697142Y-93082247D02*
X122697142Y-93320342D01*
X122697142Y-93320342D02*
X122649523Y-93415580D01*
X122649523Y-93415580D02*
X122601904Y-93463200D01*
X122601904Y-93463200D02*
X122506666Y-93510819D01*
X122506666Y-93510819D02*
X122220952Y-93510819D01*
X122220952Y-93510819D02*
X122125714Y-93463200D01*
X122125714Y-93463200D02*
X122078095Y-93415580D01*
X123601904Y-92510819D02*
X123125714Y-92510819D01*
X123125714Y-92510819D02*
X123078095Y-92987009D01*
X123078095Y-92987009D02*
X123125714Y-92939390D01*
X123125714Y-92939390D02*
X123220952Y-92891771D01*
X123220952Y-92891771D02*
X123459047Y-92891771D01*
X123459047Y-92891771D02*
X123554285Y-92939390D01*
X123554285Y-92939390D02*
X123601904Y-92987009D01*
X123601904Y-92987009D02*
X123649523Y-93082247D01*
X123649523Y-93082247D02*
X123649523Y-93320342D01*
X123649523Y-93320342D02*
X123601904Y-93415580D01*
X123601904Y-93415580D02*
X123554285Y-93463200D01*
X123554285Y-93463200D02*
X123459047Y-93510819D01*
X123459047Y-93510819D02*
X123220952Y-93510819D01*
X123220952Y-93510819D02*
X123125714Y-93463200D01*
X123125714Y-93463200D02*
X123078095Y-93415580D01*
X121506667Y-108258819D02*
X121840000Y-109258819D01*
X121840000Y-109258819D02*
X122173333Y-108258819D01*
X198604666Y-32350819D02*
X198604666Y-33065104D01*
X198604666Y-33065104D02*
X198557047Y-33207961D01*
X198557047Y-33207961D02*
X198461809Y-33303200D01*
X198461809Y-33303200D02*
X198318952Y-33350819D01*
X198318952Y-33350819D02*
X198223714Y-33350819D01*
X199604666Y-33350819D02*
X199033238Y-33350819D01*
X199318952Y-33350819D02*
X199318952Y-32350819D01*
X199318952Y-32350819D02*
X199223714Y-32493676D01*
X199223714Y-32493676D02*
X199128476Y-32588914D01*
X199128476Y-32588914D02*
X199033238Y-32636533D01*
X153606667Y-36313200D02*
X153749524Y-36360819D01*
X153749524Y-36360819D02*
X153987619Y-36360819D01*
X153987619Y-36360819D02*
X154082857Y-36313200D01*
X154082857Y-36313200D02*
X154130476Y-36265580D01*
X154130476Y-36265580D02*
X154178095Y-36170342D01*
X154178095Y-36170342D02*
X154178095Y-36075104D01*
X154178095Y-36075104D02*
X154130476Y-35979866D01*
X154130476Y-35979866D02*
X154082857Y-35932247D01*
X154082857Y-35932247D02*
X153987619Y-35884628D01*
X153987619Y-35884628D02*
X153797143Y-35837009D01*
X153797143Y-35837009D02*
X153701905Y-35789390D01*
X153701905Y-35789390D02*
X153654286Y-35741771D01*
X153654286Y-35741771D02*
X153606667Y-35646533D01*
X153606667Y-35646533D02*
X153606667Y-35551295D01*
X153606667Y-35551295D02*
X153654286Y-35456057D01*
X153654286Y-35456057D02*
X153701905Y-35408438D01*
X153701905Y-35408438D02*
X153797143Y-35360819D01*
X153797143Y-35360819D02*
X154035238Y-35360819D01*
X154035238Y-35360819D02*
X154178095Y-35408438D01*
X154511429Y-35360819D02*
X154749524Y-36360819D01*
X154749524Y-36360819D02*
X154940000Y-35646533D01*
X154940000Y-35646533D02*
X155130476Y-36360819D01*
X155130476Y-36360819D02*
X155368572Y-35360819D01*
X155654286Y-35360819D02*
X156320952Y-35360819D01*
X156320952Y-35360819D02*
X155892381Y-36360819D01*
X154606667Y-51108819D02*
X155273333Y-51108819D01*
X155273333Y-51108819D02*
X154844762Y-52108819D01*
X86455476Y-55363200D02*
X86598333Y-55410819D01*
X86598333Y-55410819D02*
X86836428Y-55410819D01*
X86836428Y-55410819D02*
X86931666Y-55363200D01*
X86931666Y-55363200D02*
X86979285Y-55315580D01*
X86979285Y-55315580D02*
X87026904Y-55220342D01*
X87026904Y-55220342D02*
X87026904Y-55125104D01*
X87026904Y-55125104D02*
X86979285Y-55029866D01*
X86979285Y-55029866D02*
X86931666Y-54982247D01*
X86931666Y-54982247D02*
X86836428Y-54934628D01*
X86836428Y-54934628D02*
X86645952Y-54887009D01*
X86645952Y-54887009D02*
X86550714Y-54839390D01*
X86550714Y-54839390D02*
X86503095Y-54791771D01*
X86503095Y-54791771D02*
X86455476Y-54696533D01*
X86455476Y-54696533D02*
X86455476Y-54601295D01*
X86455476Y-54601295D02*
X86503095Y-54506057D01*
X86503095Y-54506057D02*
X86550714Y-54458438D01*
X86550714Y-54458438D02*
X86645952Y-54410819D01*
X86645952Y-54410819D02*
X86884047Y-54410819D01*
X86884047Y-54410819D02*
X87026904Y-54458438D01*
X87360238Y-54410819D02*
X87598333Y-55410819D01*
X87598333Y-55410819D02*
X87788809Y-54696533D01*
X87788809Y-54696533D02*
X87979285Y-55410819D01*
X87979285Y-55410819D02*
X88217381Y-54410819D01*
X89122142Y-55410819D02*
X88550714Y-55410819D01*
X88836428Y-55410819D02*
X88836428Y-54410819D01*
X88836428Y-54410819D02*
X88741190Y-54553676D01*
X88741190Y-54553676D02*
X88645952Y-54648914D01*
X88645952Y-54648914D02*
X88550714Y-54696533D01*
X89455476Y-54410819D02*
X90074523Y-54410819D01*
X90074523Y-54410819D02*
X89741190Y-54791771D01*
X89741190Y-54791771D02*
X89884047Y-54791771D01*
X89884047Y-54791771D02*
X89979285Y-54839390D01*
X89979285Y-54839390D02*
X90026904Y-54887009D01*
X90026904Y-54887009D02*
X90074523Y-54982247D01*
X90074523Y-54982247D02*
X90074523Y-55220342D01*
X90074523Y-55220342D02*
X90026904Y-55315580D01*
X90026904Y-55315580D02*
X89979285Y-55363200D01*
X89979285Y-55363200D02*
X89884047Y-55410819D01*
X89884047Y-55410819D02*
X89598333Y-55410819D01*
X89598333Y-55410819D02*
X89503095Y-55363200D01*
X89503095Y-55363200D02*
X89455476Y-55315580D01*
X88050714Y-70635009D02*
X88384047Y-70635009D01*
X88526904Y-71158819D02*
X88050714Y-71158819D01*
X88050714Y-71158819D02*
X88050714Y-70158819D01*
X88050714Y-70158819D02*
X88526904Y-70158819D01*
X81930476Y-93463200D02*
X82073333Y-93510819D01*
X82073333Y-93510819D02*
X82311428Y-93510819D01*
X82311428Y-93510819D02*
X82406666Y-93463200D01*
X82406666Y-93463200D02*
X82454285Y-93415580D01*
X82454285Y-93415580D02*
X82501904Y-93320342D01*
X82501904Y-93320342D02*
X82501904Y-93225104D01*
X82501904Y-93225104D02*
X82454285Y-93129866D01*
X82454285Y-93129866D02*
X82406666Y-93082247D01*
X82406666Y-93082247D02*
X82311428Y-93034628D01*
X82311428Y-93034628D02*
X82120952Y-92987009D01*
X82120952Y-92987009D02*
X82025714Y-92939390D01*
X82025714Y-92939390D02*
X81978095Y-92891771D01*
X81978095Y-92891771D02*
X81930476Y-92796533D01*
X81930476Y-92796533D02*
X81930476Y-92701295D01*
X81930476Y-92701295D02*
X81978095Y-92606057D01*
X81978095Y-92606057D02*
X82025714Y-92558438D01*
X82025714Y-92558438D02*
X82120952Y-92510819D01*
X82120952Y-92510819D02*
X82359047Y-92510819D01*
X82359047Y-92510819D02*
X82501904Y-92558438D01*
X82835238Y-92510819D02*
X83073333Y-93510819D01*
X83073333Y-93510819D02*
X83263809Y-92796533D01*
X83263809Y-92796533D02*
X83454285Y-93510819D01*
X83454285Y-93510819D02*
X83692381Y-92510819D01*
X83978095Y-92510819D02*
X84597142Y-92510819D01*
X84597142Y-92510819D02*
X84263809Y-92891771D01*
X84263809Y-92891771D02*
X84406666Y-92891771D01*
X84406666Y-92891771D02*
X84501904Y-92939390D01*
X84501904Y-92939390D02*
X84549523Y-92987009D01*
X84549523Y-92987009D02*
X84597142Y-93082247D01*
X84597142Y-93082247D02*
X84597142Y-93320342D01*
X84597142Y-93320342D02*
X84549523Y-93415580D01*
X84549523Y-93415580D02*
X84501904Y-93463200D01*
X84501904Y-93463200D02*
X84406666Y-93510819D01*
X84406666Y-93510819D02*
X84120952Y-93510819D01*
X84120952Y-93510819D02*
X84025714Y-93463200D01*
X84025714Y-93463200D02*
X83978095Y-93415580D01*
X84930476Y-92510819D02*
X85549523Y-92510819D01*
X85549523Y-92510819D02*
X85216190Y-92891771D01*
X85216190Y-92891771D02*
X85359047Y-92891771D01*
X85359047Y-92891771D02*
X85454285Y-92939390D01*
X85454285Y-92939390D02*
X85501904Y-92987009D01*
X85501904Y-92987009D02*
X85549523Y-93082247D01*
X85549523Y-93082247D02*
X85549523Y-93320342D01*
X85549523Y-93320342D02*
X85501904Y-93415580D01*
X85501904Y-93415580D02*
X85454285Y-93463200D01*
X85454285Y-93463200D02*
X85359047Y-93510819D01*
X85359047Y-93510819D02*
X85073333Y-93510819D01*
X85073333Y-93510819D02*
X84978095Y-93463200D01*
X84978095Y-93463200D02*
X84930476Y-93415580D01*
X83406667Y-108258819D02*
X84073333Y-109258819D01*
X84073333Y-108258819D02*
X83406667Y-109258819D01*
X91455476Y-74413200D02*
X91598333Y-74460819D01*
X91598333Y-74460819D02*
X91836428Y-74460819D01*
X91836428Y-74460819D02*
X91931666Y-74413200D01*
X91931666Y-74413200D02*
X91979285Y-74365580D01*
X91979285Y-74365580D02*
X92026904Y-74270342D01*
X92026904Y-74270342D02*
X92026904Y-74175104D01*
X92026904Y-74175104D02*
X91979285Y-74079866D01*
X91979285Y-74079866D02*
X91931666Y-74032247D01*
X91931666Y-74032247D02*
X91836428Y-73984628D01*
X91836428Y-73984628D02*
X91645952Y-73937009D01*
X91645952Y-73937009D02*
X91550714Y-73889390D01*
X91550714Y-73889390D02*
X91503095Y-73841771D01*
X91503095Y-73841771D02*
X91455476Y-73746533D01*
X91455476Y-73746533D02*
X91455476Y-73651295D01*
X91455476Y-73651295D02*
X91503095Y-73556057D01*
X91503095Y-73556057D02*
X91550714Y-73508438D01*
X91550714Y-73508438D02*
X91645952Y-73460819D01*
X91645952Y-73460819D02*
X91884047Y-73460819D01*
X91884047Y-73460819D02*
X92026904Y-73508438D01*
X92360238Y-73460819D02*
X92598333Y-74460819D01*
X92598333Y-74460819D02*
X92788809Y-73746533D01*
X92788809Y-73746533D02*
X92979285Y-74460819D01*
X92979285Y-74460819D02*
X93217381Y-73460819D01*
X93550714Y-73556057D02*
X93598333Y-73508438D01*
X93598333Y-73508438D02*
X93693571Y-73460819D01*
X93693571Y-73460819D02*
X93931666Y-73460819D01*
X93931666Y-73460819D02*
X94026904Y-73508438D01*
X94026904Y-73508438D02*
X94074523Y-73556057D01*
X94074523Y-73556057D02*
X94122142Y-73651295D01*
X94122142Y-73651295D02*
X94122142Y-73746533D01*
X94122142Y-73746533D02*
X94074523Y-73889390D01*
X94074523Y-73889390D02*
X93503095Y-74460819D01*
X93503095Y-74460819D02*
X94122142Y-74460819D01*
X94455476Y-73460819D02*
X95074523Y-73460819D01*
X95074523Y-73460819D02*
X94741190Y-73841771D01*
X94741190Y-73841771D02*
X94884047Y-73841771D01*
X94884047Y-73841771D02*
X94979285Y-73889390D01*
X94979285Y-73889390D02*
X95026904Y-73937009D01*
X95026904Y-73937009D02*
X95074523Y-74032247D01*
X95074523Y-74032247D02*
X95074523Y-74270342D01*
X95074523Y-74270342D02*
X95026904Y-74365580D01*
X95026904Y-74365580D02*
X94979285Y-74413200D01*
X94979285Y-74413200D02*
X94884047Y-74460819D01*
X94884047Y-74460819D02*
X94598333Y-74460819D01*
X94598333Y-74460819D02*
X94503095Y-74413200D01*
X94503095Y-74413200D02*
X94455476Y-74365580D01*
X93003095Y-90208819D02*
X93003095Y-89208819D01*
X93003095Y-89208819D02*
X93241190Y-89208819D01*
X93241190Y-89208819D02*
X93384047Y-89256438D01*
X93384047Y-89256438D02*
X93479285Y-89351676D01*
X93479285Y-89351676D02*
X93526904Y-89446914D01*
X93526904Y-89446914D02*
X93574523Y-89637390D01*
X93574523Y-89637390D02*
X93574523Y-89780247D01*
X93574523Y-89780247D02*
X93526904Y-89970723D01*
X93526904Y-89970723D02*
X93479285Y-90065961D01*
X93479285Y-90065961D02*
X93384047Y-90161200D01*
X93384047Y-90161200D02*
X93241190Y-90208819D01*
X93241190Y-90208819D02*
X93003095Y-90208819D01*
X143605476Y-55363200D02*
X143748333Y-55410819D01*
X143748333Y-55410819D02*
X143986428Y-55410819D01*
X143986428Y-55410819D02*
X144081666Y-55363200D01*
X144081666Y-55363200D02*
X144129285Y-55315580D01*
X144129285Y-55315580D02*
X144176904Y-55220342D01*
X144176904Y-55220342D02*
X144176904Y-55125104D01*
X144176904Y-55125104D02*
X144129285Y-55029866D01*
X144129285Y-55029866D02*
X144081666Y-54982247D01*
X144081666Y-54982247D02*
X143986428Y-54934628D01*
X143986428Y-54934628D02*
X143795952Y-54887009D01*
X143795952Y-54887009D02*
X143700714Y-54839390D01*
X143700714Y-54839390D02*
X143653095Y-54791771D01*
X143653095Y-54791771D02*
X143605476Y-54696533D01*
X143605476Y-54696533D02*
X143605476Y-54601295D01*
X143605476Y-54601295D02*
X143653095Y-54506057D01*
X143653095Y-54506057D02*
X143700714Y-54458438D01*
X143700714Y-54458438D02*
X143795952Y-54410819D01*
X143795952Y-54410819D02*
X144034047Y-54410819D01*
X144034047Y-54410819D02*
X144176904Y-54458438D01*
X144510238Y-54410819D02*
X144748333Y-55410819D01*
X144748333Y-55410819D02*
X144938809Y-54696533D01*
X144938809Y-54696533D02*
X145129285Y-55410819D01*
X145129285Y-55410819D02*
X145367381Y-54410819D01*
X146272142Y-55410819D02*
X145700714Y-55410819D01*
X145986428Y-55410819D02*
X145986428Y-54410819D01*
X145986428Y-54410819D02*
X145891190Y-54553676D01*
X145891190Y-54553676D02*
X145795952Y-54648914D01*
X145795952Y-54648914D02*
X145700714Y-54696533D01*
X147129285Y-54410819D02*
X146938809Y-54410819D01*
X146938809Y-54410819D02*
X146843571Y-54458438D01*
X146843571Y-54458438D02*
X146795952Y-54506057D01*
X146795952Y-54506057D02*
X146700714Y-54648914D01*
X146700714Y-54648914D02*
X146653095Y-54839390D01*
X146653095Y-54839390D02*
X146653095Y-55220342D01*
X146653095Y-55220342D02*
X146700714Y-55315580D01*
X146700714Y-55315580D02*
X146748333Y-55363200D01*
X146748333Y-55363200D02*
X146843571Y-55410819D01*
X146843571Y-55410819D02*
X147034047Y-55410819D01*
X147034047Y-55410819D02*
X147129285Y-55363200D01*
X147129285Y-55363200D02*
X147176904Y-55315580D01*
X147176904Y-55315580D02*
X147224523Y-55220342D01*
X147224523Y-55220342D02*
X147224523Y-54982247D01*
X147224523Y-54982247D02*
X147176904Y-54887009D01*
X147176904Y-54887009D02*
X147129285Y-54839390D01*
X147129285Y-54839390D02*
X147034047Y-54791771D01*
X147034047Y-54791771D02*
X146843571Y-54791771D01*
X146843571Y-54791771D02*
X146748333Y-54839390D01*
X146748333Y-54839390D02*
X146700714Y-54887009D01*
X146700714Y-54887009D02*
X146653095Y-54982247D01*
X145415000Y-70682628D02*
X145415000Y-71158819D01*
X145081667Y-70158819D02*
X145415000Y-70682628D01*
X145415000Y-70682628D02*
X145748333Y-70158819D01*
X191706667Y-36313200D02*
X191849524Y-36360819D01*
X191849524Y-36360819D02*
X192087619Y-36360819D01*
X192087619Y-36360819D02*
X192182857Y-36313200D01*
X192182857Y-36313200D02*
X192230476Y-36265580D01*
X192230476Y-36265580D02*
X192278095Y-36170342D01*
X192278095Y-36170342D02*
X192278095Y-36075104D01*
X192278095Y-36075104D02*
X192230476Y-35979866D01*
X192230476Y-35979866D02*
X192182857Y-35932247D01*
X192182857Y-35932247D02*
X192087619Y-35884628D01*
X192087619Y-35884628D02*
X191897143Y-35837009D01*
X191897143Y-35837009D02*
X191801905Y-35789390D01*
X191801905Y-35789390D02*
X191754286Y-35741771D01*
X191754286Y-35741771D02*
X191706667Y-35646533D01*
X191706667Y-35646533D02*
X191706667Y-35551295D01*
X191706667Y-35551295D02*
X191754286Y-35456057D01*
X191754286Y-35456057D02*
X191801905Y-35408438D01*
X191801905Y-35408438D02*
X191897143Y-35360819D01*
X191897143Y-35360819D02*
X192135238Y-35360819D01*
X192135238Y-35360819D02*
X192278095Y-35408438D01*
X192611429Y-35360819D02*
X192849524Y-36360819D01*
X192849524Y-36360819D02*
X193040000Y-35646533D01*
X193040000Y-35646533D02*
X193230476Y-36360819D01*
X193230476Y-36360819D02*
X193468572Y-35360819D01*
X193897143Y-36360819D02*
X194087619Y-36360819D01*
X194087619Y-36360819D02*
X194182857Y-36313200D01*
X194182857Y-36313200D02*
X194230476Y-36265580D01*
X194230476Y-36265580D02*
X194325714Y-36122723D01*
X194325714Y-36122723D02*
X194373333Y-35932247D01*
X194373333Y-35932247D02*
X194373333Y-35551295D01*
X194373333Y-35551295D02*
X194325714Y-35456057D01*
X194325714Y-35456057D02*
X194278095Y-35408438D01*
X194278095Y-35408438D02*
X194182857Y-35360819D01*
X194182857Y-35360819D02*
X193992381Y-35360819D01*
X193992381Y-35360819D02*
X193897143Y-35408438D01*
X193897143Y-35408438D02*
X193849524Y-35456057D01*
X193849524Y-35456057D02*
X193801905Y-35551295D01*
X193801905Y-35551295D02*
X193801905Y-35789390D01*
X193801905Y-35789390D02*
X193849524Y-35884628D01*
X193849524Y-35884628D02*
X193897143Y-35932247D01*
X193897143Y-35932247D02*
X193992381Y-35979866D01*
X193992381Y-35979866D02*
X194182857Y-35979866D01*
X194182857Y-35979866D02*
X194278095Y-35932247D01*
X194278095Y-35932247D02*
X194325714Y-35884628D01*
X194325714Y-35884628D02*
X194373333Y-35789390D01*
X192849524Y-52108819D02*
X193040000Y-52108819D01*
X193040000Y-52108819D02*
X193135238Y-52061200D01*
X193135238Y-52061200D02*
X193182857Y-52013580D01*
X193182857Y-52013580D02*
X193278095Y-51870723D01*
X193278095Y-51870723D02*
X193325714Y-51680247D01*
X193325714Y-51680247D02*
X193325714Y-51299295D01*
X193325714Y-51299295D02*
X193278095Y-51204057D01*
X193278095Y-51204057D02*
X193230476Y-51156438D01*
X193230476Y-51156438D02*
X193135238Y-51108819D01*
X193135238Y-51108819D02*
X192944762Y-51108819D01*
X192944762Y-51108819D02*
X192849524Y-51156438D01*
X192849524Y-51156438D02*
X192801905Y-51204057D01*
X192801905Y-51204057D02*
X192754286Y-51299295D01*
X192754286Y-51299295D02*
X192754286Y-51537390D01*
X192754286Y-51537390D02*
X192801905Y-51632628D01*
X192801905Y-51632628D02*
X192849524Y-51680247D01*
X192849524Y-51680247D02*
X192944762Y-51727866D01*
X192944762Y-51727866D02*
X193135238Y-51727866D01*
X193135238Y-51727866D02*
X193230476Y-51680247D01*
X193230476Y-51680247D02*
X193278095Y-51632628D01*
X193278095Y-51632628D02*
X193325714Y-51537390D01*
X219805476Y-55363200D02*
X219948333Y-55410819D01*
X219948333Y-55410819D02*
X220186428Y-55410819D01*
X220186428Y-55410819D02*
X220281666Y-55363200D01*
X220281666Y-55363200D02*
X220329285Y-55315580D01*
X220329285Y-55315580D02*
X220376904Y-55220342D01*
X220376904Y-55220342D02*
X220376904Y-55125104D01*
X220376904Y-55125104D02*
X220329285Y-55029866D01*
X220329285Y-55029866D02*
X220281666Y-54982247D01*
X220281666Y-54982247D02*
X220186428Y-54934628D01*
X220186428Y-54934628D02*
X219995952Y-54887009D01*
X219995952Y-54887009D02*
X219900714Y-54839390D01*
X219900714Y-54839390D02*
X219853095Y-54791771D01*
X219853095Y-54791771D02*
X219805476Y-54696533D01*
X219805476Y-54696533D02*
X219805476Y-54601295D01*
X219805476Y-54601295D02*
X219853095Y-54506057D01*
X219853095Y-54506057D02*
X219900714Y-54458438D01*
X219900714Y-54458438D02*
X219995952Y-54410819D01*
X219995952Y-54410819D02*
X220234047Y-54410819D01*
X220234047Y-54410819D02*
X220376904Y-54458438D01*
X220710238Y-54410819D02*
X220948333Y-55410819D01*
X220948333Y-55410819D02*
X221138809Y-54696533D01*
X221138809Y-54696533D02*
X221329285Y-55410819D01*
X221329285Y-55410819D02*
X221567381Y-54410819D01*
X221900714Y-54506057D02*
X221948333Y-54458438D01*
X221948333Y-54458438D02*
X222043571Y-54410819D01*
X222043571Y-54410819D02*
X222281666Y-54410819D01*
X222281666Y-54410819D02*
X222376904Y-54458438D01*
X222376904Y-54458438D02*
X222424523Y-54506057D01*
X222424523Y-54506057D02*
X222472142Y-54601295D01*
X222472142Y-54601295D02*
X222472142Y-54696533D01*
X222472142Y-54696533D02*
X222424523Y-54839390D01*
X222424523Y-54839390D02*
X221853095Y-55410819D01*
X221853095Y-55410819D02*
X222472142Y-55410819D01*
X223091190Y-54410819D02*
X223186428Y-54410819D01*
X223186428Y-54410819D02*
X223281666Y-54458438D01*
X223281666Y-54458438D02*
X223329285Y-54506057D01*
X223329285Y-54506057D02*
X223376904Y-54601295D01*
X223376904Y-54601295D02*
X223424523Y-54791771D01*
X223424523Y-54791771D02*
X223424523Y-55029866D01*
X223424523Y-55029866D02*
X223376904Y-55220342D01*
X223376904Y-55220342D02*
X223329285Y-55315580D01*
X223329285Y-55315580D02*
X223281666Y-55363200D01*
X223281666Y-55363200D02*
X223186428Y-55410819D01*
X223186428Y-55410819D02*
X223091190Y-55410819D01*
X223091190Y-55410819D02*
X222995952Y-55363200D01*
X222995952Y-55363200D02*
X222948333Y-55315580D01*
X222948333Y-55315580D02*
X222900714Y-55220342D01*
X222900714Y-55220342D02*
X222853095Y-55029866D01*
X222853095Y-55029866D02*
X222853095Y-54791771D01*
X222853095Y-54791771D02*
X222900714Y-54601295D01*
X222900714Y-54601295D02*
X222948333Y-54506057D01*
X222948333Y-54506057D02*
X222995952Y-54458438D01*
X222995952Y-54458438D02*
X223091190Y-54410819D01*
X221353095Y-71158819D02*
X221353095Y-70158819D01*
X221353095Y-70158819D02*
X221734047Y-70158819D01*
X221734047Y-70158819D02*
X221829285Y-70206438D01*
X221829285Y-70206438D02*
X221876904Y-70254057D01*
X221876904Y-70254057D02*
X221924523Y-70349295D01*
X221924523Y-70349295D02*
X221924523Y-70492152D01*
X221924523Y-70492152D02*
X221876904Y-70587390D01*
X221876904Y-70587390D02*
X221829285Y-70635009D01*
X221829285Y-70635009D02*
X221734047Y-70682628D01*
X221734047Y-70682628D02*
X221353095Y-70682628D01*
X139080476Y-93463200D02*
X139223333Y-93510819D01*
X139223333Y-93510819D02*
X139461428Y-93510819D01*
X139461428Y-93510819D02*
X139556666Y-93463200D01*
X139556666Y-93463200D02*
X139604285Y-93415580D01*
X139604285Y-93415580D02*
X139651904Y-93320342D01*
X139651904Y-93320342D02*
X139651904Y-93225104D01*
X139651904Y-93225104D02*
X139604285Y-93129866D01*
X139604285Y-93129866D02*
X139556666Y-93082247D01*
X139556666Y-93082247D02*
X139461428Y-93034628D01*
X139461428Y-93034628D02*
X139270952Y-92987009D01*
X139270952Y-92987009D02*
X139175714Y-92939390D01*
X139175714Y-92939390D02*
X139128095Y-92891771D01*
X139128095Y-92891771D02*
X139080476Y-92796533D01*
X139080476Y-92796533D02*
X139080476Y-92701295D01*
X139080476Y-92701295D02*
X139128095Y-92606057D01*
X139128095Y-92606057D02*
X139175714Y-92558438D01*
X139175714Y-92558438D02*
X139270952Y-92510819D01*
X139270952Y-92510819D02*
X139509047Y-92510819D01*
X139509047Y-92510819D02*
X139651904Y-92558438D01*
X139985238Y-92510819D02*
X140223333Y-93510819D01*
X140223333Y-93510819D02*
X140413809Y-92796533D01*
X140413809Y-92796533D02*
X140604285Y-93510819D01*
X140604285Y-93510819D02*
X140842381Y-92510819D01*
X141128095Y-92510819D02*
X141747142Y-92510819D01*
X141747142Y-92510819D02*
X141413809Y-92891771D01*
X141413809Y-92891771D02*
X141556666Y-92891771D01*
X141556666Y-92891771D02*
X141651904Y-92939390D01*
X141651904Y-92939390D02*
X141699523Y-92987009D01*
X141699523Y-92987009D02*
X141747142Y-93082247D01*
X141747142Y-93082247D02*
X141747142Y-93320342D01*
X141747142Y-93320342D02*
X141699523Y-93415580D01*
X141699523Y-93415580D02*
X141651904Y-93463200D01*
X141651904Y-93463200D02*
X141556666Y-93510819D01*
X141556666Y-93510819D02*
X141270952Y-93510819D01*
X141270952Y-93510819D02*
X141175714Y-93463200D01*
X141175714Y-93463200D02*
X141128095Y-93415580D01*
X142604285Y-92510819D02*
X142413809Y-92510819D01*
X142413809Y-92510819D02*
X142318571Y-92558438D01*
X142318571Y-92558438D02*
X142270952Y-92606057D01*
X142270952Y-92606057D02*
X142175714Y-92748914D01*
X142175714Y-92748914D02*
X142128095Y-92939390D01*
X142128095Y-92939390D02*
X142128095Y-93320342D01*
X142128095Y-93320342D02*
X142175714Y-93415580D01*
X142175714Y-93415580D02*
X142223333Y-93463200D01*
X142223333Y-93463200D02*
X142318571Y-93510819D01*
X142318571Y-93510819D02*
X142509047Y-93510819D01*
X142509047Y-93510819D02*
X142604285Y-93463200D01*
X142604285Y-93463200D02*
X142651904Y-93415580D01*
X142651904Y-93415580D02*
X142699523Y-93320342D01*
X142699523Y-93320342D02*
X142699523Y-93082247D01*
X142699523Y-93082247D02*
X142651904Y-92987009D01*
X142651904Y-92987009D02*
X142604285Y-92939390D01*
X142604285Y-92939390D02*
X142509047Y-92891771D01*
X142509047Y-92891771D02*
X142318571Y-92891771D01*
X142318571Y-92891771D02*
X142223333Y-92939390D01*
X142223333Y-92939390D02*
X142175714Y-92987009D01*
X142175714Y-92987009D02*
X142128095Y-93082247D01*
X140961428Y-108735009D02*
X141104285Y-108782628D01*
X141104285Y-108782628D02*
X141151904Y-108830247D01*
X141151904Y-108830247D02*
X141199523Y-108925485D01*
X141199523Y-108925485D02*
X141199523Y-109068342D01*
X141199523Y-109068342D02*
X141151904Y-109163580D01*
X141151904Y-109163580D02*
X141104285Y-109211200D01*
X141104285Y-109211200D02*
X141009047Y-109258819D01*
X141009047Y-109258819D02*
X140628095Y-109258819D01*
X140628095Y-109258819D02*
X140628095Y-108258819D01*
X140628095Y-108258819D02*
X140961428Y-108258819D01*
X140961428Y-108258819D02*
X141056666Y-108306438D01*
X141056666Y-108306438D02*
X141104285Y-108354057D01*
X141104285Y-108354057D02*
X141151904Y-108449295D01*
X141151904Y-108449295D02*
X141151904Y-108544533D01*
X141151904Y-108544533D02*
X141104285Y-108639771D01*
X141104285Y-108639771D02*
X141056666Y-108687390D01*
X141056666Y-108687390D02*
X140961428Y-108735009D01*
X140961428Y-108735009D02*
X140628095Y-108735009D01*
X196230476Y-93463200D02*
X196373333Y-93510819D01*
X196373333Y-93510819D02*
X196611428Y-93510819D01*
X196611428Y-93510819D02*
X196706666Y-93463200D01*
X196706666Y-93463200D02*
X196754285Y-93415580D01*
X196754285Y-93415580D02*
X196801904Y-93320342D01*
X196801904Y-93320342D02*
X196801904Y-93225104D01*
X196801904Y-93225104D02*
X196754285Y-93129866D01*
X196754285Y-93129866D02*
X196706666Y-93082247D01*
X196706666Y-93082247D02*
X196611428Y-93034628D01*
X196611428Y-93034628D02*
X196420952Y-92987009D01*
X196420952Y-92987009D02*
X196325714Y-92939390D01*
X196325714Y-92939390D02*
X196278095Y-92891771D01*
X196278095Y-92891771D02*
X196230476Y-92796533D01*
X196230476Y-92796533D02*
X196230476Y-92701295D01*
X196230476Y-92701295D02*
X196278095Y-92606057D01*
X196278095Y-92606057D02*
X196325714Y-92558438D01*
X196325714Y-92558438D02*
X196420952Y-92510819D01*
X196420952Y-92510819D02*
X196659047Y-92510819D01*
X196659047Y-92510819D02*
X196801904Y-92558438D01*
X197135238Y-92510819D02*
X197373333Y-93510819D01*
X197373333Y-93510819D02*
X197563809Y-92796533D01*
X197563809Y-92796533D02*
X197754285Y-93510819D01*
X197754285Y-93510819D02*
X197992381Y-92510819D01*
X198278095Y-92510819D02*
X198897142Y-92510819D01*
X198897142Y-92510819D02*
X198563809Y-92891771D01*
X198563809Y-92891771D02*
X198706666Y-92891771D01*
X198706666Y-92891771D02*
X198801904Y-92939390D01*
X198801904Y-92939390D02*
X198849523Y-92987009D01*
X198849523Y-92987009D02*
X198897142Y-93082247D01*
X198897142Y-93082247D02*
X198897142Y-93320342D01*
X198897142Y-93320342D02*
X198849523Y-93415580D01*
X198849523Y-93415580D02*
X198801904Y-93463200D01*
X198801904Y-93463200D02*
X198706666Y-93510819D01*
X198706666Y-93510819D02*
X198420952Y-93510819D01*
X198420952Y-93510819D02*
X198325714Y-93463200D01*
X198325714Y-93463200D02*
X198278095Y-93415580D01*
X199373333Y-93510819D02*
X199563809Y-93510819D01*
X199563809Y-93510819D02*
X199659047Y-93463200D01*
X199659047Y-93463200D02*
X199706666Y-93415580D01*
X199706666Y-93415580D02*
X199801904Y-93272723D01*
X199801904Y-93272723D02*
X199849523Y-93082247D01*
X199849523Y-93082247D02*
X199849523Y-92701295D01*
X199849523Y-92701295D02*
X199801904Y-92606057D01*
X199801904Y-92606057D02*
X199754285Y-92558438D01*
X199754285Y-92558438D02*
X199659047Y-92510819D01*
X199659047Y-92510819D02*
X199468571Y-92510819D01*
X199468571Y-92510819D02*
X199373333Y-92558438D01*
X199373333Y-92558438D02*
X199325714Y-92606057D01*
X199325714Y-92606057D02*
X199278095Y-92701295D01*
X199278095Y-92701295D02*
X199278095Y-92939390D01*
X199278095Y-92939390D02*
X199325714Y-93034628D01*
X199325714Y-93034628D02*
X199373333Y-93082247D01*
X199373333Y-93082247D02*
X199468571Y-93129866D01*
X199468571Y-93129866D02*
X199659047Y-93129866D01*
X199659047Y-93129866D02*
X199754285Y-93082247D01*
X199754285Y-93082247D02*
X199801904Y-93034628D01*
X199801904Y-93034628D02*
X199849523Y-92939390D01*
X198040000Y-109163580D02*
X198087619Y-109211200D01*
X198087619Y-109211200D02*
X198040000Y-109258819D01*
X198040000Y-109258819D02*
X197992381Y-109211200D01*
X197992381Y-109211200D02*
X198040000Y-109163580D01*
X198040000Y-109163580D02*
X198040000Y-109258819D01*
X134556667Y-36313200D02*
X134699524Y-36360819D01*
X134699524Y-36360819D02*
X134937619Y-36360819D01*
X134937619Y-36360819D02*
X135032857Y-36313200D01*
X135032857Y-36313200D02*
X135080476Y-36265580D01*
X135080476Y-36265580D02*
X135128095Y-36170342D01*
X135128095Y-36170342D02*
X135128095Y-36075104D01*
X135128095Y-36075104D02*
X135080476Y-35979866D01*
X135080476Y-35979866D02*
X135032857Y-35932247D01*
X135032857Y-35932247D02*
X134937619Y-35884628D01*
X134937619Y-35884628D02*
X134747143Y-35837009D01*
X134747143Y-35837009D02*
X134651905Y-35789390D01*
X134651905Y-35789390D02*
X134604286Y-35741771D01*
X134604286Y-35741771D02*
X134556667Y-35646533D01*
X134556667Y-35646533D02*
X134556667Y-35551295D01*
X134556667Y-35551295D02*
X134604286Y-35456057D01*
X134604286Y-35456057D02*
X134651905Y-35408438D01*
X134651905Y-35408438D02*
X134747143Y-35360819D01*
X134747143Y-35360819D02*
X134985238Y-35360819D01*
X134985238Y-35360819D02*
X135128095Y-35408438D01*
X135461429Y-35360819D02*
X135699524Y-36360819D01*
X135699524Y-36360819D02*
X135890000Y-35646533D01*
X135890000Y-35646533D02*
X136080476Y-36360819D01*
X136080476Y-36360819D02*
X136318572Y-35360819D01*
X137128095Y-35360819D02*
X136937619Y-35360819D01*
X136937619Y-35360819D02*
X136842381Y-35408438D01*
X136842381Y-35408438D02*
X136794762Y-35456057D01*
X136794762Y-35456057D02*
X136699524Y-35598914D01*
X136699524Y-35598914D02*
X136651905Y-35789390D01*
X136651905Y-35789390D02*
X136651905Y-36170342D01*
X136651905Y-36170342D02*
X136699524Y-36265580D01*
X136699524Y-36265580D02*
X136747143Y-36313200D01*
X136747143Y-36313200D02*
X136842381Y-36360819D01*
X136842381Y-36360819D02*
X137032857Y-36360819D01*
X137032857Y-36360819D02*
X137128095Y-36313200D01*
X137128095Y-36313200D02*
X137175714Y-36265580D01*
X137175714Y-36265580D02*
X137223333Y-36170342D01*
X137223333Y-36170342D02*
X137223333Y-35932247D01*
X137223333Y-35932247D02*
X137175714Y-35837009D01*
X137175714Y-35837009D02*
X137128095Y-35789390D01*
X137128095Y-35789390D02*
X137032857Y-35741771D01*
X137032857Y-35741771D02*
X136842381Y-35741771D01*
X136842381Y-35741771D02*
X136747143Y-35789390D01*
X136747143Y-35789390D02*
X136699524Y-35837009D01*
X136699524Y-35837009D02*
X136651905Y-35932247D01*
X136080476Y-51108819D02*
X135890000Y-51108819D01*
X135890000Y-51108819D02*
X135794762Y-51156438D01*
X135794762Y-51156438D02*
X135747143Y-51204057D01*
X135747143Y-51204057D02*
X135651905Y-51346914D01*
X135651905Y-51346914D02*
X135604286Y-51537390D01*
X135604286Y-51537390D02*
X135604286Y-51918342D01*
X135604286Y-51918342D02*
X135651905Y-52013580D01*
X135651905Y-52013580D02*
X135699524Y-52061200D01*
X135699524Y-52061200D02*
X135794762Y-52108819D01*
X135794762Y-52108819D02*
X135985238Y-52108819D01*
X135985238Y-52108819D02*
X136080476Y-52061200D01*
X136080476Y-52061200D02*
X136128095Y-52013580D01*
X136128095Y-52013580D02*
X136175714Y-51918342D01*
X136175714Y-51918342D02*
X136175714Y-51680247D01*
X136175714Y-51680247D02*
X136128095Y-51585009D01*
X136128095Y-51585009D02*
X136080476Y-51537390D01*
X136080476Y-51537390D02*
X135985238Y-51489771D01*
X135985238Y-51489771D02*
X135794762Y-51489771D01*
X135794762Y-51489771D02*
X135699524Y-51537390D01*
X135699524Y-51537390D02*
X135651905Y-51585009D01*
X135651905Y-51585009D02*
X135604286Y-51680247D01*
X62880476Y-93463200D02*
X63023333Y-93510819D01*
X63023333Y-93510819D02*
X63261428Y-93510819D01*
X63261428Y-93510819D02*
X63356666Y-93463200D01*
X63356666Y-93463200D02*
X63404285Y-93415580D01*
X63404285Y-93415580D02*
X63451904Y-93320342D01*
X63451904Y-93320342D02*
X63451904Y-93225104D01*
X63451904Y-93225104D02*
X63404285Y-93129866D01*
X63404285Y-93129866D02*
X63356666Y-93082247D01*
X63356666Y-93082247D02*
X63261428Y-93034628D01*
X63261428Y-93034628D02*
X63070952Y-92987009D01*
X63070952Y-92987009D02*
X62975714Y-92939390D01*
X62975714Y-92939390D02*
X62928095Y-92891771D01*
X62928095Y-92891771D02*
X62880476Y-92796533D01*
X62880476Y-92796533D02*
X62880476Y-92701295D01*
X62880476Y-92701295D02*
X62928095Y-92606057D01*
X62928095Y-92606057D02*
X62975714Y-92558438D01*
X62975714Y-92558438D02*
X63070952Y-92510819D01*
X63070952Y-92510819D02*
X63309047Y-92510819D01*
X63309047Y-92510819D02*
X63451904Y-92558438D01*
X63785238Y-92510819D02*
X64023333Y-93510819D01*
X64023333Y-93510819D02*
X64213809Y-92796533D01*
X64213809Y-92796533D02*
X64404285Y-93510819D01*
X64404285Y-93510819D02*
X64642381Y-92510819D01*
X64928095Y-92510819D02*
X65547142Y-92510819D01*
X65547142Y-92510819D02*
X65213809Y-92891771D01*
X65213809Y-92891771D02*
X65356666Y-92891771D01*
X65356666Y-92891771D02*
X65451904Y-92939390D01*
X65451904Y-92939390D02*
X65499523Y-92987009D01*
X65499523Y-92987009D02*
X65547142Y-93082247D01*
X65547142Y-93082247D02*
X65547142Y-93320342D01*
X65547142Y-93320342D02*
X65499523Y-93415580D01*
X65499523Y-93415580D02*
X65451904Y-93463200D01*
X65451904Y-93463200D02*
X65356666Y-93510819D01*
X65356666Y-93510819D02*
X65070952Y-93510819D01*
X65070952Y-93510819D02*
X64975714Y-93463200D01*
X64975714Y-93463200D02*
X64928095Y-93415580D01*
X65928095Y-92606057D02*
X65975714Y-92558438D01*
X65975714Y-92558438D02*
X66070952Y-92510819D01*
X66070952Y-92510819D02*
X66309047Y-92510819D01*
X66309047Y-92510819D02*
X66404285Y-92558438D01*
X66404285Y-92558438D02*
X66451904Y-92606057D01*
X66451904Y-92606057D02*
X66499523Y-92701295D01*
X66499523Y-92701295D02*
X66499523Y-92796533D01*
X66499523Y-92796533D02*
X66451904Y-92939390D01*
X66451904Y-92939390D02*
X65880476Y-93510819D01*
X65880476Y-93510819D02*
X66499523Y-93510819D01*
X64356667Y-108258819D02*
X65023333Y-108258819D01*
X65023333Y-108258819D02*
X64356667Y-109258819D01*
X64356667Y-109258819D02*
X65023333Y-109258819D01*
X96456667Y-36313200D02*
X96599524Y-36360819D01*
X96599524Y-36360819D02*
X96837619Y-36360819D01*
X96837619Y-36360819D02*
X96932857Y-36313200D01*
X96932857Y-36313200D02*
X96980476Y-36265580D01*
X96980476Y-36265580D02*
X97028095Y-36170342D01*
X97028095Y-36170342D02*
X97028095Y-36075104D01*
X97028095Y-36075104D02*
X96980476Y-35979866D01*
X96980476Y-35979866D02*
X96932857Y-35932247D01*
X96932857Y-35932247D02*
X96837619Y-35884628D01*
X96837619Y-35884628D02*
X96647143Y-35837009D01*
X96647143Y-35837009D02*
X96551905Y-35789390D01*
X96551905Y-35789390D02*
X96504286Y-35741771D01*
X96504286Y-35741771D02*
X96456667Y-35646533D01*
X96456667Y-35646533D02*
X96456667Y-35551295D01*
X96456667Y-35551295D02*
X96504286Y-35456057D01*
X96504286Y-35456057D02*
X96551905Y-35408438D01*
X96551905Y-35408438D02*
X96647143Y-35360819D01*
X96647143Y-35360819D02*
X96885238Y-35360819D01*
X96885238Y-35360819D02*
X97028095Y-35408438D01*
X97361429Y-35360819D02*
X97599524Y-36360819D01*
X97599524Y-36360819D02*
X97790000Y-35646533D01*
X97790000Y-35646533D02*
X97980476Y-36360819D01*
X97980476Y-36360819D02*
X98218572Y-35360819D01*
X99028095Y-35694152D02*
X99028095Y-36360819D01*
X98790000Y-35313200D02*
X98551905Y-36027485D01*
X98551905Y-36027485D02*
X99170952Y-36027485D01*
X97980476Y-51442152D02*
X97980476Y-52108819D01*
X97742381Y-51061200D02*
X97504286Y-51775485D01*
X97504286Y-51775485D02*
X98123333Y-51775485D01*
X167655476Y-74413200D02*
X167798333Y-74460819D01*
X167798333Y-74460819D02*
X168036428Y-74460819D01*
X168036428Y-74460819D02*
X168131666Y-74413200D01*
X168131666Y-74413200D02*
X168179285Y-74365580D01*
X168179285Y-74365580D02*
X168226904Y-74270342D01*
X168226904Y-74270342D02*
X168226904Y-74175104D01*
X168226904Y-74175104D02*
X168179285Y-74079866D01*
X168179285Y-74079866D02*
X168131666Y-74032247D01*
X168131666Y-74032247D02*
X168036428Y-73984628D01*
X168036428Y-73984628D02*
X167845952Y-73937009D01*
X167845952Y-73937009D02*
X167750714Y-73889390D01*
X167750714Y-73889390D02*
X167703095Y-73841771D01*
X167703095Y-73841771D02*
X167655476Y-73746533D01*
X167655476Y-73746533D02*
X167655476Y-73651295D01*
X167655476Y-73651295D02*
X167703095Y-73556057D01*
X167703095Y-73556057D02*
X167750714Y-73508438D01*
X167750714Y-73508438D02*
X167845952Y-73460819D01*
X167845952Y-73460819D02*
X168084047Y-73460819D01*
X168084047Y-73460819D02*
X168226904Y-73508438D01*
X168560238Y-73460819D02*
X168798333Y-74460819D01*
X168798333Y-74460819D02*
X168988809Y-73746533D01*
X168988809Y-73746533D02*
X169179285Y-74460819D01*
X169179285Y-74460819D02*
X169417381Y-73460819D01*
X169750714Y-73556057D02*
X169798333Y-73508438D01*
X169798333Y-73508438D02*
X169893571Y-73460819D01*
X169893571Y-73460819D02*
X170131666Y-73460819D01*
X170131666Y-73460819D02*
X170226904Y-73508438D01*
X170226904Y-73508438D02*
X170274523Y-73556057D01*
X170274523Y-73556057D02*
X170322142Y-73651295D01*
X170322142Y-73651295D02*
X170322142Y-73746533D01*
X170322142Y-73746533D02*
X170274523Y-73889390D01*
X170274523Y-73889390D02*
X169703095Y-74460819D01*
X169703095Y-74460819D02*
X170322142Y-74460819D01*
X170655476Y-73460819D02*
X171322142Y-73460819D01*
X171322142Y-73460819D02*
X170893571Y-74460819D01*
X169607857Y-89208819D02*
X169607857Y-89923104D01*
X169607857Y-89923104D02*
X169560238Y-90065961D01*
X169560238Y-90065961D02*
X169465000Y-90161200D01*
X169465000Y-90161200D02*
X169322143Y-90208819D01*
X169322143Y-90208819D02*
X169226905Y-90208819D01*
X177180476Y-93463200D02*
X177323333Y-93510819D01*
X177323333Y-93510819D02*
X177561428Y-93510819D01*
X177561428Y-93510819D02*
X177656666Y-93463200D01*
X177656666Y-93463200D02*
X177704285Y-93415580D01*
X177704285Y-93415580D02*
X177751904Y-93320342D01*
X177751904Y-93320342D02*
X177751904Y-93225104D01*
X177751904Y-93225104D02*
X177704285Y-93129866D01*
X177704285Y-93129866D02*
X177656666Y-93082247D01*
X177656666Y-93082247D02*
X177561428Y-93034628D01*
X177561428Y-93034628D02*
X177370952Y-92987009D01*
X177370952Y-92987009D02*
X177275714Y-92939390D01*
X177275714Y-92939390D02*
X177228095Y-92891771D01*
X177228095Y-92891771D02*
X177180476Y-92796533D01*
X177180476Y-92796533D02*
X177180476Y-92701295D01*
X177180476Y-92701295D02*
X177228095Y-92606057D01*
X177228095Y-92606057D02*
X177275714Y-92558438D01*
X177275714Y-92558438D02*
X177370952Y-92510819D01*
X177370952Y-92510819D02*
X177609047Y-92510819D01*
X177609047Y-92510819D02*
X177751904Y-92558438D01*
X178085238Y-92510819D02*
X178323333Y-93510819D01*
X178323333Y-93510819D02*
X178513809Y-92796533D01*
X178513809Y-92796533D02*
X178704285Y-93510819D01*
X178704285Y-93510819D02*
X178942381Y-92510819D01*
X179228095Y-92510819D02*
X179847142Y-92510819D01*
X179847142Y-92510819D02*
X179513809Y-92891771D01*
X179513809Y-92891771D02*
X179656666Y-92891771D01*
X179656666Y-92891771D02*
X179751904Y-92939390D01*
X179751904Y-92939390D02*
X179799523Y-92987009D01*
X179799523Y-92987009D02*
X179847142Y-93082247D01*
X179847142Y-93082247D02*
X179847142Y-93320342D01*
X179847142Y-93320342D02*
X179799523Y-93415580D01*
X179799523Y-93415580D02*
X179751904Y-93463200D01*
X179751904Y-93463200D02*
X179656666Y-93510819D01*
X179656666Y-93510819D02*
X179370952Y-93510819D01*
X179370952Y-93510819D02*
X179275714Y-93463200D01*
X179275714Y-93463200D02*
X179228095Y-93415580D01*
X180418571Y-92939390D02*
X180323333Y-92891771D01*
X180323333Y-92891771D02*
X180275714Y-92844152D01*
X180275714Y-92844152D02*
X180228095Y-92748914D01*
X180228095Y-92748914D02*
X180228095Y-92701295D01*
X180228095Y-92701295D02*
X180275714Y-92606057D01*
X180275714Y-92606057D02*
X180323333Y-92558438D01*
X180323333Y-92558438D02*
X180418571Y-92510819D01*
X180418571Y-92510819D02*
X180609047Y-92510819D01*
X180609047Y-92510819D02*
X180704285Y-92558438D01*
X180704285Y-92558438D02*
X180751904Y-92606057D01*
X180751904Y-92606057D02*
X180799523Y-92701295D01*
X180799523Y-92701295D02*
X180799523Y-92748914D01*
X180799523Y-92748914D02*
X180751904Y-92844152D01*
X180751904Y-92844152D02*
X180704285Y-92891771D01*
X180704285Y-92891771D02*
X180609047Y-92939390D01*
X180609047Y-92939390D02*
X180418571Y-92939390D01*
X180418571Y-92939390D02*
X180323333Y-92987009D01*
X180323333Y-92987009D02*
X180275714Y-93034628D01*
X180275714Y-93034628D02*
X180228095Y-93129866D01*
X180228095Y-93129866D02*
X180228095Y-93320342D01*
X180228095Y-93320342D02*
X180275714Y-93415580D01*
X180275714Y-93415580D02*
X180323333Y-93463200D01*
X180323333Y-93463200D02*
X180418571Y-93510819D01*
X180418571Y-93510819D02*
X180609047Y-93510819D01*
X180609047Y-93510819D02*
X180704285Y-93463200D01*
X180704285Y-93463200D02*
X180751904Y-93415580D01*
X180751904Y-93415580D02*
X180799523Y-93320342D01*
X180799523Y-93320342D02*
X180799523Y-93129866D01*
X180799523Y-93129866D02*
X180751904Y-93034628D01*
X180751904Y-93034628D02*
X180704285Y-92987009D01*
X180704285Y-92987009D02*
X180609047Y-92939390D01*
X178656667Y-109258819D02*
X178656667Y-108258819D01*
X178656667Y-108258819D02*
X178990000Y-108973104D01*
X178990000Y-108973104D02*
X179323333Y-108258819D01*
X179323333Y-108258819D02*
X179323333Y-109258819D01*
X72405476Y-74413200D02*
X72548333Y-74460819D01*
X72548333Y-74460819D02*
X72786428Y-74460819D01*
X72786428Y-74460819D02*
X72881666Y-74413200D01*
X72881666Y-74413200D02*
X72929285Y-74365580D01*
X72929285Y-74365580D02*
X72976904Y-74270342D01*
X72976904Y-74270342D02*
X72976904Y-74175104D01*
X72976904Y-74175104D02*
X72929285Y-74079866D01*
X72929285Y-74079866D02*
X72881666Y-74032247D01*
X72881666Y-74032247D02*
X72786428Y-73984628D01*
X72786428Y-73984628D02*
X72595952Y-73937009D01*
X72595952Y-73937009D02*
X72500714Y-73889390D01*
X72500714Y-73889390D02*
X72453095Y-73841771D01*
X72453095Y-73841771D02*
X72405476Y-73746533D01*
X72405476Y-73746533D02*
X72405476Y-73651295D01*
X72405476Y-73651295D02*
X72453095Y-73556057D01*
X72453095Y-73556057D02*
X72500714Y-73508438D01*
X72500714Y-73508438D02*
X72595952Y-73460819D01*
X72595952Y-73460819D02*
X72834047Y-73460819D01*
X72834047Y-73460819D02*
X72976904Y-73508438D01*
X73310238Y-73460819D02*
X73548333Y-74460819D01*
X73548333Y-74460819D02*
X73738809Y-73746533D01*
X73738809Y-73746533D02*
X73929285Y-74460819D01*
X73929285Y-74460819D02*
X74167381Y-73460819D01*
X74500714Y-73556057D02*
X74548333Y-73508438D01*
X74548333Y-73508438D02*
X74643571Y-73460819D01*
X74643571Y-73460819D02*
X74881666Y-73460819D01*
X74881666Y-73460819D02*
X74976904Y-73508438D01*
X74976904Y-73508438D02*
X75024523Y-73556057D01*
X75024523Y-73556057D02*
X75072142Y-73651295D01*
X75072142Y-73651295D02*
X75072142Y-73746533D01*
X75072142Y-73746533D02*
X75024523Y-73889390D01*
X75024523Y-73889390D02*
X74453095Y-74460819D01*
X74453095Y-74460819D02*
X75072142Y-74460819D01*
X75453095Y-73556057D02*
X75500714Y-73508438D01*
X75500714Y-73508438D02*
X75595952Y-73460819D01*
X75595952Y-73460819D02*
X75834047Y-73460819D01*
X75834047Y-73460819D02*
X75929285Y-73508438D01*
X75929285Y-73508438D02*
X75976904Y-73556057D01*
X75976904Y-73556057D02*
X76024523Y-73651295D01*
X76024523Y-73651295D02*
X76024523Y-73746533D01*
X76024523Y-73746533D02*
X75976904Y-73889390D01*
X75976904Y-73889390D02*
X75405476Y-74460819D01*
X75405476Y-74460819D02*
X76024523Y-74460819D01*
X73929286Y-90161200D02*
X74072143Y-90208819D01*
X74072143Y-90208819D02*
X74310238Y-90208819D01*
X74310238Y-90208819D02*
X74405476Y-90161200D01*
X74405476Y-90161200D02*
X74453095Y-90113580D01*
X74453095Y-90113580D02*
X74500714Y-90018342D01*
X74500714Y-90018342D02*
X74500714Y-89923104D01*
X74500714Y-89923104D02*
X74453095Y-89827866D01*
X74453095Y-89827866D02*
X74405476Y-89780247D01*
X74405476Y-89780247D02*
X74310238Y-89732628D01*
X74310238Y-89732628D02*
X74119762Y-89685009D01*
X74119762Y-89685009D02*
X74024524Y-89637390D01*
X74024524Y-89637390D02*
X73976905Y-89589771D01*
X73976905Y-89589771D02*
X73929286Y-89494533D01*
X73929286Y-89494533D02*
X73929286Y-89399295D01*
X73929286Y-89399295D02*
X73976905Y-89304057D01*
X73976905Y-89304057D02*
X74024524Y-89256438D01*
X74024524Y-89256438D02*
X74119762Y-89208819D01*
X74119762Y-89208819D02*
X74357857Y-89208819D01*
X74357857Y-89208819D02*
X74500714Y-89256438D01*
X186705476Y-74413200D02*
X186848333Y-74460819D01*
X186848333Y-74460819D02*
X187086428Y-74460819D01*
X187086428Y-74460819D02*
X187181666Y-74413200D01*
X187181666Y-74413200D02*
X187229285Y-74365580D01*
X187229285Y-74365580D02*
X187276904Y-74270342D01*
X187276904Y-74270342D02*
X187276904Y-74175104D01*
X187276904Y-74175104D02*
X187229285Y-74079866D01*
X187229285Y-74079866D02*
X187181666Y-74032247D01*
X187181666Y-74032247D02*
X187086428Y-73984628D01*
X187086428Y-73984628D02*
X186895952Y-73937009D01*
X186895952Y-73937009D02*
X186800714Y-73889390D01*
X186800714Y-73889390D02*
X186753095Y-73841771D01*
X186753095Y-73841771D02*
X186705476Y-73746533D01*
X186705476Y-73746533D02*
X186705476Y-73651295D01*
X186705476Y-73651295D02*
X186753095Y-73556057D01*
X186753095Y-73556057D02*
X186800714Y-73508438D01*
X186800714Y-73508438D02*
X186895952Y-73460819D01*
X186895952Y-73460819D02*
X187134047Y-73460819D01*
X187134047Y-73460819D02*
X187276904Y-73508438D01*
X187610238Y-73460819D02*
X187848333Y-74460819D01*
X187848333Y-74460819D02*
X188038809Y-73746533D01*
X188038809Y-73746533D02*
X188229285Y-74460819D01*
X188229285Y-74460819D02*
X188467381Y-73460819D01*
X188800714Y-73556057D02*
X188848333Y-73508438D01*
X188848333Y-73508438D02*
X188943571Y-73460819D01*
X188943571Y-73460819D02*
X189181666Y-73460819D01*
X189181666Y-73460819D02*
X189276904Y-73508438D01*
X189276904Y-73508438D02*
X189324523Y-73556057D01*
X189324523Y-73556057D02*
X189372142Y-73651295D01*
X189372142Y-73651295D02*
X189372142Y-73746533D01*
X189372142Y-73746533D02*
X189324523Y-73889390D01*
X189324523Y-73889390D02*
X188753095Y-74460819D01*
X188753095Y-74460819D02*
X189372142Y-74460819D01*
X189943571Y-73889390D02*
X189848333Y-73841771D01*
X189848333Y-73841771D02*
X189800714Y-73794152D01*
X189800714Y-73794152D02*
X189753095Y-73698914D01*
X189753095Y-73698914D02*
X189753095Y-73651295D01*
X189753095Y-73651295D02*
X189800714Y-73556057D01*
X189800714Y-73556057D02*
X189848333Y-73508438D01*
X189848333Y-73508438D02*
X189943571Y-73460819D01*
X189943571Y-73460819D02*
X190134047Y-73460819D01*
X190134047Y-73460819D02*
X190229285Y-73508438D01*
X190229285Y-73508438D02*
X190276904Y-73556057D01*
X190276904Y-73556057D02*
X190324523Y-73651295D01*
X190324523Y-73651295D02*
X190324523Y-73698914D01*
X190324523Y-73698914D02*
X190276904Y-73794152D01*
X190276904Y-73794152D02*
X190229285Y-73841771D01*
X190229285Y-73841771D02*
X190134047Y-73889390D01*
X190134047Y-73889390D02*
X189943571Y-73889390D01*
X189943571Y-73889390D02*
X189848333Y-73937009D01*
X189848333Y-73937009D02*
X189800714Y-73984628D01*
X189800714Y-73984628D02*
X189753095Y-74079866D01*
X189753095Y-74079866D02*
X189753095Y-74270342D01*
X189753095Y-74270342D02*
X189800714Y-74365580D01*
X189800714Y-74365580D02*
X189848333Y-74413200D01*
X189848333Y-74413200D02*
X189943571Y-74460819D01*
X189943571Y-74460819D02*
X190134047Y-74460819D01*
X190134047Y-74460819D02*
X190229285Y-74413200D01*
X190229285Y-74413200D02*
X190276904Y-74365580D01*
X190276904Y-74365580D02*
X190324523Y-74270342D01*
X190324523Y-74270342D02*
X190324523Y-74079866D01*
X190324523Y-74079866D02*
X190276904Y-73984628D01*
X190276904Y-73984628D02*
X190229285Y-73937009D01*
X190229285Y-73937009D02*
X190134047Y-73889390D01*
X188253095Y-90208819D02*
X188253095Y-89208819D01*
X188824523Y-90208819D02*
X188395952Y-89637390D01*
X188824523Y-89208819D02*
X188253095Y-89780247D01*
X224805476Y-74413200D02*
X224948333Y-74460819D01*
X224948333Y-74460819D02*
X225186428Y-74460819D01*
X225186428Y-74460819D02*
X225281666Y-74413200D01*
X225281666Y-74413200D02*
X225329285Y-74365580D01*
X225329285Y-74365580D02*
X225376904Y-74270342D01*
X225376904Y-74270342D02*
X225376904Y-74175104D01*
X225376904Y-74175104D02*
X225329285Y-74079866D01*
X225329285Y-74079866D02*
X225281666Y-74032247D01*
X225281666Y-74032247D02*
X225186428Y-73984628D01*
X225186428Y-73984628D02*
X224995952Y-73937009D01*
X224995952Y-73937009D02*
X224900714Y-73889390D01*
X224900714Y-73889390D02*
X224853095Y-73841771D01*
X224853095Y-73841771D02*
X224805476Y-73746533D01*
X224805476Y-73746533D02*
X224805476Y-73651295D01*
X224805476Y-73651295D02*
X224853095Y-73556057D01*
X224853095Y-73556057D02*
X224900714Y-73508438D01*
X224900714Y-73508438D02*
X224995952Y-73460819D01*
X224995952Y-73460819D02*
X225234047Y-73460819D01*
X225234047Y-73460819D02*
X225376904Y-73508438D01*
X225710238Y-73460819D02*
X225948333Y-74460819D01*
X225948333Y-74460819D02*
X226138809Y-73746533D01*
X226138809Y-73746533D02*
X226329285Y-74460819D01*
X226329285Y-74460819D02*
X226567381Y-73460819D01*
X226853095Y-73460819D02*
X227472142Y-73460819D01*
X227472142Y-73460819D02*
X227138809Y-73841771D01*
X227138809Y-73841771D02*
X227281666Y-73841771D01*
X227281666Y-73841771D02*
X227376904Y-73889390D01*
X227376904Y-73889390D02*
X227424523Y-73937009D01*
X227424523Y-73937009D02*
X227472142Y-74032247D01*
X227472142Y-74032247D02*
X227472142Y-74270342D01*
X227472142Y-74270342D02*
X227424523Y-74365580D01*
X227424523Y-74365580D02*
X227376904Y-74413200D01*
X227376904Y-74413200D02*
X227281666Y-74460819D01*
X227281666Y-74460819D02*
X226995952Y-74460819D01*
X226995952Y-74460819D02*
X226900714Y-74413200D01*
X226900714Y-74413200D02*
X226853095Y-74365580D01*
X228091190Y-73460819D02*
X228186428Y-73460819D01*
X228186428Y-73460819D02*
X228281666Y-73508438D01*
X228281666Y-73508438D02*
X228329285Y-73556057D01*
X228329285Y-73556057D02*
X228376904Y-73651295D01*
X228376904Y-73651295D02*
X228424523Y-73841771D01*
X228424523Y-73841771D02*
X228424523Y-74079866D01*
X228424523Y-74079866D02*
X228376904Y-74270342D01*
X228376904Y-74270342D02*
X228329285Y-74365580D01*
X228329285Y-74365580D02*
X228281666Y-74413200D01*
X228281666Y-74413200D02*
X228186428Y-74460819D01*
X228186428Y-74460819D02*
X228091190Y-74460819D01*
X228091190Y-74460819D02*
X227995952Y-74413200D01*
X227995952Y-74413200D02*
X227948333Y-74365580D01*
X227948333Y-74365580D02*
X227900714Y-74270342D01*
X227900714Y-74270342D02*
X227853095Y-74079866D01*
X227853095Y-74079866D02*
X227853095Y-73841771D01*
X227853095Y-73841771D02*
X227900714Y-73651295D01*
X227900714Y-73651295D02*
X227948333Y-73556057D01*
X227948333Y-73556057D02*
X227995952Y-73508438D01*
X227995952Y-73508438D02*
X228091190Y-73460819D01*
X223305476Y-90208819D02*
X223305476Y-89208819D01*
X223305476Y-89208819D02*
X223876904Y-90208819D01*
X223876904Y-90208819D02*
X223876904Y-89208819D01*
X224353095Y-89685009D02*
X224686428Y-89685009D01*
X224829285Y-90208819D02*
X224353095Y-90208819D01*
X224353095Y-90208819D02*
X224353095Y-89208819D01*
X224353095Y-89208819D02*
X224829285Y-89208819D01*
X225162619Y-89208819D02*
X225400714Y-90208819D01*
X225400714Y-90208819D02*
X225591190Y-89494533D01*
X225591190Y-89494533D02*
X225781666Y-90208819D01*
X225781666Y-90208819D02*
X226019762Y-89208819D01*
X227638809Y-90208819D02*
X227162619Y-90208819D01*
X227162619Y-90208819D02*
X227162619Y-89208819D01*
X227972143Y-90208819D02*
X227972143Y-89208819D01*
X228448333Y-90208819D02*
X228448333Y-89208819D01*
X228448333Y-89208819D02*
X229019761Y-90208819D01*
X229019761Y-90208819D02*
X229019761Y-89208819D01*
X229495952Y-89685009D02*
X229829285Y-89685009D01*
X229972142Y-90208819D02*
X229495952Y-90208819D01*
X229495952Y-90208819D02*
X229495952Y-89208819D01*
X229495952Y-89208819D02*
X229972142Y-89208819D01*
X200755476Y-55363200D02*
X200898333Y-55410819D01*
X200898333Y-55410819D02*
X201136428Y-55410819D01*
X201136428Y-55410819D02*
X201231666Y-55363200D01*
X201231666Y-55363200D02*
X201279285Y-55315580D01*
X201279285Y-55315580D02*
X201326904Y-55220342D01*
X201326904Y-55220342D02*
X201326904Y-55125104D01*
X201326904Y-55125104D02*
X201279285Y-55029866D01*
X201279285Y-55029866D02*
X201231666Y-54982247D01*
X201231666Y-54982247D02*
X201136428Y-54934628D01*
X201136428Y-54934628D02*
X200945952Y-54887009D01*
X200945952Y-54887009D02*
X200850714Y-54839390D01*
X200850714Y-54839390D02*
X200803095Y-54791771D01*
X200803095Y-54791771D02*
X200755476Y-54696533D01*
X200755476Y-54696533D02*
X200755476Y-54601295D01*
X200755476Y-54601295D02*
X200803095Y-54506057D01*
X200803095Y-54506057D02*
X200850714Y-54458438D01*
X200850714Y-54458438D02*
X200945952Y-54410819D01*
X200945952Y-54410819D02*
X201184047Y-54410819D01*
X201184047Y-54410819D02*
X201326904Y-54458438D01*
X201660238Y-54410819D02*
X201898333Y-55410819D01*
X201898333Y-55410819D02*
X202088809Y-54696533D01*
X202088809Y-54696533D02*
X202279285Y-55410819D01*
X202279285Y-55410819D02*
X202517381Y-54410819D01*
X203422142Y-55410819D02*
X202850714Y-55410819D01*
X203136428Y-55410819D02*
X203136428Y-54410819D01*
X203136428Y-54410819D02*
X203041190Y-54553676D01*
X203041190Y-54553676D02*
X202945952Y-54648914D01*
X202945952Y-54648914D02*
X202850714Y-54696533D01*
X203898333Y-55410819D02*
X204088809Y-55410819D01*
X204088809Y-55410819D02*
X204184047Y-55363200D01*
X204184047Y-55363200D02*
X204231666Y-55315580D01*
X204231666Y-55315580D02*
X204326904Y-55172723D01*
X204326904Y-55172723D02*
X204374523Y-54982247D01*
X204374523Y-54982247D02*
X204374523Y-54601295D01*
X204374523Y-54601295D02*
X204326904Y-54506057D01*
X204326904Y-54506057D02*
X204279285Y-54458438D01*
X204279285Y-54458438D02*
X204184047Y-54410819D01*
X204184047Y-54410819D02*
X203993571Y-54410819D01*
X203993571Y-54410819D02*
X203898333Y-54458438D01*
X203898333Y-54458438D02*
X203850714Y-54506057D01*
X203850714Y-54506057D02*
X203803095Y-54601295D01*
X203803095Y-54601295D02*
X203803095Y-54839390D01*
X203803095Y-54839390D02*
X203850714Y-54934628D01*
X203850714Y-54934628D02*
X203898333Y-54982247D01*
X203898333Y-54982247D02*
X203993571Y-55029866D01*
X203993571Y-55029866D02*
X204184047Y-55029866D01*
X204184047Y-55029866D02*
X204279285Y-54982247D01*
X204279285Y-54982247D02*
X204326904Y-54934628D01*
X204326904Y-54934628D02*
X204374523Y-54839390D01*
X202469762Y-70158819D02*
X202660238Y-70158819D01*
X202660238Y-70158819D02*
X202755476Y-70206438D01*
X202755476Y-70206438D02*
X202850714Y-70301676D01*
X202850714Y-70301676D02*
X202898333Y-70492152D01*
X202898333Y-70492152D02*
X202898333Y-70825485D01*
X202898333Y-70825485D02*
X202850714Y-71015961D01*
X202850714Y-71015961D02*
X202755476Y-71111200D01*
X202755476Y-71111200D02*
X202660238Y-71158819D01*
X202660238Y-71158819D02*
X202469762Y-71158819D01*
X202469762Y-71158819D02*
X202374524Y-71111200D01*
X202374524Y-71111200D02*
X202279286Y-71015961D01*
X202279286Y-71015961D02*
X202231667Y-70825485D01*
X202231667Y-70825485D02*
X202231667Y-70492152D01*
X202231667Y-70492152D02*
X202279286Y-70301676D01*
X202279286Y-70301676D02*
X202374524Y-70206438D01*
X202374524Y-70206438D02*
X202469762Y-70158819D01*
X124555476Y-55363200D02*
X124698333Y-55410819D01*
X124698333Y-55410819D02*
X124936428Y-55410819D01*
X124936428Y-55410819D02*
X125031666Y-55363200D01*
X125031666Y-55363200D02*
X125079285Y-55315580D01*
X125079285Y-55315580D02*
X125126904Y-55220342D01*
X125126904Y-55220342D02*
X125126904Y-55125104D01*
X125126904Y-55125104D02*
X125079285Y-55029866D01*
X125079285Y-55029866D02*
X125031666Y-54982247D01*
X125031666Y-54982247D02*
X124936428Y-54934628D01*
X124936428Y-54934628D02*
X124745952Y-54887009D01*
X124745952Y-54887009D02*
X124650714Y-54839390D01*
X124650714Y-54839390D02*
X124603095Y-54791771D01*
X124603095Y-54791771D02*
X124555476Y-54696533D01*
X124555476Y-54696533D02*
X124555476Y-54601295D01*
X124555476Y-54601295D02*
X124603095Y-54506057D01*
X124603095Y-54506057D02*
X124650714Y-54458438D01*
X124650714Y-54458438D02*
X124745952Y-54410819D01*
X124745952Y-54410819D02*
X124984047Y-54410819D01*
X124984047Y-54410819D02*
X125126904Y-54458438D01*
X125460238Y-54410819D02*
X125698333Y-55410819D01*
X125698333Y-55410819D02*
X125888809Y-54696533D01*
X125888809Y-54696533D02*
X126079285Y-55410819D01*
X126079285Y-55410819D02*
X126317381Y-54410819D01*
X127222142Y-55410819D02*
X126650714Y-55410819D01*
X126936428Y-55410819D02*
X126936428Y-54410819D01*
X126936428Y-54410819D02*
X126841190Y-54553676D01*
X126841190Y-54553676D02*
X126745952Y-54648914D01*
X126745952Y-54648914D02*
X126650714Y-54696533D01*
X128126904Y-54410819D02*
X127650714Y-54410819D01*
X127650714Y-54410819D02*
X127603095Y-54887009D01*
X127603095Y-54887009D02*
X127650714Y-54839390D01*
X127650714Y-54839390D02*
X127745952Y-54791771D01*
X127745952Y-54791771D02*
X127984047Y-54791771D01*
X127984047Y-54791771D02*
X128079285Y-54839390D01*
X128079285Y-54839390D02*
X128126904Y-54887009D01*
X128126904Y-54887009D02*
X128174523Y-54982247D01*
X128174523Y-54982247D02*
X128174523Y-55220342D01*
X128174523Y-55220342D02*
X128126904Y-55315580D01*
X128126904Y-55315580D02*
X128079285Y-55363200D01*
X128079285Y-55363200D02*
X127984047Y-55410819D01*
X127984047Y-55410819D02*
X127745952Y-55410819D01*
X127745952Y-55410819D02*
X127650714Y-55363200D01*
X127650714Y-55363200D02*
X127603095Y-55315580D01*
X126079286Y-70158819D02*
X126650714Y-70158819D01*
X126365000Y-71158819D02*
X126365000Y-70158819D01*
X129555476Y-74413200D02*
X129698333Y-74460819D01*
X129698333Y-74460819D02*
X129936428Y-74460819D01*
X129936428Y-74460819D02*
X130031666Y-74413200D01*
X130031666Y-74413200D02*
X130079285Y-74365580D01*
X130079285Y-74365580D02*
X130126904Y-74270342D01*
X130126904Y-74270342D02*
X130126904Y-74175104D01*
X130126904Y-74175104D02*
X130079285Y-74079866D01*
X130079285Y-74079866D02*
X130031666Y-74032247D01*
X130031666Y-74032247D02*
X129936428Y-73984628D01*
X129936428Y-73984628D02*
X129745952Y-73937009D01*
X129745952Y-73937009D02*
X129650714Y-73889390D01*
X129650714Y-73889390D02*
X129603095Y-73841771D01*
X129603095Y-73841771D02*
X129555476Y-73746533D01*
X129555476Y-73746533D02*
X129555476Y-73651295D01*
X129555476Y-73651295D02*
X129603095Y-73556057D01*
X129603095Y-73556057D02*
X129650714Y-73508438D01*
X129650714Y-73508438D02*
X129745952Y-73460819D01*
X129745952Y-73460819D02*
X129984047Y-73460819D01*
X129984047Y-73460819D02*
X130126904Y-73508438D01*
X130460238Y-73460819D02*
X130698333Y-74460819D01*
X130698333Y-74460819D02*
X130888809Y-73746533D01*
X130888809Y-73746533D02*
X131079285Y-74460819D01*
X131079285Y-74460819D02*
X131317381Y-73460819D01*
X131650714Y-73556057D02*
X131698333Y-73508438D01*
X131698333Y-73508438D02*
X131793571Y-73460819D01*
X131793571Y-73460819D02*
X132031666Y-73460819D01*
X132031666Y-73460819D02*
X132126904Y-73508438D01*
X132126904Y-73508438D02*
X132174523Y-73556057D01*
X132174523Y-73556057D02*
X132222142Y-73651295D01*
X132222142Y-73651295D02*
X132222142Y-73746533D01*
X132222142Y-73746533D02*
X132174523Y-73889390D01*
X132174523Y-73889390D02*
X131603095Y-74460819D01*
X131603095Y-74460819D02*
X132222142Y-74460819D01*
X133126904Y-73460819D02*
X132650714Y-73460819D01*
X132650714Y-73460819D02*
X132603095Y-73937009D01*
X132603095Y-73937009D02*
X132650714Y-73889390D01*
X132650714Y-73889390D02*
X132745952Y-73841771D01*
X132745952Y-73841771D02*
X132984047Y-73841771D01*
X132984047Y-73841771D02*
X133079285Y-73889390D01*
X133079285Y-73889390D02*
X133126904Y-73937009D01*
X133126904Y-73937009D02*
X133174523Y-74032247D01*
X133174523Y-74032247D02*
X133174523Y-74270342D01*
X133174523Y-74270342D02*
X133126904Y-74365580D01*
X133126904Y-74365580D02*
X133079285Y-74413200D01*
X133079285Y-74413200D02*
X132984047Y-74460819D01*
X132984047Y-74460819D02*
X132745952Y-74460819D01*
X132745952Y-74460819D02*
X132650714Y-74413200D01*
X132650714Y-74413200D02*
X132603095Y-74365580D01*
X131626904Y-89256438D02*
X131531666Y-89208819D01*
X131531666Y-89208819D02*
X131388809Y-89208819D01*
X131388809Y-89208819D02*
X131245952Y-89256438D01*
X131245952Y-89256438D02*
X131150714Y-89351676D01*
X131150714Y-89351676D02*
X131103095Y-89446914D01*
X131103095Y-89446914D02*
X131055476Y-89637390D01*
X131055476Y-89637390D02*
X131055476Y-89780247D01*
X131055476Y-89780247D02*
X131103095Y-89970723D01*
X131103095Y-89970723D02*
X131150714Y-90065961D01*
X131150714Y-90065961D02*
X131245952Y-90161200D01*
X131245952Y-90161200D02*
X131388809Y-90208819D01*
X131388809Y-90208819D02*
X131484047Y-90208819D01*
X131484047Y-90208819D02*
X131626904Y-90161200D01*
X131626904Y-90161200D02*
X131674523Y-90113580D01*
X131674523Y-90113580D02*
X131674523Y-89780247D01*
X131674523Y-89780247D02*
X131484047Y-89780247D01*
X215280476Y-93463200D02*
X215423333Y-93510819D01*
X215423333Y-93510819D02*
X215661428Y-93510819D01*
X215661428Y-93510819D02*
X215756666Y-93463200D01*
X215756666Y-93463200D02*
X215804285Y-93415580D01*
X215804285Y-93415580D02*
X215851904Y-93320342D01*
X215851904Y-93320342D02*
X215851904Y-93225104D01*
X215851904Y-93225104D02*
X215804285Y-93129866D01*
X215804285Y-93129866D02*
X215756666Y-93082247D01*
X215756666Y-93082247D02*
X215661428Y-93034628D01*
X215661428Y-93034628D02*
X215470952Y-92987009D01*
X215470952Y-92987009D02*
X215375714Y-92939390D01*
X215375714Y-92939390D02*
X215328095Y-92891771D01*
X215328095Y-92891771D02*
X215280476Y-92796533D01*
X215280476Y-92796533D02*
X215280476Y-92701295D01*
X215280476Y-92701295D02*
X215328095Y-92606057D01*
X215328095Y-92606057D02*
X215375714Y-92558438D01*
X215375714Y-92558438D02*
X215470952Y-92510819D01*
X215470952Y-92510819D02*
X215709047Y-92510819D01*
X215709047Y-92510819D02*
X215851904Y-92558438D01*
X216185238Y-92510819D02*
X216423333Y-93510819D01*
X216423333Y-93510819D02*
X216613809Y-92796533D01*
X216613809Y-92796533D02*
X216804285Y-93510819D01*
X216804285Y-93510819D02*
X217042381Y-92510819D01*
X217851904Y-92844152D02*
X217851904Y-93510819D01*
X217613809Y-92463200D02*
X217375714Y-93177485D01*
X217375714Y-93177485D02*
X217994761Y-93177485D01*
X218566190Y-92510819D02*
X218661428Y-92510819D01*
X218661428Y-92510819D02*
X218756666Y-92558438D01*
X218756666Y-92558438D02*
X218804285Y-92606057D01*
X218804285Y-92606057D02*
X218851904Y-92701295D01*
X218851904Y-92701295D02*
X218899523Y-92891771D01*
X218899523Y-92891771D02*
X218899523Y-93129866D01*
X218899523Y-93129866D02*
X218851904Y-93320342D01*
X218851904Y-93320342D02*
X218804285Y-93415580D01*
X218804285Y-93415580D02*
X218756666Y-93463200D01*
X218756666Y-93463200D02*
X218661428Y-93510819D01*
X218661428Y-93510819D02*
X218566190Y-93510819D01*
X218566190Y-93510819D02*
X218470952Y-93463200D01*
X218470952Y-93463200D02*
X218423333Y-93415580D01*
X218423333Y-93415580D02*
X218375714Y-93320342D01*
X218375714Y-93320342D02*
X218328095Y-93129866D01*
X218328095Y-93129866D02*
X218328095Y-92891771D01*
X218328095Y-92891771D02*
X218375714Y-92701295D01*
X218375714Y-92701295D02*
X218423333Y-92606057D01*
X218423333Y-92606057D02*
X218470952Y-92558438D01*
X218470952Y-92558438D02*
X218566190Y-92510819D01*
X214923333Y-109211200D02*
X215066190Y-109258819D01*
X215066190Y-109258819D02*
X215304285Y-109258819D01*
X215304285Y-109258819D02*
X215399523Y-109211200D01*
X215399523Y-109211200D02*
X215447142Y-109163580D01*
X215447142Y-109163580D02*
X215494761Y-109068342D01*
X215494761Y-109068342D02*
X215494761Y-108973104D01*
X215494761Y-108973104D02*
X215447142Y-108877866D01*
X215447142Y-108877866D02*
X215399523Y-108830247D01*
X215399523Y-108830247D02*
X215304285Y-108782628D01*
X215304285Y-108782628D02*
X215113809Y-108735009D01*
X215113809Y-108735009D02*
X215018571Y-108687390D01*
X215018571Y-108687390D02*
X214970952Y-108639771D01*
X214970952Y-108639771D02*
X214923333Y-108544533D01*
X214923333Y-108544533D02*
X214923333Y-108449295D01*
X214923333Y-108449295D02*
X214970952Y-108354057D01*
X214970952Y-108354057D02*
X215018571Y-108306438D01*
X215018571Y-108306438D02*
X215113809Y-108258819D01*
X215113809Y-108258819D02*
X215351904Y-108258819D01*
X215351904Y-108258819D02*
X215494761Y-108306438D01*
X215923333Y-109258819D02*
X215923333Y-108258819D01*
X215923333Y-108258819D02*
X216304285Y-108258819D01*
X216304285Y-108258819D02*
X216399523Y-108306438D01*
X216399523Y-108306438D02*
X216447142Y-108354057D01*
X216447142Y-108354057D02*
X216494761Y-108449295D01*
X216494761Y-108449295D02*
X216494761Y-108592152D01*
X216494761Y-108592152D02*
X216447142Y-108687390D01*
X216447142Y-108687390D02*
X216399523Y-108735009D01*
X216399523Y-108735009D02*
X216304285Y-108782628D01*
X216304285Y-108782628D02*
X215923333Y-108782628D01*
X216875714Y-108973104D02*
X217351904Y-108973104D01*
X216780476Y-109258819D02*
X217113809Y-108258819D01*
X217113809Y-108258819D02*
X217447142Y-109258819D01*
X218351904Y-109163580D02*
X218304285Y-109211200D01*
X218304285Y-109211200D02*
X218161428Y-109258819D01*
X218161428Y-109258819D02*
X218066190Y-109258819D01*
X218066190Y-109258819D02*
X217923333Y-109211200D01*
X217923333Y-109211200D02*
X217828095Y-109115961D01*
X217828095Y-109115961D02*
X217780476Y-109020723D01*
X217780476Y-109020723D02*
X217732857Y-108830247D01*
X217732857Y-108830247D02*
X217732857Y-108687390D01*
X217732857Y-108687390D02*
X217780476Y-108496914D01*
X217780476Y-108496914D02*
X217828095Y-108401676D01*
X217828095Y-108401676D02*
X217923333Y-108306438D01*
X217923333Y-108306438D02*
X218066190Y-108258819D01*
X218066190Y-108258819D02*
X218161428Y-108258819D01*
X218161428Y-108258819D02*
X218304285Y-108306438D01*
X218304285Y-108306438D02*
X218351904Y-108354057D01*
X218780476Y-108735009D02*
X219113809Y-108735009D01*
X219256666Y-109258819D02*
X218780476Y-109258819D01*
X218780476Y-109258819D02*
X218780476Y-108258819D01*
X218780476Y-108258819D02*
X219256666Y-108258819D01*
X207494666Y-32350819D02*
X207494666Y-33065104D01*
X207494666Y-33065104D02*
X207447047Y-33207961D01*
X207447047Y-33207961D02*
X207351809Y-33303200D01*
X207351809Y-33303200D02*
X207208952Y-33350819D01*
X207208952Y-33350819D02*
X207113714Y-33350819D01*
X207923238Y-32446057D02*
X207970857Y-32398438D01*
X207970857Y-32398438D02*
X208066095Y-32350819D01*
X208066095Y-32350819D02*
X208304190Y-32350819D01*
X208304190Y-32350819D02*
X208399428Y-32398438D01*
X208399428Y-32398438D02*
X208447047Y-32446057D01*
X208447047Y-32446057D02*
X208494666Y-32541295D01*
X208494666Y-32541295D02*
X208494666Y-32636533D01*
X208494666Y-32636533D02*
X208447047Y-32779390D01*
X208447047Y-32779390D02*
X207875619Y-33350819D01*
X207875619Y-33350819D02*
X208494666Y-33350819D01*
X181705476Y-55363200D02*
X181848333Y-55410819D01*
X181848333Y-55410819D02*
X182086428Y-55410819D01*
X182086428Y-55410819D02*
X182181666Y-55363200D01*
X182181666Y-55363200D02*
X182229285Y-55315580D01*
X182229285Y-55315580D02*
X182276904Y-55220342D01*
X182276904Y-55220342D02*
X182276904Y-55125104D01*
X182276904Y-55125104D02*
X182229285Y-55029866D01*
X182229285Y-55029866D02*
X182181666Y-54982247D01*
X182181666Y-54982247D02*
X182086428Y-54934628D01*
X182086428Y-54934628D02*
X181895952Y-54887009D01*
X181895952Y-54887009D02*
X181800714Y-54839390D01*
X181800714Y-54839390D02*
X181753095Y-54791771D01*
X181753095Y-54791771D02*
X181705476Y-54696533D01*
X181705476Y-54696533D02*
X181705476Y-54601295D01*
X181705476Y-54601295D02*
X181753095Y-54506057D01*
X181753095Y-54506057D02*
X181800714Y-54458438D01*
X181800714Y-54458438D02*
X181895952Y-54410819D01*
X181895952Y-54410819D02*
X182134047Y-54410819D01*
X182134047Y-54410819D02*
X182276904Y-54458438D01*
X182610238Y-54410819D02*
X182848333Y-55410819D01*
X182848333Y-55410819D02*
X183038809Y-54696533D01*
X183038809Y-54696533D02*
X183229285Y-55410819D01*
X183229285Y-55410819D02*
X183467381Y-54410819D01*
X184372142Y-55410819D02*
X183800714Y-55410819D01*
X184086428Y-55410819D02*
X184086428Y-54410819D01*
X184086428Y-54410819D02*
X183991190Y-54553676D01*
X183991190Y-54553676D02*
X183895952Y-54648914D01*
X183895952Y-54648914D02*
X183800714Y-54696533D01*
X184943571Y-54839390D02*
X184848333Y-54791771D01*
X184848333Y-54791771D02*
X184800714Y-54744152D01*
X184800714Y-54744152D02*
X184753095Y-54648914D01*
X184753095Y-54648914D02*
X184753095Y-54601295D01*
X184753095Y-54601295D02*
X184800714Y-54506057D01*
X184800714Y-54506057D02*
X184848333Y-54458438D01*
X184848333Y-54458438D02*
X184943571Y-54410819D01*
X184943571Y-54410819D02*
X185134047Y-54410819D01*
X185134047Y-54410819D02*
X185229285Y-54458438D01*
X185229285Y-54458438D02*
X185276904Y-54506057D01*
X185276904Y-54506057D02*
X185324523Y-54601295D01*
X185324523Y-54601295D02*
X185324523Y-54648914D01*
X185324523Y-54648914D02*
X185276904Y-54744152D01*
X185276904Y-54744152D02*
X185229285Y-54791771D01*
X185229285Y-54791771D02*
X185134047Y-54839390D01*
X185134047Y-54839390D02*
X184943571Y-54839390D01*
X184943571Y-54839390D02*
X184848333Y-54887009D01*
X184848333Y-54887009D02*
X184800714Y-54934628D01*
X184800714Y-54934628D02*
X184753095Y-55029866D01*
X184753095Y-55029866D02*
X184753095Y-55220342D01*
X184753095Y-55220342D02*
X184800714Y-55315580D01*
X184800714Y-55315580D02*
X184848333Y-55363200D01*
X184848333Y-55363200D02*
X184943571Y-55410819D01*
X184943571Y-55410819D02*
X185134047Y-55410819D01*
X185134047Y-55410819D02*
X185229285Y-55363200D01*
X185229285Y-55363200D02*
X185276904Y-55315580D01*
X185276904Y-55315580D02*
X185324523Y-55220342D01*
X185324523Y-55220342D02*
X185324523Y-55029866D01*
X185324523Y-55029866D02*
X185276904Y-54934628D01*
X185276904Y-54934628D02*
X185229285Y-54887009D01*
X185229285Y-54887009D02*
X185134047Y-54839390D01*
X183515000Y-71158819D02*
X183515000Y-70158819D01*
X210280476Y-36313200D02*
X210423333Y-36360819D01*
X210423333Y-36360819D02*
X210661428Y-36360819D01*
X210661428Y-36360819D02*
X210756666Y-36313200D01*
X210756666Y-36313200D02*
X210804285Y-36265580D01*
X210804285Y-36265580D02*
X210851904Y-36170342D01*
X210851904Y-36170342D02*
X210851904Y-36075104D01*
X210851904Y-36075104D02*
X210804285Y-35979866D01*
X210804285Y-35979866D02*
X210756666Y-35932247D01*
X210756666Y-35932247D02*
X210661428Y-35884628D01*
X210661428Y-35884628D02*
X210470952Y-35837009D01*
X210470952Y-35837009D02*
X210375714Y-35789390D01*
X210375714Y-35789390D02*
X210328095Y-35741771D01*
X210328095Y-35741771D02*
X210280476Y-35646533D01*
X210280476Y-35646533D02*
X210280476Y-35551295D01*
X210280476Y-35551295D02*
X210328095Y-35456057D01*
X210328095Y-35456057D02*
X210375714Y-35408438D01*
X210375714Y-35408438D02*
X210470952Y-35360819D01*
X210470952Y-35360819D02*
X210709047Y-35360819D01*
X210709047Y-35360819D02*
X210851904Y-35408438D01*
X211185238Y-35360819D02*
X211423333Y-36360819D01*
X211423333Y-36360819D02*
X211613809Y-35646533D01*
X211613809Y-35646533D02*
X211804285Y-36360819D01*
X211804285Y-36360819D02*
X212042381Y-35360819D01*
X212947142Y-36360819D02*
X212375714Y-36360819D01*
X212661428Y-36360819D02*
X212661428Y-35360819D01*
X212661428Y-35360819D02*
X212566190Y-35503676D01*
X212566190Y-35503676D02*
X212470952Y-35598914D01*
X212470952Y-35598914D02*
X212375714Y-35646533D01*
X213566190Y-35360819D02*
X213661428Y-35360819D01*
X213661428Y-35360819D02*
X213756666Y-35408438D01*
X213756666Y-35408438D02*
X213804285Y-35456057D01*
X213804285Y-35456057D02*
X213851904Y-35551295D01*
X213851904Y-35551295D02*
X213899523Y-35741771D01*
X213899523Y-35741771D02*
X213899523Y-35979866D01*
X213899523Y-35979866D02*
X213851904Y-36170342D01*
X213851904Y-36170342D02*
X213804285Y-36265580D01*
X213804285Y-36265580D02*
X213756666Y-36313200D01*
X213756666Y-36313200D02*
X213661428Y-36360819D01*
X213661428Y-36360819D02*
X213566190Y-36360819D01*
X213566190Y-36360819D02*
X213470952Y-36313200D01*
X213470952Y-36313200D02*
X213423333Y-36265580D01*
X213423333Y-36265580D02*
X213375714Y-36170342D01*
X213375714Y-36170342D02*
X213328095Y-35979866D01*
X213328095Y-35979866D02*
X213328095Y-35741771D01*
X213328095Y-35741771D02*
X213375714Y-35551295D01*
X213375714Y-35551295D02*
X213423333Y-35456057D01*
X213423333Y-35456057D02*
X213470952Y-35408438D01*
X213470952Y-35408438D02*
X213566190Y-35360819D01*
X212161429Y-51108819D02*
X212256667Y-51108819D01*
X212256667Y-51108819D02*
X212345952Y-51156438D01*
X212345952Y-51156438D02*
X212387619Y-51204057D01*
X212387619Y-51204057D02*
X212423333Y-51299295D01*
X212423333Y-51299295D02*
X212447143Y-51489771D01*
X212447143Y-51489771D02*
X212417381Y-51727866D01*
X212417381Y-51727866D02*
X212345952Y-51918342D01*
X212345952Y-51918342D02*
X212286429Y-52013580D01*
X212286429Y-52013580D02*
X212232857Y-52061200D01*
X212232857Y-52061200D02*
X212131667Y-52108819D01*
X212131667Y-52108819D02*
X212036429Y-52108819D01*
X212036429Y-52108819D02*
X211947143Y-52061200D01*
X211947143Y-52061200D02*
X211905476Y-52013580D01*
X211905476Y-52013580D02*
X211869762Y-51918342D01*
X211869762Y-51918342D02*
X211845952Y-51727866D01*
X211845952Y-51727866D02*
X211875714Y-51489771D01*
X211875714Y-51489771D02*
X211947143Y-51299295D01*
X211947143Y-51299295D02*
X212006667Y-51204057D01*
X212006667Y-51204057D02*
X212060238Y-51156438D01*
X212060238Y-51156438D02*
X212161429Y-51108819D01*
X148605476Y-74413200D02*
X148748333Y-74460819D01*
X148748333Y-74460819D02*
X148986428Y-74460819D01*
X148986428Y-74460819D02*
X149081666Y-74413200D01*
X149081666Y-74413200D02*
X149129285Y-74365580D01*
X149129285Y-74365580D02*
X149176904Y-74270342D01*
X149176904Y-74270342D02*
X149176904Y-74175104D01*
X149176904Y-74175104D02*
X149129285Y-74079866D01*
X149129285Y-74079866D02*
X149081666Y-74032247D01*
X149081666Y-74032247D02*
X148986428Y-73984628D01*
X148986428Y-73984628D02*
X148795952Y-73937009D01*
X148795952Y-73937009D02*
X148700714Y-73889390D01*
X148700714Y-73889390D02*
X148653095Y-73841771D01*
X148653095Y-73841771D02*
X148605476Y-73746533D01*
X148605476Y-73746533D02*
X148605476Y-73651295D01*
X148605476Y-73651295D02*
X148653095Y-73556057D01*
X148653095Y-73556057D02*
X148700714Y-73508438D01*
X148700714Y-73508438D02*
X148795952Y-73460819D01*
X148795952Y-73460819D02*
X149034047Y-73460819D01*
X149034047Y-73460819D02*
X149176904Y-73508438D01*
X149510238Y-73460819D02*
X149748333Y-74460819D01*
X149748333Y-74460819D02*
X149938809Y-73746533D01*
X149938809Y-73746533D02*
X150129285Y-74460819D01*
X150129285Y-74460819D02*
X150367381Y-73460819D01*
X150700714Y-73556057D02*
X150748333Y-73508438D01*
X150748333Y-73508438D02*
X150843571Y-73460819D01*
X150843571Y-73460819D02*
X151081666Y-73460819D01*
X151081666Y-73460819D02*
X151176904Y-73508438D01*
X151176904Y-73508438D02*
X151224523Y-73556057D01*
X151224523Y-73556057D02*
X151272142Y-73651295D01*
X151272142Y-73651295D02*
X151272142Y-73746533D01*
X151272142Y-73746533D02*
X151224523Y-73889390D01*
X151224523Y-73889390D02*
X150653095Y-74460819D01*
X150653095Y-74460819D02*
X151272142Y-74460819D01*
X152129285Y-73460819D02*
X151938809Y-73460819D01*
X151938809Y-73460819D02*
X151843571Y-73508438D01*
X151843571Y-73508438D02*
X151795952Y-73556057D01*
X151795952Y-73556057D02*
X151700714Y-73698914D01*
X151700714Y-73698914D02*
X151653095Y-73889390D01*
X151653095Y-73889390D02*
X151653095Y-74270342D01*
X151653095Y-74270342D02*
X151700714Y-74365580D01*
X151700714Y-74365580D02*
X151748333Y-74413200D01*
X151748333Y-74413200D02*
X151843571Y-74460819D01*
X151843571Y-74460819D02*
X152034047Y-74460819D01*
X152034047Y-74460819D02*
X152129285Y-74413200D01*
X152129285Y-74413200D02*
X152176904Y-74365580D01*
X152176904Y-74365580D02*
X152224523Y-74270342D01*
X152224523Y-74270342D02*
X152224523Y-74032247D01*
X152224523Y-74032247D02*
X152176904Y-73937009D01*
X152176904Y-73937009D02*
X152129285Y-73889390D01*
X152129285Y-73889390D02*
X152034047Y-73841771D01*
X152034047Y-73841771D02*
X151843571Y-73841771D01*
X151843571Y-73841771D02*
X151748333Y-73889390D01*
X151748333Y-73889390D02*
X151700714Y-73937009D01*
X151700714Y-73937009D02*
X151653095Y-74032247D01*
X150129286Y-90208819D02*
X150129286Y-89208819D01*
X150129286Y-89685009D02*
X150700714Y-89685009D01*
X150700714Y-90208819D02*
X150700714Y-89208819D01*
X53355476Y-74413200D02*
X53498333Y-74460819D01*
X53498333Y-74460819D02*
X53736428Y-74460819D01*
X53736428Y-74460819D02*
X53831666Y-74413200D01*
X53831666Y-74413200D02*
X53879285Y-74365580D01*
X53879285Y-74365580D02*
X53926904Y-74270342D01*
X53926904Y-74270342D02*
X53926904Y-74175104D01*
X53926904Y-74175104D02*
X53879285Y-74079866D01*
X53879285Y-74079866D02*
X53831666Y-74032247D01*
X53831666Y-74032247D02*
X53736428Y-73984628D01*
X53736428Y-73984628D02*
X53545952Y-73937009D01*
X53545952Y-73937009D02*
X53450714Y-73889390D01*
X53450714Y-73889390D02*
X53403095Y-73841771D01*
X53403095Y-73841771D02*
X53355476Y-73746533D01*
X53355476Y-73746533D02*
X53355476Y-73651295D01*
X53355476Y-73651295D02*
X53403095Y-73556057D01*
X53403095Y-73556057D02*
X53450714Y-73508438D01*
X53450714Y-73508438D02*
X53545952Y-73460819D01*
X53545952Y-73460819D02*
X53784047Y-73460819D01*
X53784047Y-73460819D02*
X53926904Y-73508438D01*
X54260238Y-73460819D02*
X54498333Y-74460819D01*
X54498333Y-74460819D02*
X54688809Y-73746533D01*
X54688809Y-73746533D02*
X54879285Y-74460819D01*
X54879285Y-74460819D02*
X55117381Y-73460819D01*
X55450714Y-73556057D02*
X55498333Y-73508438D01*
X55498333Y-73508438D02*
X55593571Y-73460819D01*
X55593571Y-73460819D02*
X55831666Y-73460819D01*
X55831666Y-73460819D02*
X55926904Y-73508438D01*
X55926904Y-73508438D02*
X55974523Y-73556057D01*
X55974523Y-73556057D02*
X56022142Y-73651295D01*
X56022142Y-73651295D02*
X56022142Y-73746533D01*
X56022142Y-73746533D02*
X55974523Y-73889390D01*
X55974523Y-73889390D02*
X55403095Y-74460819D01*
X55403095Y-74460819D02*
X56022142Y-74460819D01*
X56974523Y-74460819D02*
X56403095Y-74460819D01*
X56688809Y-74460819D02*
X56688809Y-73460819D01*
X56688809Y-73460819D02*
X56593571Y-73603676D01*
X56593571Y-73603676D02*
X56498333Y-73698914D01*
X56498333Y-73698914D02*
X56403095Y-73746533D01*
X54926905Y-89923104D02*
X55403095Y-89923104D01*
X54831667Y-90208819D02*
X55165000Y-89208819D01*
X55165000Y-89208819D02*
X55498333Y-90208819D01*
X58356667Y-36313200D02*
X58499524Y-36360819D01*
X58499524Y-36360819D02*
X58737619Y-36360819D01*
X58737619Y-36360819D02*
X58832857Y-36313200D01*
X58832857Y-36313200D02*
X58880476Y-36265580D01*
X58880476Y-36265580D02*
X58928095Y-36170342D01*
X58928095Y-36170342D02*
X58928095Y-36075104D01*
X58928095Y-36075104D02*
X58880476Y-35979866D01*
X58880476Y-35979866D02*
X58832857Y-35932247D01*
X58832857Y-35932247D02*
X58737619Y-35884628D01*
X58737619Y-35884628D02*
X58547143Y-35837009D01*
X58547143Y-35837009D02*
X58451905Y-35789390D01*
X58451905Y-35789390D02*
X58404286Y-35741771D01*
X58404286Y-35741771D02*
X58356667Y-35646533D01*
X58356667Y-35646533D02*
X58356667Y-35551295D01*
X58356667Y-35551295D02*
X58404286Y-35456057D01*
X58404286Y-35456057D02*
X58451905Y-35408438D01*
X58451905Y-35408438D02*
X58547143Y-35360819D01*
X58547143Y-35360819D02*
X58785238Y-35360819D01*
X58785238Y-35360819D02*
X58928095Y-35408438D01*
X59261429Y-35360819D02*
X59499524Y-36360819D01*
X59499524Y-36360819D02*
X59690000Y-35646533D01*
X59690000Y-35646533D02*
X59880476Y-36360819D01*
X59880476Y-36360819D02*
X60118572Y-35360819D01*
X60451905Y-35456057D02*
X60499524Y-35408438D01*
X60499524Y-35408438D02*
X60594762Y-35360819D01*
X60594762Y-35360819D02*
X60832857Y-35360819D01*
X60832857Y-35360819D02*
X60928095Y-35408438D01*
X60928095Y-35408438D02*
X60975714Y-35456057D01*
X60975714Y-35456057D02*
X61023333Y-35551295D01*
X61023333Y-35551295D02*
X61023333Y-35646533D01*
X61023333Y-35646533D02*
X60975714Y-35789390D01*
X60975714Y-35789390D02*
X60404286Y-36360819D01*
X60404286Y-36360819D02*
X61023333Y-36360819D01*
X59404286Y-51204057D02*
X59451905Y-51156438D01*
X59451905Y-51156438D02*
X59547143Y-51108819D01*
X59547143Y-51108819D02*
X59785238Y-51108819D01*
X59785238Y-51108819D02*
X59880476Y-51156438D01*
X59880476Y-51156438D02*
X59928095Y-51204057D01*
X59928095Y-51204057D02*
X59975714Y-51299295D01*
X59975714Y-51299295D02*
X59975714Y-51394533D01*
X59975714Y-51394533D02*
X59928095Y-51537390D01*
X59928095Y-51537390D02*
X59356667Y-52108819D01*
X59356667Y-52108819D02*
X59975714Y-52108819D01*
X100980476Y-93463200D02*
X101123333Y-93510819D01*
X101123333Y-93510819D02*
X101361428Y-93510819D01*
X101361428Y-93510819D02*
X101456666Y-93463200D01*
X101456666Y-93463200D02*
X101504285Y-93415580D01*
X101504285Y-93415580D02*
X101551904Y-93320342D01*
X101551904Y-93320342D02*
X101551904Y-93225104D01*
X101551904Y-93225104D02*
X101504285Y-93129866D01*
X101504285Y-93129866D02*
X101456666Y-93082247D01*
X101456666Y-93082247D02*
X101361428Y-93034628D01*
X101361428Y-93034628D02*
X101170952Y-92987009D01*
X101170952Y-92987009D02*
X101075714Y-92939390D01*
X101075714Y-92939390D02*
X101028095Y-92891771D01*
X101028095Y-92891771D02*
X100980476Y-92796533D01*
X100980476Y-92796533D02*
X100980476Y-92701295D01*
X100980476Y-92701295D02*
X101028095Y-92606057D01*
X101028095Y-92606057D02*
X101075714Y-92558438D01*
X101075714Y-92558438D02*
X101170952Y-92510819D01*
X101170952Y-92510819D02*
X101409047Y-92510819D01*
X101409047Y-92510819D02*
X101551904Y-92558438D01*
X101885238Y-92510819D02*
X102123333Y-93510819D01*
X102123333Y-93510819D02*
X102313809Y-92796533D01*
X102313809Y-92796533D02*
X102504285Y-93510819D01*
X102504285Y-93510819D02*
X102742381Y-92510819D01*
X103028095Y-92510819D02*
X103647142Y-92510819D01*
X103647142Y-92510819D02*
X103313809Y-92891771D01*
X103313809Y-92891771D02*
X103456666Y-92891771D01*
X103456666Y-92891771D02*
X103551904Y-92939390D01*
X103551904Y-92939390D02*
X103599523Y-92987009D01*
X103599523Y-92987009D02*
X103647142Y-93082247D01*
X103647142Y-93082247D02*
X103647142Y-93320342D01*
X103647142Y-93320342D02*
X103599523Y-93415580D01*
X103599523Y-93415580D02*
X103551904Y-93463200D01*
X103551904Y-93463200D02*
X103456666Y-93510819D01*
X103456666Y-93510819D02*
X103170952Y-93510819D01*
X103170952Y-93510819D02*
X103075714Y-93463200D01*
X103075714Y-93463200D02*
X103028095Y-93415580D01*
X104504285Y-92844152D02*
X104504285Y-93510819D01*
X104266190Y-92463200D02*
X104028095Y-93177485D01*
X104028095Y-93177485D02*
X104647142Y-93177485D01*
X103099523Y-109163580D02*
X103051904Y-109211200D01*
X103051904Y-109211200D02*
X102909047Y-109258819D01*
X102909047Y-109258819D02*
X102813809Y-109258819D01*
X102813809Y-109258819D02*
X102670952Y-109211200D01*
X102670952Y-109211200D02*
X102575714Y-109115961D01*
X102575714Y-109115961D02*
X102528095Y-109020723D01*
X102528095Y-109020723D02*
X102480476Y-108830247D01*
X102480476Y-108830247D02*
X102480476Y-108687390D01*
X102480476Y-108687390D02*
X102528095Y-108496914D01*
X102528095Y-108496914D02*
X102575714Y-108401676D01*
X102575714Y-108401676D02*
X102670952Y-108306438D01*
X102670952Y-108306438D02*
X102813809Y-108258819D01*
X102813809Y-108258819D02*
X102909047Y-108258819D01*
X102909047Y-108258819D02*
X103051904Y-108306438D01*
X103051904Y-108306438D02*
X103099523Y-108354057D01*
X162655476Y-55363200D02*
X162798333Y-55410819D01*
X162798333Y-55410819D02*
X163036428Y-55410819D01*
X163036428Y-55410819D02*
X163131666Y-55363200D01*
X163131666Y-55363200D02*
X163179285Y-55315580D01*
X163179285Y-55315580D02*
X163226904Y-55220342D01*
X163226904Y-55220342D02*
X163226904Y-55125104D01*
X163226904Y-55125104D02*
X163179285Y-55029866D01*
X163179285Y-55029866D02*
X163131666Y-54982247D01*
X163131666Y-54982247D02*
X163036428Y-54934628D01*
X163036428Y-54934628D02*
X162845952Y-54887009D01*
X162845952Y-54887009D02*
X162750714Y-54839390D01*
X162750714Y-54839390D02*
X162703095Y-54791771D01*
X162703095Y-54791771D02*
X162655476Y-54696533D01*
X162655476Y-54696533D02*
X162655476Y-54601295D01*
X162655476Y-54601295D02*
X162703095Y-54506057D01*
X162703095Y-54506057D02*
X162750714Y-54458438D01*
X162750714Y-54458438D02*
X162845952Y-54410819D01*
X162845952Y-54410819D02*
X163084047Y-54410819D01*
X163084047Y-54410819D02*
X163226904Y-54458438D01*
X163560238Y-54410819D02*
X163798333Y-55410819D01*
X163798333Y-55410819D02*
X163988809Y-54696533D01*
X163988809Y-54696533D02*
X164179285Y-55410819D01*
X164179285Y-55410819D02*
X164417381Y-54410819D01*
X165322142Y-55410819D02*
X164750714Y-55410819D01*
X165036428Y-55410819D02*
X165036428Y-54410819D01*
X165036428Y-54410819D02*
X164941190Y-54553676D01*
X164941190Y-54553676D02*
X164845952Y-54648914D01*
X164845952Y-54648914D02*
X164750714Y-54696533D01*
X165655476Y-54410819D02*
X166322142Y-54410819D01*
X166322142Y-54410819D02*
X165893571Y-55410819D01*
X164179286Y-70158819D02*
X164179286Y-70968342D01*
X164179286Y-70968342D02*
X164226905Y-71063580D01*
X164226905Y-71063580D02*
X164274524Y-71111200D01*
X164274524Y-71111200D02*
X164369762Y-71158819D01*
X164369762Y-71158819D02*
X164560238Y-71158819D01*
X164560238Y-71158819D02*
X164655476Y-71111200D01*
X164655476Y-71111200D02*
X164703095Y-71063580D01*
X164703095Y-71063580D02*
X164750714Y-70968342D01*
X164750714Y-70968342D02*
X164750714Y-70158819D01*
X77406667Y-36313200D02*
X77549524Y-36360819D01*
X77549524Y-36360819D02*
X77787619Y-36360819D01*
X77787619Y-36360819D02*
X77882857Y-36313200D01*
X77882857Y-36313200D02*
X77930476Y-36265580D01*
X77930476Y-36265580D02*
X77978095Y-36170342D01*
X77978095Y-36170342D02*
X77978095Y-36075104D01*
X77978095Y-36075104D02*
X77930476Y-35979866D01*
X77930476Y-35979866D02*
X77882857Y-35932247D01*
X77882857Y-35932247D02*
X77787619Y-35884628D01*
X77787619Y-35884628D02*
X77597143Y-35837009D01*
X77597143Y-35837009D02*
X77501905Y-35789390D01*
X77501905Y-35789390D02*
X77454286Y-35741771D01*
X77454286Y-35741771D02*
X77406667Y-35646533D01*
X77406667Y-35646533D02*
X77406667Y-35551295D01*
X77406667Y-35551295D02*
X77454286Y-35456057D01*
X77454286Y-35456057D02*
X77501905Y-35408438D01*
X77501905Y-35408438D02*
X77597143Y-35360819D01*
X77597143Y-35360819D02*
X77835238Y-35360819D01*
X77835238Y-35360819D02*
X77978095Y-35408438D01*
X78311429Y-35360819D02*
X78549524Y-36360819D01*
X78549524Y-36360819D02*
X78740000Y-35646533D01*
X78740000Y-35646533D02*
X78930476Y-36360819D01*
X78930476Y-36360819D02*
X79168572Y-35360819D01*
X79454286Y-35360819D02*
X80073333Y-35360819D01*
X80073333Y-35360819D02*
X79740000Y-35741771D01*
X79740000Y-35741771D02*
X79882857Y-35741771D01*
X79882857Y-35741771D02*
X79978095Y-35789390D01*
X79978095Y-35789390D02*
X80025714Y-35837009D01*
X80025714Y-35837009D02*
X80073333Y-35932247D01*
X80073333Y-35932247D02*
X80073333Y-36170342D01*
X80073333Y-36170342D02*
X80025714Y-36265580D01*
X80025714Y-36265580D02*
X79978095Y-36313200D01*
X79978095Y-36313200D02*
X79882857Y-36360819D01*
X79882857Y-36360819D02*
X79597143Y-36360819D01*
X79597143Y-36360819D02*
X79501905Y-36313200D01*
X79501905Y-36313200D02*
X79454286Y-36265580D01*
X78406667Y-51108819D02*
X79025714Y-51108819D01*
X79025714Y-51108819D02*
X78692381Y-51489771D01*
X78692381Y-51489771D02*
X78835238Y-51489771D01*
X78835238Y-51489771D02*
X78930476Y-51537390D01*
X78930476Y-51537390D02*
X78978095Y-51585009D01*
X78978095Y-51585009D02*
X79025714Y-51680247D01*
X79025714Y-51680247D02*
X79025714Y-51918342D01*
X79025714Y-51918342D02*
X78978095Y-52013580D01*
X78978095Y-52013580D02*
X78930476Y-52061200D01*
X78930476Y-52061200D02*
X78835238Y-52108819D01*
X78835238Y-52108819D02*
X78549524Y-52108819D01*
X78549524Y-52108819D02*
X78454286Y-52061200D01*
X78454286Y-52061200D02*
X78406667Y-52013580D01*
X230241905Y-42133819D02*
X230241905Y-41133819D01*
X230241905Y-41133819D02*
X230480000Y-41133819D01*
X230480000Y-41133819D02*
X230622857Y-41181438D01*
X230622857Y-41181438D02*
X230718095Y-41276676D01*
X230718095Y-41276676D02*
X230765714Y-41371914D01*
X230765714Y-41371914D02*
X230813333Y-41562390D01*
X230813333Y-41562390D02*
X230813333Y-41705247D01*
X230813333Y-41705247D02*
X230765714Y-41895723D01*
X230765714Y-41895723D02*
X230718095Y-41990961D01*
X230718095Y-41990961D02*
X230622857Y-42086200D01*
X230622857Y-42086200D02*
X230480000Y-42133819D01*
X230480000Y-42133819D02*
X230241905Y-42133819D01*
X231765714Y-42133819D02*
X231194286Y-42133819D01*
X231480000Y-42133819D02*
X231480000Y-41133819D01*
X231480000Y-41133819D02*
X231384762Y-41276676D01*
X231384762Y-41276676D02*
X231289524Y-41371914D01*
X231289524Y-41371914D02*
X231194286Y-41419533D01*
X172656667Y-36313200D02*
X172799524Y-36360819D01*
X172799524Y-36360819D02*
X173037619Y-36360819D01*
X173037619Y-36360819D02*
X173132857Y-36313200D01*
X173132857Y-36313200D02*
X173180476Y-36265580D01*
X173180476Y-36265580D02*
X173228095Y-36170342D01*
X173228095Y-36170342D02*
X173228095Y-36075104D01*
X173228095Y-36075104D02*
X173180476Y-35979866D01*
X173180476Y-35979866D02*
X173132857Y-35932247D01*
X173132857Y-35932247D02*
X173037619Y-35884628D01*
X173037619Y-35884628D02*
X172847143Y-35837009D01*
X172847143Y-35837009D02*
X172751905Y-35789390D01*
X172751905Y-35789390D02*
X172704286Y-35741771D01*
X172704286Y-35741771D02*
X172656667Y-35646533D01*
X172656667Y-35646533D02*
X172656667Y-35551295D01*
X172656667Y-35551295D02*
X172704286Y-35456057D01*
X172704286Y-35456057D02*
X172751905Y-35408438D01*
X172751905Y-35408438D02*
X172847143Y-35360819D01*
X172847143Y-35360819D02*
X173085238Y-35360819D01*
X173085238Y-35360819D02*
X173228095Y-35408438D01*
X173561429Y-35360819D02*
X173799524Y-36360819D01*
X173799524Y-36360819D02*
X173990000Y-35646533D01*
X173990000Y-35646533D02*
X174180476Y-36360819D01*
X174180476Y-36360819D02*
X174418572Y-35360819D01*
X174942381Y-35789390D02*
X174847143Y-35741771D01*
X174847143Y-35741771D02*
X174799524Y-35694152D01*
X174799524Y-35694152D02*
X174751905Y-35598914D01*
X174751905Y-35598914D02*
X174751905Y-35551295D01*
X174751905Y-35551295D02*
X174799524Y-35456057D01*
X174799524Y-35456057D02*
X174847143Y-35408438D01*
X174847143Y-35408438D02*
X174942381Y-35360819D01*
X174942381Y-35360819D02*
X175132857Y-35360819D01*
X175132857Y-35360819D02*
X175228095Y-35408438D01*
X175228095Y-35408438D02*
X175275714Y-35456057D01*
X175275714Y-35456057D02*
X175323333Y-35551295D01*
X175323333Y-35551295D02*
X175323333Y-35598914D01*
X175323333Y-35598914D02*
X175275714Y-35694152D01*
X175275714Y-35694152D02*
X175228095Y-35741771D01*
X175228095Y-35741771D02*
X175132857Y-35789390D01*
X175132857Y-35789390D02*
X174942381Y-35789390D01*
X174942381Y-35789390D02*
X174847143Y-35837009D01*
X174847143Y-35837009D02*
X174799524Y-35884628D01*
X174799524Y-35884628D02*
X174751905Y-35979866D01*
X174751905Y-35979866D02*
X174751905Y-36170342D01*
X174751905Y-36170342D02*
X174799524Y-36265580D01*
X174799524Y-36265580D02*
X174847143Y-36313200D01*
X174847143Y-36313200D02*
X174942381Y-36360819D01*
X174942381Y-36360819D02*
X175132857Y-36360819D01*
X175132857Y-36360819D02*
X175228095Y-36313200D01*
X175228095Y-36313200D02*
X175275714Y-36265580D01*
X175275714Y-36265580D02*
X175323333Y-36170342D01*
X175323333Y-36170342D02*
X175323333Y-35979866D01*
X175323333Y-35979866D02*
X175275714Y-35884628D01*
X175275714Y-35884628D02*
X175228095Y-35837009D01*
X175228095Y-35837009D02*
X175132857Y-35789390D01*
X173894762Y-51537390D02*
X173799524Y-51489771D01*
X173799524Y-51489771D02*
X173751905Y-51442152D01*
X173751905Y-51442152D02*
X173704286Y-51346914D01*
X173704286Y-51346914D02*
X173704286Y-51299295D01*
X173704286Y-51299295D02*
X173751905Y-51204057D01*
X173751905Y-51204057D02*
X173799524Y-51156438D01*
X173799524Y-51156438D02*
X173894762Y-51108819D01*
X173894762Y-51108819D02*
X174085238Y-51108819D01*
X174085238Y-51108819D02*
X174180476Y-51156438D01*
X174180476Y-51156438D02*
X174228095Y-51204057D01*
X174228095Y-51204057D02*
X174275714Y-51299295D01*
X174275714Y-51299295D02*
X174275714Y-51346914D01*
X174275714Y-51346914D02*
X174228095Y-51442152D01*
X174228095Y-51442152D02*
X174180476Y-51489771D01*
X174180476Y-51489771D02*
X174085238Y-51537390D01*
X174085238Y-51537390D02*
X173894762Y-51537390D01*
X173894762Y-51537390D02*
X173799524Y-51585009D01*
X173799524Y-51585009D02*
X173751905Y-51632628D01*
X173751905Y-51632628D02*
X173704286Y-51727866D01*
X173704286Y-51727866D02*
X173704286Y-51918342D01*
X173704286Y-51918342D02*
X173751905Y-52013580D01*
X173751905Y-52013580D02*
X173799524Y-52061200D01*
X173799524Y-52061200D02*
X173894762Y-52108819D01*
X173894762Y-52108819D02*
X174085238Y-52108819D01*
X174085238Y-52108819D02*
X174180476Y-52061200D01*
X174180476Y-52061200D02*
X174228095Y-52013580D01*
X174228095Y-52013580D02*
X174275714Y-51918342D01*
X174275714Y-51918342D02*
X174275714Y-51727866D01*
X174275714Y-51727866D02*
X174228095Y-51632628D01*
X174228095Y-51632628D02*
X174180476Y-51585009D01*
X174180476Y-51585009D02*
X174085238Y-51537390D01*
X110505476Y-74413200D02*
X110648333Y-74460819D01*
X110648333Y-74460819D02*
X110886428Y-74460819D01*
X110886428Y-74460819D02*
X110981666Y-74413200D01*
X110981666Y-74413200D02*
X111029285Y-74365580D01*
X111029285Y-74365580D02*
X111076904Y-74270342D01*
X111076904Y-74270342D02*
X111076904Y-74175104D01*
X111076904Y-74175104D02*
X111029285Y-74079866D01*
X111029285Y-74079866D02*
X110981666Y-74032247D01*
X110981666Y-74032247D02*
X110886428Y-73984628D01*
X110886428Y-73984628D02*
X110695952Y-73937009D01*
X110695952Y-73937009D02*
X110600714Y-73889390D01*
X110600714Y-73889390D02*
X110553095Y-73841771D01*
X110553095Y-73841771D02*
X110505476Y-73746533D01*
X110505476Y-73746533D02*
X110505476Y-73651295D01*
X110505476Y-73651295D02*
X110553095Y-73556057D01*
X110553095Y-73556057D02*
X110600714Y-73508438D01*
X110600714Y-73508438D02*
X110695952Y-73460819D01*
X110695952Y-73460819D02*
X110934047Y-73460819D01*
X110934047Y-73460819D02*
X111076904Y-73508438D01*
X111410238Y-73460819D02*
X111648333Y-74460819D01*
X111648333Y-74460819D02*
X111838809Y-73746533D01*
X111838809Y-73746533D02*
X112029285Y-74460819D01*
X112029285Y-74460819D02*
X112267381Y-73460819D01*
X112600714Y-73556057D02*
X112648333Y-73508438D01*
X112648333Y-73508438D02*
X112743571Y-73460819D01*
X112743571Y-73460819D02*
X112981666Y-73460819D01*
X112981666Y-73460819D02*
X113076904Y-73508438D01*
X113076904Y-73508438D02*
X113124523Y-73556057D01*
X113124523Y-73556057D02*
X113172142Y-73651295D01*
X113172142Y-73651295D02*
X113172142Y-73746533D01*
X113172142Y-73746533D02*
X113124523Y-73889390D01*
X113124523Y-73889390D02*
X112553095Y-74460819D01*
X112553095Y-74460819D02*
X113172142Y-74460819D01*
X114029285Y-73794152D02*
X114029285Y-74460819D01*
X113791190Y-73413200D02*
X113553095Y-74127485D01*
X113553095Y-74127485D02*
X114172142Y-74127485D01*
X112457857Y-89685009D02*
X112124524Y-89685009D01*
X112124524Y-90208819D02*
X112124524Y-89208819D01*
X112124524Y-89208819D02*
X112600714Y-89208819D01*
X43830476Y-93463200D02*
X43973333Y-93510819D01*
X43973333Y-93510819D02*
X44211428Y-93510819D01*
X44211428Y-93510819D02*
X44306666Y-93463200D01*
X44306666Y-93463200D02*
X44354285Y-93415580D01*
X44354285Y-93415580D02*
X44401904Y-93320342D01*
X44401904Y-93320342D02*
X44401904Y-93225104D01*
X44401904Y-93225104D02*
X44354285Y-93129866D01*
X44354285Y-93129866D02*
X44306666Y-93082247D01*
X44306666Y-93082247D02*
X44211428Y-93034628D01*
X44211428Y-93034628D02*
X44020952Y-92987009D01*
X44020952Y-92987009D02*
X43925714Y-92939390D01*
X43925714Y-92939390D02*
X43878095Y-92891771D01*
X43878095Y-92891771D02*
X43830476Y-92796533D01*
X43830476Y-92796533D02*
X43830476Y-92701295D01*
X43830476Y-92701295D02*
X43878095Y-92606057D01*
X43878095Y-92606057D02*
X43925714Y-92558438D01*
X43925714Y-92558438D02*
X44020952Y-92510819D01*
X44020952Y-92510819D02*
X44259047Y-92510819D01*
X44259047Y-92510819D02*
X44401904Y-92558438D01*
X44735238Y-92510819D02*
X44973333Y-93510819D01*
X44973333Y-93510819D02*
X45163809Y-92796533D01*
X45163809Y-92796533D02*
X45354285Y-93510819D01*
X45354285Y-93510819D02*
X45592381Y-92510819D01*
X45878095Y-92510819D02*
X46497142Y-92510819D01*
X46497142Y-92510819D02*
X46163809Y-92891771D01*
X46163809Y-92891771D02*
X46306666Y-92891771D01*
X46306666Y-92891771D02*
X46401904Y-92939390D01*
X46401904Y-92939390D02*
X46449523Y-92987009D01*
X46449523Y-92987009D02*
X46497142Y-93082247D01*
X46497142Y-93082247D02*
X46497142Y-93320342D01*
X46497142Y-93320342D02*
X46449523Y-93415580D01*
X46449523Y-93415580D02*
X46401904Y-93463200D01*
X46401904Y-93463200D02*
X46306666Y-93510819D01*
X46306666Y-93510819D02*
X46020952Y-93510819D01*
X46020952Y-93510819D02*
X45925714Y-93463200D01*
X45925714Y-93463200D02*
X45878095Y-93415580D01*
X47449523Y-93510819D02*
X46878095Y-93510819D01*
X47163809Y-93510819D02*
X47163809Y-92510819D01*
X47163809Y-92510819D02*
X47068571Y-92653676D01*
X47068571Y-92653676D02*
X46973333Y-92748914D01*
X46973333Y-92748914D02*
X46878095Y-92796533D01*
X43782857Y-109211200D02*
X43925714Y-109258819D01*
X43925714Y-109258819D02*
X44163809Y-109258819D01*
X44163809Y-109258819D02*
X44259047Y-109211200D01*
X44259047Y-109211200D02*
X44306666Y-109163580D01*
X44306666Y-109163580D02*
X44354285Y-109068342D01*
X44354285Y-109068342D02*
X44354285Y-108973104D01*
X44354285Y-108973104D02*
X44306666Y-108877866D01*
X44306666Y-108877866D02*
X44259047Y-108830247D01*
X44259047Y-108830247D02*
X44163809Y-108782628D01*
X44163809Y-108782628D02*
X43973333Y-108735009D01*
X43973333Y-108735009D02*
X43878095Y-108687390D01*
X43878095Y-108687390D02*
X43830476Y-108639771D01*
X43830476Y-108639771D02*
X43782857Y-108544533D01*
X43782857Y-108544533D02*
X43782857Y-108449295D01*
X43782857Y-108449295D02*
X43830476Y-108354057D01*
X43830476Y-108354057D02*
X43878095Y-108306438D01*
X43878095Y-108306438D02*
X43973333Y-108258819D01*
X43973333Y-108258819D02*
X44211428Y-108258819D01*
X44211428Y-108258819D02*
X44354285Y-108306438D01*
X44782857Y-109258819D02*
X44782857Y-108258819D01*
X44782857Y-108735009D02*
X45354285Y-108735009D01*
X45354285Y-109258819D02*
X45354285Y-108258819D01*
X45830476Y-109258819D02*
X45830476Y-108258819D01*
X46639999Y-108735009D02*
X46306666Y-108735009D01*
X46306666Y-109258819D02*
X46306666Y-108258819D01*
X46306666Y-108258819D02*
X46782856Y-108258819D01*
X47020952Y-108258819D02*
X47592380Y-108258819D01*
X47306666Y-109258819D02*
X47306666Y-108258819D01*
X105505476Y-55363200D02*
X105648333Y-55410819D01*
X105648333Y-55410819D02*
X105886428Y-55410819D01*
X105886428Y-55410819D02*
X105981666Y-55363200D01*
X105981666Y-55363200D02*
X106029285Y-55315580D01*
X106029285Y-55315580D02*
X106076904Y-55220342D01*
X106076904Y-55220342D02*
X106076904Y-55125104D01*
X106076904Y-55125104D02*
X106029285Y-55029866D01*
X106029285Y-55029866D02*
X105981666Y-54982247D01*
X105981666Y-54982247D02*
X105886428Y-54934628D01*
X105886428Y-54934628D02*
X105695952Y-54887009D01*
X105695952Y-54887009D02*
X105600714Y-54839390D01*
X105600714Y-54839390D02*
X105553095Y-54791771D01*
X105553095Y-54791771D02*
X105505476Y-54696533D01*
X105505476Y-54696533D02*
X105505476Y-54601295D01*
X105505476Y-54601295D02*
X105553095Y-54506057D01*
X105553095Y-54506057D02*
X105600714Y-54458438D01*
X105600714Y-54458438D02*
X105695952Y-54410819D01*
X105695952Y-54410819D02*
X105934047Y-54410819D01*
X105934047Y-54410819D02*
X106076904Y-54458438D01*
X106410238Y-54410819D02*
X106648333Y-55410819D01*
X106648333Y-55410819D02*
X106838809Y-54696533D01*
X106838809Y-54696533D02*
X107029285Y-55410819D01*
X107029285Y-55410819D02*
X107267381Y-54410819D01*
X108172142Y-55410819D02*
X107600714Y-55410819D01*
X107886428Y-55410819D02*
X107886428Y-54410819D01*
X107886428Y-54410819D02*
X107791190Y-54553676D01*
X107791190Y-54553676D02*
X107695952Y-54648914D01*
X107695952Y-54648914D02*
X107600714Y-54696533D01*
X109029285Y-54744152D02*
X109029285Y-55410819D01*
X108791190Y-54363200D02*
X108553095Y-55077485D01*
X108553095Y-55077485D02*
X109172142Y-55077485D01*
X107624523Y-71158819D02*
X107291190Y-70682628D01*
X107053095Y-71158819D02*
X107053095Y-70158819D01*
X107053095Y-70158819D02*
X107434047Y-70158819D01*
X107434047Y-70158819D02*
X107529285Y-70206438D01*
X107529285Y-70206438D02*
X107576904Y-70254057D01*
X107576904Y-70254057D02*
X107624523Y-70349295D01*
X107624523Y-70349295D02*
X107624523Y-70492152D01*
X107624523Y-70492152D02*
X107576904Y-70587390D01*
X107576904Y-70587390D02*
X107529285Y-70635009D01*
X107529285Y-70635009D02*
X107434047Y-70682628D01*
X107434047Y-70682628D02*
X107053095Y-70682628D01*
X115506667Y-36313200D02*
X115649524Y-36360819D01*
X115649524Y-36360819D02*
X115887619Y-36360819D01*
X115887619Y-36360819D02*
X115982857Y-36313200D01*
X115982857Y-36313200D02*
X116030476Y-36265580D01*
X116030476Y-36265580D02*
X116078095Y-36170342D01*
X116078095Y-36170342D02*
X116078095Y-36075104D01*
X116078095Y-36075104D02*
X116030476Y-35979866D01*
X116030476Y-35979866D02*
X115982857Y-35932247D01*
X115982857Y-35932247D02*
X115887619Y-35884628D01*
X115887619Y-35884628D02*
X115697143Y-35837009D01*
X115697143Y-35837009D02*
X115601905Y-35789390D01*
X115601905Y-35789390D02*
X115554286Y-35741771D01*
X115554286Y-35741771D02*
X115506667Y-35646533D01*
X115506667Y-35646533D02*
X115506667Y-35551295D01*
X115506667Y-35551295D02*
X115554286Y-35456057D01*
X115554286Y-35456057D02*
X115601905Y-35408438D01*
X115601905Y-35408438D02*
X115697143Y-35360819D01*
X115697143Y-35360819D02*
X115935238Y-35360819D01*
X115935238Y-35360819D02*
X116078095Y-35408438D01*
X116411429Y-35360819D02*
X116649524Y-36360819D01*
X116649524Y-36360819D02*
X116840000Y-35646533D01*
X116840000Y-35646533D02*
X117030476Y-36360819D01*
X117030476Y-36360819D02*
X117268572Y-35360819D01*
X118125714Y-35360819D02*
X117649524Y-35360819D01*
X117649524Y-35360819D02*
X117601905Y-35837009D01*
X117601905Y-35837009D02*
X117649524Y-35789390D01*
X117649524Y-35789390D02*
X117744762Y-35741771D01*
X117744762Y-35741771D02*
X117982857Y-35741771D01*
X117982857Y-35741771D02*
X118078095Y-35789390D01*
X118078095Y-35789390D02*
X118125714Y-35837009D01*
X118125714Y-35837009D02*
X118173333Y-35932247D01*
X118173333Y-35932247D02*
X118173333Y-36170342D01*
X118173333Y-36170342D02*
X118125714Y-36265580D01*
X118125714Y-36265580D02*
X118078095Y-36313200D01*
X118078095Y-36313200D02*
X117982857Y-36360819D01*
X117982857Y-36360819D02*
X117744762Y-36360819D01*
X117744762Y-36360819D02*
X117649524Y-36313200D01*
X117649524Y-36313200D02*
X117601905Y-36265580D01*
X117078095Y-51108819D02*
X116601905Y-51108819D01*
X116601905Y-51108819D02*
X116554286Y-51585009D01*
X116554286Y-51585009D02*
X116601905Y-51537390D01*
X116601905Y-51537390D02*
X116697143Y-51489771D01*
X116697143Y-51489771D02*
X116935238Y-51489771D01*
X116935238Y-51489771D02*
X117030476Y-51537390D01*
X117030476Y-51537390D02*
X117078095Y-51585009D01*
X117078095Y-51585009D02*
X117125714Y-51680247D01*
X117125714Y-51680247D02*
X117125714Y-51918342D01*
X117125714Y-51918342D02*
X117078095Y-52013580D01*
X117078095Y-52013580D02*
X117030476Y-52061200D01*
X117030476Y-52061200D02*
X116935238Y-52108819D01*
X116935238Y-52108819D02*
X116697143Y-52108819D01*
X116697143Y-52108819D02*
X116601905Y-52061200D01*
X116601905Y-52061200D02*
X116554286Y-52013580D01*
X184380666Y-32350819D02*
X184380666Y-33065104D01*
X184380666Y-33065104D02*
X184333047Y-33207961D01*
X184333047Y-33207961D02*
X184237809Y-33303200D01*
X184237809Y-33303200D02*
X184094952Y-33350819D01*
X184094952Y-33350819D02*
X183999714Y-33350819D01*
X184761619Y-32350819D02*
X185380666Y-32350819D01*
X185380666Y-32350819D02*
X185047333Y-32731771D01*
X185047333Y-32731771D02*
X185190190Y-32731771D01*
X185190190Y-32731771D02*
X185285428Y-32779390D01*
X185285428Y-32779390D02*
X185333047Y-32827009D01*
X185333047Y-32827009D02*
X185380666Y-32922247D01*
X185380666Y-32922247D02*
X185380666Y-33160342D01*
X185380666Y-33160342D02*
X185333047Y-33255580D01*
X185333047Y-33255580D02*
X185285428Y-33303200D01*
X185285428Y-33303200D02*
X185190190Y-33350819D01*
X185190190Y-33350819D02*
X184904476Y-33350819D01*
X184904476Y-33350819D02*
X184809238Y-33303200D01*
X184809238Y-33303200D02*
X184761619Y-33255580D01*
X158130476Y-93463200D02*
X158273333Y-93510819D01*
X158273333Y-93510819D02*
X158511428Y-93510819D01*
X158511428Y-93510819D02*
X158606666Y-93463200D01*
X158606666Y-93463200D02*
X158654285Y-93415580D01*
X158654285Y-93415580D02*
X158701904Y-93320342D01*
X158701904Y-93320342D02*
X158701904Y-93225104D01*
X158701904Y-93225104D02*
X158654285Y-93129866D01*
X158654285Y-93129866D02*
X158606666Y-93082247D01*
X158606666Y-93082247D02*
X158511428Y-93034628D01*
X158511428Y-93034628D02*
X158320952Y-92987009D01*
X158320952Y-92987009D02*
X158225714Y-92939390D01*
X158225714Y-92939390D02*
X158178095Y-92891771D01*
X158178095Y-92891771D02*
X158130476Y-92796533D01*
X158130476Y-92796533D02*
X158130476Y-92701295D01*
X158130476Y-92701295D02*
X158178095Y-92606057D01*
X158178095Y-92606057D02*
X158225714Y-92558438D01*
X158225714Y-92558438D02*
X158320952Y-92510819D01*
X158320952Y-92510819D02*
X158559047Y-92510819D01*
X158559047Y-92510819D02*
X158701904Y-92558438D01*
X159035238Y-92510819D02*
X159273333Y-93510819D01*
X159273333Y-93510819D02*
X159463809Y-92796533D01*
X159463809Y-92796533D02*
X159654285Y-93510819D01*
X159654285Y-93510819D02*
X159892381Y-92510819D01*
X160178095Y-92510819D02*
X160797142Y-92510819D01*
X160797142Y-92510819D02*
X160463809Y-92891771D01*
X160463809Y-92891771D02*
X160606666Y-92891771D01*
X160606666Y-92891771D02*
X160701904Y-92939390D01*
X160701904Y-92939390D02*
X160749523Y-92987009D01*
X160749523Y-92987009D02*
X160797142Y-93082247D01*
X160797142Y-93082247D02*
X160797142Y-93320342D01*
X160797142Y-93320342D02*
X160749523Y-93415580D01*
X160749523Y-93415580D02*
X160701904Y-93463200D01*
X160701904Y-93463200D02*
X160606666Y-93510819D01*
X160606666Y-93510819D02*
X160320952Y-93510819D01*
X160320952Y-93510819D02*
X160225714Y-93463200D01*
X160225714Y-93463200D02*
X160178095Y-93415580D01*
X161130476Y-92510819D02*
X161797142Y-92510819D01*
X161797142Y-92510819D02*
X161368571Y-93510819D01*
X159654286Y-109258819D02*
X159654286Y-108258819D01*
X159654286Y-108258819D02*
X160225714Y-109258819D01*
X160225714Y-109258819D02*
X160225714Y-108258819D01*
X67405476Y-55363200D02*
X67548333Y-55410819D01*
X67548333Y-55410819D02*
X67786428Y-55410819D01*
X67786428Y-55410819D02*
X67881666Y-55363200D01*
X67881666Y-55363200D02*
X67929285Y-55315580D01*
X67929285Y-55315580D02*
X67976904Y-55220342D01*
X67976904Y-55220342D02*
X67976904Y-55125104D01*
X67976904Y-55125104D02*
X67929285Y-55029866D01*
X67929285Y-55029866D02*
X67881666Y-54982247D01*
X67881666Y-54982247D02*
X67786428Y-54934628D01*
X67786428Y-54934628D02*
X67595952Y-54887009D01*
X67595952Y-54887009D02*
X67500714Y-54839390D01*
X67500714Y-54839390D02*
X67453095Y-54791771D01*
X67453095Y-54791771D02*
X67405476Y-54696533D01*
X67405476Y-54696533D02*
X67405476Y-54601295D01*
X67405476Y-54601295D02*
X67453095Y-54506057D01*
X67453095Y-54506057D02*
X67500714Y-54458438D01*
X67500714Y-54458438D02*
X67595952Y-54410819D01*
X67595952Y-54410819D02*
X67834047Y-54410819D01*
X67834047Y-54410819D02*
X67976904Y-54458438D01*
X68310238Y-54410819D02*
X68548333Y-55410819D01*
X68548333Y-55410819D02*
X68738809Y-54696533D01*
X68738809Y-54696533D02*
X68929285Y-55410819D01*
X68929285Y-55410819D02*
X69167381Y-54410819D01*
X70072142Y-55410819D02*
X69500714Y-55410819D01*
X69786428Y-55410819D02*
X69786428Y-54410819D01*
X69786428Y-54410819D02*
X69691190Y-54553676D01*
X69691190Y-54553676D02*
X69595952Y-54648914D01*
X69595952Y-54648914D02*
X69500714Y-54696533D01*
X70453095Y-54506057D02*
X70500714Y-54458438D01*
X70500714Y-54458438D02*
X70595952Y-54410819D01*
X70595952Y-54410819D02*
X70834047Y-54410819D01*
X70834047Y-54410819D02*
X70929285Y-54458438D01*
X70929285Y-54458438D02*
X70976904Y-54506057D01*
X70976904Y-54506057D02*
X71024523Y-54601295D01*
X71024523Y-54601295D02*
X71024523Y-54696533D01*
X71024523Y-54696533D02*
X70976904Y-54839390D01*
X70976904Y-54839390D02*
X70405476Y-55410819D01*
X70405476Y-55410819D02*
X71024523Y-55410819D01*
X68786429Y-70158819D02*
X69024524Y-71158819D01*
X69024524Y-71158819D02*
X69215000Y-70444533D01*
X69215000Y-70444533D02*
X69405476Y-71158819D01*
X69405476Y-71158819D02*
X69643572Y-70158819D01*
X48355476Y-55363200D02*
X48498333Y-55410819D01*
X48498333Y-55410819D02*
X48736428Y-55410819D01*
X48736428Y-55410819D02*
X48831666Y-55363200D01*
X48831666Y-55363200D02*
X48879285Y-55315580D01*
X48879285Y-55315580D02*
X48926904Y-55220342D01*
X48926904Y-55220342D02*
X48926904Y-55125104D01*
X48926904Y-55125104D02*
X48879285Y-55029866D01*
X48879285Y-55029866D02*
X48831666Y-54982247D01*
X48831666Y-54982247D02*
X48736428Y-54934628D01*
X48736428Y-54934628D02*
X48545952Y-54887009D01*
X48545952Y-54887009D02*
X48450714Y-54839390D01*
X48450714Y-54839390D02*
X48403095Y-54791771D01*
X48403095Y-54791771D02*
X48355476Y-54696533D01*
X48355476Y-54696533D02*
X48355476Y-54601295D01*
X48355476Y-54601295D02*
X48403095Y-54506057D01*
X48403095Y-54506057D02*
X48450714Y-54458438D01*
X48450714Y-54458438D02*
X48545952Y-54410819D01*
X48545952Y-54410819D02*
X48784047Y-54410819D01*
X48784047Y-54410819D02*
X48926904Y-54458438D01*
X49260238Y-54410819D02*
X49498333Y-55410819D01*
X49498333Y-55410819D02*
X49688809Y-54696533D01*
X49688809Y-54696533D02*
X49879285Y-55410819D01*
X49879285Y-55410819D02*
X50117381Y-54410819D01*
X51022142Y-55410819D02*
X50450714Y-55410819D01*
X50736428Y-55410819D02*
X50736428Y-54410819D01*
X50736428Y-54410819D02*
X50641190Y-54553676D01*
X50641190Y-54553676D02*
X50545952Y-54648914D01*
X50545952Y-54648914D02*
X50450714Y-54696533D01*
X51974523Y-55410819D02*
X51403095Y-55410819D01*
X51688809Y-55410819D02*
X51688809Y-54410819D01*
X51688809Y-54410819D02*
X51593571Y-54553676D01*
X51593571Y-54553676D02*
X51498333Y-54648914D01*
X51498333Y-54648914D02*
X51403095Y-54696533D01*
X50545952Y-71254057D02*
X50450714Y-71206438D01*
X50450714Y-71206438D02*
X50355476Y-71111200D01*
X50355476Y-71111200D02*
X50212619Y-70968342D01*
X50212619Y-70968342D02*
X50117381Y-70920723D01*
X50117381Y-70920723D02*
X50022143Y-70920723D01*
X50069762Y-71158819D02*
X49974524Y-71111200D01*
X49974524Y-71111200D02*
X49879286Y-71015961D01*
X49879286Y-71015961D02*
X49831667Y-70825485D01*
X49831667Y-70825485D02*
X49831667Y-70492152D01*
X49831667Y-70492152D02*
X49879286Y-70301676D01*
X49879286Y-70301676D02*
X49974524Y-70206438D01*
X49974524Y-70206438D02*
X50069762Y-70158819D01*
X50069762Y-70158819D02*
X50260238Y-70158819D01*
X50260238Y-70158819D02*
X50355476Y-70206438D01*
X50355476Y-70206438D02*
X50450714Y-70301676D01*
X50450714Y-70301676D02*
X50498333Y-70492152D01*
X50498333Y-70492152D02*
X50498333Y-70825485D01*
X50498333Y-70825485D02*
X50450714Y-71015961D01*
X50450714Y-71015961D02*
X50355476Y-71111200D01*
X50355476Y-71111200D02*
X50260238Y-71158819D01*
X50260238Y-71158819D02*
X50069762Y-71158819D01*
X39306667Y-36313200D02*
X39449524Y-36360819D01*
X39449524Y-36360819D02*
X39687619Y-36360819D01*
X39687619Y-36360819D02*
X39782857Y-36313200D01*
X39782857Y-36313200D02*
X39830476Y-36265580D01*
X39830476Y-36265580D02*
X39878095Y-36170342D01*
X39878095Y-36170342D02*
X39878095Y-36075104D01*
X39878095Y-36075104D02*
X39830476Y-35979866D01*
X39830476Y-35979866D02*
X39782857Y-35932247D01*
X39782857Y-35932247D02*
X39687619Y-35884628D01*
X39687619Y-35884628D02*
X39497143Y-35837009D01*
X39497143Y-35837009D02*
X39401905Y-35789390D01*
X39401905Y-35789390D02*
X39354286Y-35741771D01*
X39354286Y-35741771D02*
X39306667Y-35646533D01*
X39306667Y-35646533D02*
X39306667Y-35551295D01*
X39306667Y-35551295D02*
X39354286Y-35456057D01*
X39354286Y-35456057D02*
X39401905Y-35408438D01*
X39401905Y-35408438D02*
X39497143Y-35360819D01*
X39497143Y-35360819D02*
X39735238Y-35360819D01*
X39735238Y-35360819D02*
X39878095Y-35408438D01*
X40211429Y-35360819D02*
X40449524Y-36360819D01*
X40449524Y-36360819D02*
X40640000Y-35646533D01*
X40640000Y-35646533D02*
X40830476Y-36360819D01*
X40830476Y-36360819D02*
X41068572Y-35360819D01*
X41973333Y-36360819D02*
X41401905Y-36360819D01*
X41687619Y-36360819D02*
X41687619Y-35360819D01*
X41687619Y-35360819D02*
X41592381Y-35503676D01*
X41592381Y-35503676D02*
X41497143Y-35598914D01*
X41497143Y-35598914D02*
X41401905Y-35646533D01*
X40925714Y-52108819D02*
X40354286Y-52108819D01*
X40640000Y-52108819D02*
X40640000Y-51108819D01*
X40640000Y-51108819D02*
X40544762Y-51251676D01*
X40544762Y-51251676D02*
X40449524Y-51346914D01*
X40449524Y-51346914D02*
X40354286Y-51394533D01*
X205755476Y-74413200D02*
X205898333Y-74460819D01*
X205898333Y-74460819D02*
X206136428Y-74460819D01*
X206136428Y-74460819D02*
X206231666Y-74413200D01*
X206231666Y-74413200D02*
X206279285Y-74365580D01*
X206279285Y-74365580D02*
X206326904Y-74270342D01*
X206326904Y-74270342D02*
X206326904Y-74175104D01*
X206326904Y-74175104D02*
X206279285Y-74079866D01*
X206279285Y-74079866D02*
X206231666Y-74032247D01*
X206231666Y-74032247D02*
X206136428Y-73984628D01*
X206136428Y-73984628D02*
X205945952Y-73937009D01*
X205945952Y-73937009D02*
X205850714Y-73889390D01*
X205850714Y-73889390D02*
X205803095Y-73841771D01*
X205803095Y-73841771D02*
X205755476Y-73746533D01*
X205755476Y-73746533D02*
X205755476Y-73651295D01*
X205755476Y-73651295D02*
X205803095Y-73556057D01*
X205803095Y-73556057D02*
X205850714Y-73508438D01*
X205850714Y-73508438D02*
X205945952Y-73460819D01*
X205945952Y-73460819D02*
X206184047Y-73460819D01*
X206184047Y-73460819D02*
X206326904Y-73508438D01*
X206660238Y-73460819D02*
X206898333Y-74460819D01*
X206898333Y-74460819D02*
X207088809Y-73746533D01*
X207088809Y-73746533D02*
X207279285Y-74460819D01*
X207279285Y-74460819D02*
X207517381Y-73460819D01*
X207850714Y-73556057D02*
X207898333Y-73508438D01*
X207898333Y-73508438D02*
X207993571Y-73460819D01*
X207993571Y-73460819D02*
X208231666Y-73460819D01*
X208231666Y-73460819D02*
X208326904Y-73508438D01*
X208326904Y-73508438D02*
X208374523Y-73556057D01*
X208374523Y-73556057D02*
X208422142Y-73651295D01*
X208422142Y-73651295D02*
X208422142Y-73746533D01*
X208422142Y-73746533D02*
X208374523Y-73889390D01*
X208374523Y-73889390D02*
X207803095Y-74460819D01*
X207803095Y-74460819D02*
X208422142Y-74460819D01*
X208898333Y-74460819D02*
X209088809Y-74460819D01*
X209088809Y-74460819D02*
X209184047Y-74413200D01*
X209184047Y-74413200D02*
X209231666Y-74365580D01*
X209231666Y-74365580D02*
X209326904Y-74222723D01*
X209326904Y-74222723D02*
X209374523Y-74032247D01*
X209374523Y-74032247D02*
X209374523Y-73651295D01*
X209374523Y-73651295D02*
X209326904Y-73556057D01*
X209326904Y-73556057D02*
X209279285Y-73508438D01*
X209279285Y-73508438D02*
X209184047Y-73460819D01*
X209184047Y-73460819D02*
X208993571Y-73460819D01*
X208993571Y-73460819D02*
X208898333Y-73508438D01*
X208898333Y-73508438D02*
X208850714Y-73556057D01*
X208850714Y-73556057D02*
X208803095Y-73651295D01*
X208803095Y-73651295D02*
X208803095Y-73889390D01*
X208803095Y-73889390D02*
X208850714Y-73984628D01*
X208850714Y-73984628D02*
X208898333Y-74032247D01*
X208898333Y-74032247D02*
X208993571Y-74079866D01*
X208993571Y-74079866D02*
X209184047Y-74079866D01*
X209184047Y-74079866D02*
X209279285Y-74032247D01*
X209279285Y-74032247D02*
X209326904Y-73984628D01*
X209326904Y-73984628D02*
X209374523Y-73889390D01*
X207874523Y-90208819D02*
X207398333Y-90208819D01*
X207398333Y-90208819D02*
X207398333Y-89208819D01*
D12*
%TO.C,SW35*%
X128825000Y-93945000D02*
X128825000Y-107915000D01*
X128825000Y-107915000D02*
X114855000Y-107915000D01*
X114855000Y-93945000D02*
X128825000Y-93945000D01*
X114855000Y-107915000D02*
X114855000Y-93945000D01*
%TO.C,J1*%
X198650000Y-30400000D02*
X198650000Y-29070000D01*
X198650000Y-29070000D02*
X199980000Y-29070000D01*
X201250000Y-31730000D02*
X206390000Y-31730000D01*
X201250000Y-29070000D02*
X206390000Y-29070000D01*
X206390000Y-31730000D02*
X206390000Y-29070000D01*
X201250000Y-31730000D02*
X201250000Y-29070000D01*
%TO.C,SW7*%
X147955000Y-50765000D02*
X147955000Y-36795000D01*
X161925000Y-36795000D02*
X161925000Y-50765000D01*
X147955000Y-36795000D02*
X161925000Y-36795000D01*
X161925000Y-50765000D02*
X147955000Y-50765000D01*
%TO.C,SW13*%
X81280000Y-69815000D02*
X81280000Y-55845000D01*
X95250000Y-55845000D02*
X95250000Y-69815000D01*
X81280000Y-55845000D02*
X95250000Y-55845000D01*
X95250000Y-69815000D02*
X81280000Y-69815000D01*
%TO.C,SW33*%
X90725000Y-93945000D02*
X90725000Y-107915000D01*
X76755000Y-107915000D02*
X76755000Y-93945000D01*
X90725000Y-107915000D02*
X76755000Y-107915000D01*
X76755000Y-93945000D02*
X90725000Y-93945000D01*
%TO.C,SW23*%
X86280000Y-88865000D02*
X86280000Y-74895000D01*
X100250000Y-74895000D02*
X100250000Y-88865000D01*
X86280000Y-74895000D02*
X100250000Y-74895000D01*
X100250000Y-88865000D02*
X86280000Y-88865000D01*
%TO.C,SW16*%
X138430000Y-69815000D02*
X138430000Y-55845000D01*
X152400000Y-69815000D02*
X138430000Y-69815000D01*
X138430000Y-55845000D02*
X152400000Y-55845000D01*
X152400000Y-55845000D02*
X152400000Y-69815000D01*
%TO.C,SW9*%
X186055000Y-50765000D02*
X186055000Y-36795000D01*
X186055000Y-36795000D02*
X200025000Y-36795000D01*
X200025000Y-50765000D02*
X186055000Y-50765000D01*
X200025000Y-36795000D02*
X200025000Y-50765000D01*
%TO.C,SW20*%
X214630000Y-55845000D02*
X228600000Y-55845000D01*
X228600000Y-69815000D02*
X214630000Y-69815000D01*
X228600000Y-55845000D02*
X228600000Y-69815000D01*
X214630000Y-69815000D02*
X214630000Y-55845000D01*
%TO.C,SW36*%
X133905000Y-93945000D02*
X147875000Y-93945000D01*
X147875000Y-107915000D02*
X133905000Y-107915000D01*
X133905000Y-107915000D02*
X133905000Y-93945000D01*
X147875000Y-93945000D02*
X147875000Y-107915000D01*
%TO.C,SW39*%
X191055000Y-107915000D02*
X191055000Y-93945000D01*
X191055000Y-93945000D02*
X205025000Y-93945000D01*
X205025000Y-107915000D02*
X191055000Y-107915000D01*
X205025000Y-93945000D02*
X205025000Y-107915000D01*
%TO.C,SW6*%
X128905000Y-50765000D02*
X128905000Y-36795000D01*
X142875000Y-50765000D02*
X128905000Y-50765000D01*
X142875000Y-36795000D02*
X142875000Y-50765000D01*
X128905000Y-36795000D02*
X142875000Y-36795000D01*
%TO.C,SW32*%
X71675000Y-93945000D02*
X71675000Y-107915000D01*
X71675000Y-107915000D02*
X57705000Y-107915000D01*
X57705000Y-93945000D02*
X71675000Y-93945000D01*
X57705000Y-107915000D02*
X57705000Y-93945000D01*
%TO.C,SW4*%
X104775000Y-36795000D02*
X104775000Y-50765000D01*
X90805000Y-36795000D02*
X104775000Y-36795000D01*
X90805000Y-50765000D02*
X90805000Y-36795000D01*
X104775000Y-50765000D02*
X90805000Y-50765000D01*
%TO.C,SW27*%
X162480000Y-74895000D02*
X176450000Y-74895000D01*
X176450000Y-74895000D02*
X176450000Y-88865000D01*
X176450000Y-88865000D02*
X162480000Y-88865000D01*
X162480000Y-88865000D02*
X162480000Y-74895000D01*
%TO.C,SW38*%
X185975000Y-93945000D02*
X185975000Y-107915000D01*
X172005000Y-93945000D02*
X185975000Y-93945000D01*
X172005000Y-107915000D02*
X172005000Y-93945000D01*
X185975000Y-107915000D02*
X172005000Y-107915000D01*
%TO.C,SW22*%
X67230000Y-88865000D02*
X67230000Y-74895000D01*
X81200000Y-88865000D02*
X67230000Y-88865000D01*
X67230000Y-74895000D02*
X81200000Y-74895000D01*
X81200000Y-74895000D02*
X81200000Y-88865000D01*
%TO.C,SW28*%
X181530000Y-88865000D02*
X181530000Y-74895000D01*
X195500000Y-88865000D02*
X181530000Y-88865000D01*
X195500000Y-74895000D02*
X195500000Y-88865000D01*
X181530000Y-74895000D02*
X195500000Y-74895000D01*
%TO.C,SW30*%
X233600000Y-74895000D02*
X233600000Y-88865000D01*
X219630000Y-74895000D02*
X233600000Y-74895000D01*
X219630000Y-88865000D02*
X219630000Y-74895000D01*
X233600000Y-88865000D02*
X219630000Y-88865000D01*
%TO.C,SW19*%
X209550000Y-55845000D02*
X209550000Y-69815000D01*
X209550000Y-69815000D02*
X195580000Y-69815000D01*
X195580000Y-55845000D02*
X209550000Y-55845000D01*
X195580000Y-69815000D02*
X195580000Y-55845000D01*
%TO.C,SW15*%
X133350000Y-69815000D02*
X119380000Y-69815000D01*
X119380000Y-69815000D02*
X119380000Y-55845000D01*
X119380000Y-55845000D02*
X133350000Y-55845000D01*
X133350000Y-55845000D02*
X133350000Y-69815000D01*
%TO.C,SW25*%
X124380000Y-88865000D02*
X124380000Y-74895000D01*
X138350000Y-88865000D02*
X124380000Y-88865000D01*
X138350000Y-74895000D02*
X138350000Y-88865000D01*
X124380000Y-74895000D02*
X138350000Y-74895000D01*
%TO.C,SW40*%
X210105000Y-93945000D02*
X224075000Y-93945000D01*
X224075000Y-107915000D02*
X210105000Y-107915000D01*
X224075000Y-93945000D02*
X224075000Y-107915000D01*
X210105000Y-107915000D02*
X210105000Y-93945000D01*
%TO.C,J2*%
X228090000Y-31730000D02*
X228090000Y-29070000D01*
X210250000Y-31730000D02*
X228090000Y-31730000D01*
X210250000Y-31730000D02*
X210250000Y-29070000D01*
X207650000Y-29070000D02*
X208980000Y-29070000D01*
X210250000Y-29070000D02*
X228090000Y-29070000D01*
X207650000Y-30400000D02*
X207650000Y-29070000D01*
%TO.C,SW18*%
X190500000Y-69815000D02*
X176530000Y-69815000D01*
X176530000Y-69815000D02*
X176530000Y-55845000D01*
X176530000Y-55845000D02*
X190500000Y-55845000D01*
X190500000Y-55845000D02*
X190500000Y-69815000D01*
%TO.C,SW10*%
X219075000Y-50765000D02*
X205105000Y-50765000D01*
X205105000Y-50765000D02*
X205105000Y-36795000D01*
X205105000Y-36795000D02*
X219075000Y-36795000D01*
X219075000Y-36795000D02*
X219075000Y-50765000D01*
%TO.C,SW26*%
X143430000Y-74895000D02*
X157400000Y-74895000D01*
X157400000Y-88865000D02*
X143430000Y-88865000D01*
X157400000Y-74895000D02*
X157400000Y-88865000D01*
X143430000Y-88865000D02*
X143430000Y-74895000D01*
%TO.C,SW21*%
X62150000Y-88865000D02*
X48180000Y-88865000D01*
X62150000Y-74895000D02*
X62150000Y-88865000D01*
X48180000Y-74895000D02*
X62150000Y-74895000D01*
X48180000Y-88865000D02*
X48180000Y-74895000D01*
%TO.C,SW2*%
X66675000Y-50765000D02*
X52705000Y-50765000D01*
X66675000Y-36795000D02*
X66675000Y-50765000D01*
X52705000Y-36795000D02*
X66675000Y-36795000D01*
X52705000Y-50765000D02*
X52705000Y-36795000D01*
%TO.C,SW34*%
X95805000Y-93945000D02*
X109775000Y-93945000D01*
X109775000Y-107915000D02*
X95805000Y-107915000D01*
X109775000Y-93945000D02*
X109775000Y-107915000D01*
X95805000Y-107915000D02*
X95805000Y-93945000D01*
%TO.C,SW17*%
X171450000Y-55845000D02*
X171450000Y-69815000D01*
X157480000Y-69815000D02*
X157480000Y-55845000D01*
X157480000Y-55845000D02*
X171450000Y-55845000D01*
X171450000Y-69815000D02*
X157480000Y-69815000D01*
%TO.C,SW3*%
X85725000Y-36795000D02*
X85725000Y-50765000D01*
X71755000Y-50765000D02*
X71755000Y-36795000D01*
X85725000Y-50765000D02*
X71755000Y-50765000D01*
X71755000Y-36795000D02*
X85725000Y-36795000D01*
%TO.C,D1*%
X228520000Y-44634000D02*
X232580000Y-44634000D01*
X228520000Y-42364000D02*
X228520000Y-44634000D01*
X232580000Y-42364000D02*
X228520000Y-42364000D01*
%TO.C,SW8*%
X167005000Y-36795000D02*
X180975000Y-36795000D01*
X167005000Y-50765000D02*
X167005000Y-36795000D01*
X180975000Y-50765000D02*
X167005000Y-50765000D01*
X180975000Y-36795000D02*
X180975000Y-50765000D01*
%TO.C,SW24*%
X105330000Y-74895000D02*
X119300000Y-74895000D01*
X119300000Y-74895000D02*
X119300000Y-88865000D01*
X105330000Y-88865000D02*
X105330000Y-74895000D01*
X119300000Y-88865000D02*
X105330000Y-88865000D01*
%TO.C,SW31*%
X38655000Y-107915000D02*
X38655000Y-93945000D01*
X52625000Y-107915000D02*
X38655000Y-107915000D01*
X38655000Y-93945000D02*
X52625000Y-93945000D01*
X52625000Y-93945000D02*
X52625000Y-107915000D01*
%TO.C,SW14*%
X100330000Y-55845000D02*
X114300000Y-55845000D01*
X100330000Y-69815000D02*
X100330000Y-55845000D01*
X114300000Y-69815000D02*
X100330000Y-69815000D01*
X114300000Y-55845000D02*
X114300000Y-69815000D01*
%TO.C,SW5*%
X109855000Y-50765000D02*
X109855000Y-36795000D01*
X123825000Y-50765000D02*
X109855000Y-50765000D01*
X123825000Y-36795000D02*
X123825000Y-50765000D01*
X109855000Y-36795000D02*
X123825000Y-36795000D01*
%TO.C,J3*%
X187150000Y-31730000D02*
X197370000Y-31730000D01*
X184550000Y-29070000D02*
X185880000Y-29070000D01*
X187150000Y-29070000D02*
X197370000Y-29070000D01*
X187150000Y-31730000D02*
X187150000Y-29070000D01*
X184550000Y-30400000D02*
X184550000Y-29070000D01*
X197370000Y-31730000D02*
X197370000Y-29070000D01*
%TO.C,SW37*%
X152955000Y-107915000D02*
X152955000Y-93945000D01*
X152955000Y-93945000D02*
X166925000Y-93945000D01*
X166925000Y-107915000D02*
X152955000Y-107915000D01*
X166925000Y-93945000D02*
X166925000Y-107915000D01*
%TO.C,SW12*%
X76200000Y-69815000D02*
X62230000Y-69815000D01*
X62230000Y-69815000D02*
X62230000Y-55845000D01*
X62230000Y-55845000D02*
X76200000Y-55845000D01*
X76200000Y-55845000D02*
X76200000Y-69815000D01*
%TO.C,SW11*%
X57150000Y-55845000D02*
X57150000Y-69815000D01*
X57150000Y-69815000D02*
X43180000Y-69815000D01*
X43180000Y-55845000D02*
X57150000Y-55845000D01*
X43180000Y-69815000D02*
X43180000Y-55845000D01*
%TO.C,SW1*%
X33655000Y-36795000D02*
X47625000Y-36795000D01*
X33655000Y-50765000D02*
X33655000Y-36795000D01*
X47625000Y-50765000D02*
X33655000Y-50765000D01*
X47625000Y-36795000D02*
X47625000Y-50765000D01*
%TO.C,SW29*%
X200580000Y-74895000D02*
X214550000Y-74895000D01*
X200580000Y-88865000D02*
X200580000Y-74895000D01*
X214550000Y-88865000D02*
X200580000Y-88865000D01*
X214550000Y-74895000D02*
X214550000Y-88865000D01*
%TD*%
M02*
