M48
; DRILL file {KiCad 9.0.2} date 2025-07-24T10:58:59+0100
; FORMAT={-:-/ absolute / metric / decimal}
; #@! TF.CreationDate,2025-07-24T10:58:59+01:00
; #@! TF.GenerationSoftware,Kicad,Pcbnew,9.0.2
; #@! TF.FileFunction,NonPlated,1,2,NPTH
FMAT,2
METRIC
; #@! TA.AperFunction,NonPlated,NPTH,ComponentDrill
T1C1.700
; #@! TA.AperFunction,NonPlated,NPTH,ComponentDrill
T2C4.000
%
G90
G05
T1
X35.56Y-43.78
X40.56Y-100.93
X45.085Y-62.83
X45.72Y-43.78
X50.085Y-81.88
X50.72Y-100.93
X54.61Y-43.78
X55.245Y-62.83
X59.61Y-100.93
X60.245Y-81.88
X64.135Y-62.83
X64.77Y-43.78
X69.135Y-81.88
X69.77Y-100.93
X73.66Y-43.78
X74.295Y-62.83
X78.66Y-100.93
X79.295Y-81.88
X83.185Y-62.83
X83.82Y-43.78
X88.185Y-81.88
X88.82Y-100.93
X92.71Y-43.78
X93.345Y-62.83
X97.71Y-100.93
X98.345Y-81.88
X102.235Y-62.83
X102.87Y-43.78
X107.235Y-81.88
X107.87Y-100.93
X111.76Y-43.78
X112.395Y-62.83
X116.76Y-100.93
X117.395Y-81.88
X121.285Y-62.83
X121.92Y-43.78
X126.285Y-81.88
X126.92Y-100.93
X130.81Y-43.78
X131.445Y-62.83
X135.81Y-100.93
X136.445Y-81.88
X140.335Y-62.83
X140.97Y-43.78
X145.335Y-81.88
X145.97Y-100.93
X149.86Y-43.78
X150.495Y-62.83
X154.86Y-100.93
X155.495Y-81.88
X159.385Y-62.83
X160.02Y-43.78
X164.385Y-81.88
X165.02Y-100.93
X168.91Y-43.78
X169.545Y-62.83
X173.91Y-100.93
X174.545Y-81.88
X178.435Y-62.83
X179.07Y-43.78
X183.435Y-81.88
X184.07Y-100.93
X187.96Y-43.78
X188.595Y-62.83
X192.96Y-100.93
X193.595Y-81.88
X197.485Y-62.83
X198.12Y-43.78
X202.485Y-81.88
X203.12Y-100.93
X207.01Y-43.78
X207.645Y-62.83
X212.01Y-100.93
X212.645Y-81.88
X216.535Y-62.83
X217.17Y-43.78
X221.535Y-81.88
X222.17Y-100.93
X226.695Y-62.83
X231.695Y-81.88
T2
X40.64Y-43.78
X45.64Y-100.93
X50.165Y-62.83
X55.165Y-81.88
X59.69Y-43.78
X64.69Y-100.93
X69.215Y-62.83
X74.215Y-81.88
X78.74Y-43.78
X83.74Y-100.93
X88.265Y-62.83
X93.265Y-81.88
X97.79Y-43.78
X102.79Y-100.93
X107.315Y-62.83
X112.315Y-81.88
X116.84Y-43.78
X121.84Y-100.93
X126.365Y-62.83
X131.365Y-81.88
X135.89Y-43.78
X140.89Y-100.93
X145.415Y-62.83
X150.415Y-81.88
X154.94Y-43.78
X159.94Y-100.93
X164.465Y-62.83
X169.465Y-81.88
X173.99Y-43.78
X178.99Y-100.93
X183.515Y-62.83
X188.515Y-81.88
X193.04Y-43.78
X198.04Y-100.93
X202.565Y-62.83
X207.565Y-81.88
X212.09Y-43.78
X217.09Y-100.93
X221.615Y-62.83
X226.615Y-81.88
M30
