M48
; DRILL file {KiCad 9.0.2} date 2025-07-24T10:58:59+0100
; FORMAT={-:-/ absolute / metric / decimal}
; #@! TF.CreationDate,2025-07-24T10:58:59+01:00
; #@! TF.GenerationSoftware,Kicad,Pcbnew,9.0.2
; #@! TF.FileFunction,Plated,1,2,PTH
FMAT,2
METRIC
; #@! TA.AperFunction,Plated,PTH,ViaDrill
T1C0.400
; #@! TA.AperFunction,Plated,PTH,ComponentDrill
T2C1.000
; #@! TA.AperFunction,Plated,PTH,ComponentDrill
T3C1.500
; #@! TA.AperFunction,Plated,PTH,ComponentDrill
T4C3.200
%
G90
G05
T1
X222.56Y-91.062
T2
X185.88Y-30.4
X188.42Y-30.4
X190.96Y-30.4
X193.5Y-30.4
X196.04Y-30.4
X199.98Y-30.4
X202.52Y-30.4
X205.06Y-30.4
X208.98Y-30.4
X211.52Y-30.4
X214.06Y-30.4
X216.6Y-30.4
X219.14Y-30.4
X221.68Y-30.4
X224.22Y-30.4
X226.76Y-30.4
T3
X36.83Y-41.24
X41.83Y-98.39
X43.18Y-38.7
X46.355Y-60.29
X48.18Y-95.85
X51.355Y-79.34
X52.705Y-57.75
X55.88Y-41.24
X57.705Y-76.8
X60.88Y-98.39
X62.23Y-38.7
X65.405Y-60.29
X67.23Y-95.85
X70.405Y-79.34
X71.755Y-57.75
X74.93Y-41.24
X76.755Y-76.8
X79.93Y-98.39
X81.28Y-38.7
X84.455Y-60.29
X86.28Y-95.85
X89.455Y-79.34
X90.805Y-57.75
X93.98Y-41.24
X95.805Y-76.8
X98.98Y-98.39
X100.33Y-38.7
X103.505Y-60.29
X105.33Y-95.85
X108.505Y-79.34
X109.855Y-57.75
X113.03Y-41.24
X114.855Y-76.8
X118.03Y-98.39
X119.38Y-38.7
X122.555Y-60.29
X124.38Y-95.85
X127.555Y-79.34
X128.905Y-57.75
X132.08Y-41.24
X133.905Y-76.8
X137.08Y-98.39
X138.43Y-38.7
X141.605Y-60.29
X143.43Y-95.85
X146.605Y-79.34
X147.955Y-57.75
X151.13Y-41.24
X152.955Y-76.8
X156.13Y-98.39
X157.48Y-38.7
X160.655Y-60.29
X162.48Y-95.85
X165.655Y-79.34
X167.005Y-57.75
X170.18Y-41.24
X172.005Y-76.8
X175.18Y-98.39
X176.53Y-38.7
X179.705Y-60.29
X181.53Y-95.85
X184.705Y-79.34
X186.055Y-57.75
X189.23Y-41.24
X191.055Y-76.8
X194.23Y-98.39
X195.58Y-38.7
X198.755Y-60.29
X200.58Y-95.85
X203.755Y-79.34
X205.105Y-57.75
X208.28Y-41.24
X210.105Y-76.8
X213.28Y-98.39
X214.63Y-38.7
X217.805Y-60.29
X219.63Y-95.85
X222.805Y-79.34
X224.155Y-57.75
X229.155Y-76.8
T4
X30.58Y-30.4
X30.58Y-114.2
X133.98Y-30.4
X133.98Y-114.2
X237.38Y-30.4
X237.38Y-114.2
M30
