M48
; DRILL file {KiCad 9.0.3} date 2025-08-02T16:42:38+0100
; FORMAT={-:-/ absolute / metric / decimal}
; #@! TF.CreationDate,2025-08-02T16:42:38+01:00
; #@! TF.GenerationSoftware,Kicad,Pcbnew,9.0.3
; #@! TF.FileFunction,Plated,1,2,PTH
FMAT,2
METRIC
; #@! TA.AperFunction,Plated,PTH,ViaDrill
T1C0.400
; #@! TA.AperFunction,Plated,PTH,ComponentDrill
T2C0.600
; #@! TA.AperFunction,Plated,PTH,ViaDrill
T3C0.700
; #@! TA.AperFunction,Plated,PTH,ComponentDrill
T4C0.700
; #@! TA.AperFunction,Plated,PTH,ComponentDrill
T5C0.800
; #@! TA.AperFunction,Plated,PTH,ComponentDrill
T6C0.810
; #@! TA.AperFunction,Plated,PTH,ComponentDrill
T7C0.889
; #@! TA.AperFunction,Plated,PTH,ComponentDrill
T8C1.000
; #@! TA.AperFunction,Plated,PTH,ComponentDrill
T9C1.500
; #@! TA.AperFunction,Plated,PTH,ComponentDrill
T10C1.600
; #@! TA.AperFunction,Plated,PTH,ComponentDrill
T11C2.300
; #@! TA.AperFunction,Plated,PTH,ComponentDrill
T12C2.800
; #@! TA.AperFunction,Plated,PTH,ComponentDrill
T13C3.200
%
G90
G05
T1
X59.817Y-49.784
X59.944Y-145.796
X64.77Y-124.714
X66.04Y-120.142
X66.802Y-118.491
X70.104Y-82.169
X71.755Y-109.982
X72.707Y-140.589
X74.832Y-79.854
X77.153Y-124.396
X78.232Y-128.143
X78.257Y-131.953
X78.359Y-126.809
X79.438Y-135.953
X79.629Y-123.19
X79.883Y-142.113
X80.899Y-68.961
X82.486Y-88.773
X82.677Y-84.328
X82.845Y-79.22
X84.328Y-121.983
X86.296Y-65.151
X86.296Y-70.167
X86.487Y-130.683
X86.55Y-80.264
X86.614Y-75.311
X87.058Y-110.744
X90.487Y-110.617
X90.614Y-89.344
X90.805Y-57.34
X91.123Y-80.073
X91.63Y-75.438
X91.694Y-114.871
X91.757Y-56.388
X91.757Y-97.346
X92.519Y-88.011
X92.519Y-109.22
X92.583Y-102.806
X93.472Y-93.98
X93.472Y-113.792
X94.488Y-116.395
X94.488Y-127.762
X94.678Y-120.078
X95.377Y-89.408
X98.552Y-85.852
X98.552Y-87.249
X100.266Y-81.597
X102.489Y-141.859
X103.378Y-88.773
X103.505Y-117.602
X103.632Y-74.041
X103.886Y-63.373
X103.886Y-79.248
X103.95Y-57.785
X104.14Y-115.824
X104.775Y-109.283
X104.838Y-90.551
X105.283Y-141.922
X105.855Y-123.952
X105.918Y-58.801
X106.553Y-102.489
X106.617Y-109.029
X106.743Y-128.333
X107.061Y-66.421
X107.061Y-85.915
X107.188Y-116.967
X107.378Y-57.467
X109.085Y-136.893
X109.855Y-134.302
X109.918Y-133.032
X110.045Y-145.796
X110.617Y-136.334
X110.807Y-108.14
X111.061Y-137.986
X111.188Y-110.045
X111.252Y-142.748
X111.76Y-131.064
X111.76Y-81.597
X113.538Y-80.264
X115.252Y-77.47
X116.268Y-131.381
X116.332Y-117.094
X116.535Y-91.237
X117.475Y-56.515
X117.602Y-75.184
X117.665Y-124.714
X117.729Y-144.018
X118.427Y-129.54
X118.554Y-113.728
X118.618Y-73.66
X118.618Y-112.014
X119.316Y-138.112
X119.57Y-143.827
X119.634Y-96.266
X119.634Y-142.558
X120.076Y-139.995
X121.539Y-72.136
X122.555Y-71.628
X122.745Y-126.047
X123.19Y-115.824
X123.317Y-70.866
X123.634Y-93.789
X123.698Y-98.996
X124.246Y-72.39
X125.031Y-125.285
X126.111Y-60.325
X126.111Y-66.802
X128.016Y-135.763
X128.333Y-136.779
X128.841Y-122.936
X128.905Y-89.725
X130.112Y-107.251
X130.365Y-131.191
X130.81Y-84.645
X130.81Y-140.208
X131.0Y-80.328
X131.127Y-106.68
X131.127Y-127.444
X131.318Y-104.648
X131.445Y-100.012
X131.445Y-110.045
X131.699Y-122.428
X131.826Y-115.316
X132.08Y-101.473
X132.08Y-108.407
X132.207Y-103.759
X132.27Y-88.456
X132.334Y-96.012
X132.779Y-120.078
X132.779Y-81.407
X132.994Y-114.046
X134.62Y-102.87
X135.001Y-111.76
X135.071Y-108.655
X135.255Y-120.269
X135.319Y-116.332
X135.382Y-99.631
X135.382Y-100.965
X135.382Y-105.981
X135.382Y-113.855
X135.763Y-117.411
X136.144Y-124.46
X136.398Y-77.597
X136.652Y-85.598
X136.652Y-118.173
X136.906Y-92.964
X137.033Y-89.027
X137.16Y-70.612
X137.35Y-114.808
X138.176Y-54.102
X138.29Y-72.514
X138.494Y-111.125
X138.532Y-108.56
X138.938Y-57.15
X138.968Y-76.807
X139.319Y-66.548
X139.319Y-122.11
X139.319Y-119.126
X139.344Y-89.611
X139.395Y-63.442
X139.446Y-112.585
X139.459Y-84.645
X139.636Y-80.328
X139.67Y-77.851
X139.7Y-49.53
X139.891Y-57.15
X140.081Y-67.31
X140.144Y-60.833
X140.208Y-54.102
X140.266Y-92.169
X140.272Y-132.588
X140.31Y-81.432
X140.525Y-105.6
X140.97Y-54.864
X141.351Y-66.04
X141.986Y-135.064
X142.37Y-65.474
X142.811Y-138.874
X143.51Y-142.684
X143.827Y-129.921
X144.018Y-135.128
X144.399Y-67.183
X145.542Y-104.775
X146.05Y-114.046
X146.431Y-101.854
X146.789Y-65.006
X147.152Y-63.015
X147.574Y-64.262
X147.98Y-68.732
X147.98Y-72.39
X148.082Y-110.68
X148.907Y-135.128
X149.225Y-84.709
X149.25Y-67.97
X149.352Y-63.627
X150.558Y-95.758
X151.003Y-67.945
X151.003Y-69.469
X151.003Y-76.454
X151.13Y-63.055
X151.765Y-96.139
X152.082Y-120.84
X152.146Y-127.254
X152.908Y-97.434
X152.908Y-108.521
X153.241Y-67.668
X153.607Y-109.918
X153.797Y-119.634
X153.797Y-115.824
X154.178Y-111.76
X154.559Y-64.516
X155.321Y-65.405
X155.766Y-130.302
X157.394Y-102.385
X157.556Y-70.551
X157.607Y-66.294
X157.719Y-72.347
X157.734Y-65.151
X157.734Y-79.502
X157.734Y-82.423
X158.112Y-94.95
X158.115Y-99.949
X158.559Y-64.072
X158.803Y-101.719
X159.108Y-91.768
X159.131Y-80.772
X159.436Y-107.988
X159.576Y-99.408
X160.325Y-91.999
X160.401Y-75.692
X160.782Y-113.347
X161.417Y-65.913
X161.481Y-115.697
X161.493Y-96.774
X161.607Y-73.152
X162.052Y-118.364
X162.433Y-75.565
X162.814Y-101.854
X163.005Y-82.423
X163.068Y-96.774
X163.83Y-84.074
X163.894Y-135.509
X164.338Y-94.361
X164.694Y-66.599
X164.719Y-63.246
X164.719Y-92.71
X164.782Y-67.627
X165.1Y-129.794
X165.133Y-117.665
X165.227Y-103.378
X165.417Y-82.486
X165.557Y-91.288
X165.608Y-122.555
X166.751Y-64.643
X166.878Y-104.013
X167.109Y-115.54
X167.132Y-66.167
X167.259Y-63.373
X167.64Y-78.359
X167.691Y-67.361
X168.275Y-65.278
X168.402Y-62.357
X168.593Y-112.413
X170.591Y-133.933
X171.577Y-112.395
X171.894Y-121.285
X172.466Y-76.835
X172.72Y-60.833
X172.974Y-133.858
X174.561Y-121.221
X176.53Y-64.262
X176.784Y-78.725
X177.038Y-112.522
X177.409Y-80.835
X177.734Y-133.175
X178.181Y-60.96
X178.486Y-88.773
X178.498Y-84.772
X178.562Y-86.106
X178.593Y-114.109
X178.625Y-66.739
X178.626Y-89.916
X178.664Y-81.89
X179.197Y-95.186
X179.26Y-100.711
X180.15Y-67.373
X180.403Y-74.041
X180.95Y-86.766
X180.975Y-92.456
X181.038Y-82.296
X181.165Y-65.786
X181.229Y-77.216
X181.864Y-75.819
X181.864Y-85.852
X181.991Y-98.171
X181.991Y-139.065
X182.118Y-114.173
X183.032Y-64.991
X183.134Y-72.39
X183.642Y-63.373
X183.705Y-88.011
X183.769Y-91.694
X183.769Y-78.725
X183.896Y-68.453
X184.15Y-81.026
X184.506Y-64.313
X184.531Y-61.468
X184.849Y-74.93
X185.547Y-79.756
X186.284Y-78.74
X186.69Y-66.548
X186.754Y-63.119
X186.754Y-73.025
X187.071Y-61.468
X187.198Y-67.97
X187.769Y-69.406
X189.103Y-61.468
X189.357Y-112.395
X191.071Y-62.674
X191.579Y-72.072
X191.77Y-121.476
X193.345Y-71.933
X194.361Y-66.904
X195.326Y-96.901
X196.342Y-139.192
X198.12Y-61.15
X199.136Y-146.05
T2
X78.232Y-91.44
X78.232Y-105.156
X79.502Y-90.17
X79.502Y-103.886
X80.772Y-91.44
X80.772Y-105.156
X195.834Y-81.555
X195.834Y-86.042
X195.834Y-90.678
X195.834Y-95.186
X195.834Y-99.758
X197.104Y-82.825
X197.104Y-87.312
X197.104Y-91.948
X197.104Y-96.456
X197.104Y-101.028
X198.374Y-81.555
X198.374Y-86.042
X198.374Y-90.678
X198.374Y-95.186
X198.374Y-99.758
T3
X64.897Y-51.054
X69.723Y-51.054
T4
X61.468Y-94.615
X64.008Y-94.615
X72.136Y-122.104
X72.136Y-124.644
X74.93Y-107.95
X77.47Y-107.95
X78.74Y-96.012
X78.74Y-98.552
X79.629Y-101.092
X81.28Y-96.012
X81.28Y-98.552
X82.169Y-101.092
X83.439Y-103.632
X83.439Y-106.172
X85.725Y-103.632
X85.725Y-106.172
X124.714Y-120.904
X124.714Y-123.444
X134.874Y-122.174
X137.414Y-122.174
X137.668Y-64.897
X137.668Y-67.437
X145.542Y-75.692
X145.542Y-78.232
X145.542Y-80.772
X145.542Y-83.312
X145.542Y-85.852
X145.542Y-88.392
X145.542Y-90.932
X145.542Y-93.472
X145.542Y-96.012
X148.082Y-75.692
X148.082Y-78.232
X148.082Y-80.772
X148.082Y-83.312
X148.082Y-85.852
X148.082Y-88.392
X148.082Y-90.932
X148.082Y-93.472
X148.082Y-96.012
X148.59Y-98.552
X148.59Y-101.092
X148.59Y-103.632
X148.59Y-106.172
X148.59Y-108.712
X151.13Y-98.552
X151.13Y-101.092
X151.13Y-103.632
X151.13Y-106.172
X151.13Y-108.712
X154.749Y-106.743
X157.29Y-106.743
X160.02Y-67.056
X160.528Y-106.743
X162.56Y-67.056
X163.068Y-106.743
X165.608Y-106.743
X168.148Y-106.743
X187.261Y-111.379
X187.261Y-113.919
X192.532Y-62.992
X192.532Y-65.532
X198.12Y-62.992
X198.12Y-65.532
T5
X60.35Y-59.69
X60.35Y-67.31
X60.35Y-69.444
X60.35Y-77.064
X61.138Y-55.194
X63.58Y-97.028
X63.638Y-55.194
X65.724Y-55.194
X66.142Y-58.141
X68.224Y-55.194
X68.58Y-97.028
X71.142Y-58.141
X71.2Y-96.012
X72.136Y-107.482
X72.136Y-112.482
X72.136Y-114.594
X72.136Y-119.594
X72.39Y-83.82
X72.39Y-91.44
X75.184Y-83.82
X75.184Y-91.44
X76.2Y-96.012
X77.724Y-83.312
X77.724Y-86.868
X78.74Y-58.141
X83.74Y-58.141
X84.836Y-90.424
X84.836Y-98.044
X85.344Y-83.312
X85.344Y-86.868
X88.9Y-132.232
X91.542Y-50.8
X93.9Y-132.232
X96.542Y-50.8
X101.575Y-132.232
X104.216Y-50.673
X104.688Y-138.43
X106.575Y-132.232
X107.188Y-138.43
X109.216Y-50.673
X116.666Y-79.146
X116.713Y-50.673
X121.666Y-79.146
X121.713Y-50.673
X124.841Y-84.836
X124.841Y-87.376
X124.841Y-89.916
X124.841Y-92.456
X124.841Y-94.996
X124.841Y-97.536
X124.841Y-100.076
X124.841Y-102.616
X124.841Y-105.156
X128.778Y-125.476
X133.778Y-125.476
X138.684Y-125.73
X143.002Y-93.472
X143.684Y-125.73
X157.48Y-142.748
X160.02Y-142.748
X160.1Y-111.506
X162.56Y-142.748
X165.1Y-111.506
X165.1Y-142.748
X167.64Y-142.748
X170.18Y-142.748
X172.72Y-142.748
X175.666Y-130.625
X176.022Y-134.7
X176.022Y-139.7
X179.07Y-135.128
X179.07Y-142.748
X181.61Y-135.128
X181.61Y-142.748
X183.286Y-130.625
X184.15Y-135.128
X184.15Y-142.748
X185.968Y-64.516
X186.69Y-135.128
X186.69Y-142.748
X188.468Y-64.516
X189.23Y-135.128
X189.23Y-142.748
X191.77Y-135.128
X191.77Y-142.748
X193.04Y-85.852
X193.04Y-88.392
X193.04Y-90.932
X193.04Y-93.472
X193.04Y-96.012
X193.04Y-98.552
X194.31Y-135.128
X194.31Y-142.748
X195.58Y-62.484
X195.58Y-70.104
X196.85Y-135.128
X196.85Y-142.748
T6
X68.61Y-132.212
X68.61Y-134.752
X70.61Y-132.212
X70.61Y-134.752
T7
X63.51Y-61.336
X63.51Y-63.876
X63.51Y-66.416
X63.51Y-68.956
X63.51Y-71.496
X63.51Y-74.036
X63.51Y-76.576
X71.13Y-61.336
X71.13Y-63.876
X71.13Y-66.416
X71.13Y-68.956
X71.13Y-71.496
X71.13Y-74.036
X71.13Y-76.576
X75.057Y-110.49
X75.057Y-113.03
X75.057Y-115.57
X75.057Y-118.11
X75.057Y-120.65
X75.057Y-123.19
X75.057Y-125.73
X75.057Y-129.413
X75.057Y-131.953
X75.057Y-134.493
X75.057Y-137.033
X75.057Y-139.573
X75.057Y-142.113
X75.057Y-144.653
X76.2Y-61.341
X76.2Y-63.881
X76.2Y-66.421
X76.2Y-68.961
X76.2Y-71.501
X76.2Y-74.041
X76.2Y-76.581
X82.677Y-110.49
X82.677Y-113.03
X82.677Y-115.57
X82.677Y-118.11
X82.677Y-120.65
X82.677Y-123.19
X82.677Y-125.73
X82.677Y-129.413
X82.677Y-131.953
X82.677Y-134.493
X82.677Y-137.033
X82.677Y-139.573
X82.677Y-142.113
X82.677Y-144.653
X83.82Y-61.341
X83.82Y-63.881
X83.82Y-66.421
X83.82Y-68.961
X83.82Y-71.501
X83.82Y-74.041
X83.82Y-76.581
X88.9Y-53.721
X88.9Y-56.261
X88.9Y-58.801
X88.9Y-61.341
X88.9Y-63.881
X88.9Y-66.421
X88.9Y-68.961
X88.9Y-72.771
X88.9Y-75.311
X88.9Y-77.851
X88.9Y-80.391
X88.9Y-82.931
X88.9Y-85.471
X88.9Y-88.011
X88.9Y-93.98
X88.9Y-96.52
X88.9Y-99.06
X88.9Y-101.6
X88.9Y-104.14
X88.9Y-106.68
X88.9Y-109.22
X88.9Y-113.792
X88.9Y-116.332
X88.9Y-118.872
X88.9Y-121.412
X88.9Y-123.952
X88.9Y-126.492
X88.9Y-129.032
X96.52Y-53.721
X96.52Y-56.261
X96.52Y-58.801
X96.52Y-61.341
X96.52Y-63.881
X96.52Y-66.421
X96.52Y-68.961
X96.52Y-72.771
X96.52Y-75.311
X96.52Y-77.851
X96.52Y-80.391
X96.52Y-82.931
X96.52Y-85.471
X96.52Y-88.011
X96.52Y-93.98
X96.52Y-96.52
X96.52Y-99.06
X96.52Y-101.6
X96.52Y-104.14
X96.52Y-106.68
X96.52Y-109.22
X96.52Y-113.792
X96.52Y-116.332
X96.52Y-118.872
X96.52Y-121.412
X96.52Y-123.952
X96.52Y-126.492
X96.52Y-129.032
X101.6Y-53.721
X101.6Y-56.261
X101.6Y-58.801
X101.6Y-61.341
X101.6Y-63.881
X101.6Y-66.421
X101.6Y-68.961
X101.6Y-72.771
X101.6Y-75.311
X101.6Y-77.851
X101.6Y-80.391
X101.6Y-82.931
X101.6Y-85.471
X101.6Y-88.011
X101.6Y-90.551
X101.6Y-94.356
X101.6Y-96.896
X101.6Y-99.436
X101.6Y-101.976
X101.6Y-104.516
X101.6Y-107.056
X101.6Y-109.596
X101.6Y-113.792
X101.6Y-116.332
X101.6Y-118.872
X101.6Y-121.412
X101.6Y-123.952
X101.6Y-126.492
X101.6Y-129.032
X109.22Y-53.721
X109.22Y-56.261
X109.22Y-58.801
X109.22Y-61.341
X109.22Y-63.881
X109.22Y-66.421
X109.22Y-68.961
X109.22Y-72.771
X109.22Y-75.311
X109.22Y-77.851
X109.22Y-80.391
X109.22Y-82.931
X109.22Y-85.471
X109.22Y-88.011
X109.22Y-90.551
X109.22Y-94.356
X109.22Y-96.896
X109.22Y-99.436
X109.22Y-101.976
X109.22Y-104.516
X109.22Y-107.056
X109.22Y-109.596
X109.22Y-113.792
X109.22Y-116.332
X109.22Y-118.872
X109.22Y-121.412
X109.22Y-123.952
X109.22Y-126.492
X109.22Y-129.032
X114.109Y-53.72
X114.109Y-56.261
X114.109Y-58.801
X114.109Y-61.341
X114.109Y-63.881
X114.109Y-66.421
X114.109Y-68.961
X114.173Y-109.474
X114.173Y-112.014
X114.173Y-114.554
X114.173Y-117.094
X114.173Y-119.634
X114.173Y-122.174
X114.173Y-124.714
X114.173Y-128.778
X114.173Y-131.318
X114.173Y-133.858
X114.173Y-136.398
X114.173Y-138.938
X114.173Y-141.478
X114.173Y-144.018
X114.3Y-82.296
X114.3Y-84.836
X114.3Y-87.376
X114.3Y-89.916
X114.3Y-92.456
X114.3Y-94.996
X114.3Y-97.536
X114.3Y-100.076
X114.3Y-102.616
X114.3Y-105.156
X121.73Y-53.721
X121.73Y-56.261
X121.73Y-58.801
X121.73Y-61.341
X121.73Y-63.881
X121.73Y-66.421
X121.73Y-68.961
X121.793Y-109.474
X121.793Y-112.014
X121.793Y-114.554
X121.793Y-117.094
X121.793Y-119.634
X121.793Y-122.174
X121.793Y-124.714
X121.793Y-128.778
X121.793Y-131.318
X121.793Y-133.858
X121.793Y-136.398
X121.793Y-138.938
X121.793Y-141.478
X121.793Y-144.018
X121.92Y-82.296
X121.92Y-84.836
X121.92Y-87.376
X121.92Y-89.916
X121.92Y-92.456
X121.92Y-94.996
X121.92Y-97.536
X121.92Y-100.076
X121.92Y-102.616
X121.92Y-105.156
X125.984Y-128.778
X125.984Y-131.318
X125.984Y-133.858
X125.984Y-136.398
X125.984Y-138.938
X125.984Y-141.478
X125.984Y-144.018
X127.762Y-70.612
X127.762Y-73.152
X127.762Y-75.692
X127.762Y-78.232
X127.762Y-80.772
X127.762Y-83.312
X127.762Y-85.852
X127.762Y-88.392
X127.762Y-90.932
X127.762Y-93.472
X127.762Y-96.012
X127.762Y-98.552
X127.762Y-101.092
X127.762Y-103.632
X127.762Y-106.172
X127.762Y-108.712
X127.762Y-111.252
X127.762Y-113.792
X127.762Y-116.332
X127.762Y-118.872
X133.604Y-128.778
X133.604Y-131.318
X133.604Y-133.858
X133.604Y-136.398
X133.604Y-138.938
X133.604Y-141.478
X133.604Y-144.018
X137.922Y-128.778
X137.922Y-131.318
X137.922Y-133.858
X137.922Y-136.398
X137.922Y-138.938
X137.922Y-141.478
X137.922Y-144.018
X143.002Y-70.612
X143.002Y-73.152
X143.002Y-75.692
X143.002Y-78.232
X143.002Y-80.772
X143.002Y-83.312
X143.002Y-85.852
X143.002Y-88.392
X143.002Y-90.932
X143.002Y-96.012
X143.002Y-98.552
X143.002Y-101.092
X143.002Y-103.632
X143.002Y-106.172
X143.002Y-108.712
X143.002Y-111.252
X143.002Y-113.792
X143.002Y-116.332
X143.002Y-118.872
X145.542Y-128.778
X145.542Y-131.318
X145.542Y-133.858
X145.542Y-136.398
X145.542Y-138.938
X145.542Y-141.478
X145.542Y-144.018
X149.86Y-111.506
X149.86Y-114.046
X149.86Y-116.586
X149.86Y-119.126
X149.86Y-121.666
X149.86Y-124.206
X149.86Y-126.746
X149.86Y-129.286
X149.86Y-132.08
X149.86Y-139.7
X152.4Y-132.08
X152.4Y-139.7
X154.94Y-70.612
X154.94Y-73.152
X154.94Y-75.692
X154.94Y-78.232
X154.94Y-80.772
X154.94Y-83.312
X154.94Y-85.852
X154.94Y-88.392
X154.94Y-90.932
X154.94Y-93.472
X154.94Y-96.012
X154.94Y-98.552
X154.94Y-101.092
X154.94Y-103.632
X154.94Y-132.08
X154.94Y-139.7
X157.48Y-111.506
X157.48Y-114.046
X157.48Y-116.586
X157.48Y-119.126
X157.48Y-121.666
X157.48Y-124.206
X157.48Y-126.746
X157.48Y-129.286
X157.48Y-132.08
X157.48Y-139.7
X160.02Y-132.08
X160.02Y-139.7
X162.56Y-132.08
X162.56Y-139.7
X163.068Y-119.888
X163.068Y-127.508
X165.1Y-132.08
X165.1Y-139.7
X165.608Y-119.888
X165.608Y-127.508
X167.64Y-132.08
X167.64Y-139.7
X168.148Y-119.888
X168.148Y-127.508
X169.418Y-109.22
X169.418Y-116.84
X170.18Y-70.612
X170.18Y-73.152
X170.18Y-75.692
X170.18Y-78.232
X170.18Y-80.772
X170.18Y-83.312
X170.18Y-85.852
X170.18Y-88.392
X170.18Y-90.932
X170.18Y-93.472
X170.18Y-96.012
X170.18Y-98.552
X170.18Y-101.092
X170.18Y-103.632
X170.18Y-132.08
X170.18Y-139.7
X170.688Y-119.888
X170.688Y-127.508
X171.958Y-109.22
X171.958Y-116.84
X172.72Y-132.08
X172.72Y-139.7
X173.228Y-119.888
X173.228Y-127.508
X174.244Y-70.612
X174.244Y-73.152
X174.244Y-75.692
X174.244Y-78.232
X174.244Y-80.772
X174.244Y-83.312
X174.244Y-85.852
X174.244Y-88.392
X174.244Y-90.932
X174.244Y-93.472
X174.244Y-96.012
X174.244Y-98.552
X174.244Y-101.092
X174.244Y-103.632
X174.498Y-109.22
X174.498Y-116.84
X175.768Y-119.888
X175.768Y-127.508
X177.038Y-109.22
X177.038Y-116.84
X178.308Y-119.888
X178.308Y-127.508
X179.578Y-109.22
X179.578Y-116.84
X180.848Y-119.888
X180.848Y-127.508
X182.118Y-109.22
X182.118Y-116.84
X183.388Y-119.888
X183.388Y-127.508
X184.658Y-109.22
X184.658Y-116.84
X185.928Y-119.888
X185.928Y-127.508
X189.484Y-70.612
X189.484Y-73.152
X189.484Y-75.692
X189.484Y-78.232
X189.484Y-80.772
X189.484Y-83.312
X189.484Y-85.852
X189.484Y-88.392
X189.484Y-90.932
X189.484Y-93.472
X189.484Y-96.012
X189.484Y-98.552
X189.484Y-101.092
X189.484Y-103.632
T8
X78.994Y-112.141
X78.994Y-114.681
X78.994Y-117.221
X141.635Y-63.449
X143.51Y-57.15
X143.51Y-59.69
X144.175Y-63.449
X146.05Y-57.15
X146.05Y-59.69
X146.812Y-120.396
X146.812Y-122.936
X146.812Y-125.476
X148.59Y-57.15
X148.59Y-59.69
X151.13Y-57.15
X151.13Y-59.69
X153.67Y-57.15
X153.67Y-59.69
X153.924Y-142.748
X153.924Y-145.288
X156.21Y-57.15
X156.21Y-59.69
X158.496Y-145.542
X158.75Y-57.15
X158.75Y-59.69
X160.338Y-124.206
X160.338Y-126.746
X160.338Y-129.286
X161.036Y-145.542
X161.29Y-57.15
X161.29Y-59.69
X162.052Y-85.852
X162.052Y-89.408
X163.576Y-145.542
X163.83Y-57.15
X163.83Y-59.69
X164.147Y-70.612
X164.147Y-73.152
X164.147Y-75.692
X164.592Y-85.852
X164.592Y-89.408
X166.116Y-145.542
X166.37Y-57.15
X166.37Y-59.69
X167.132Y-85.852
X167.132Y-89.408
X167.576Y-70.612
X167.576Y-73.152
X167.576Y-75.692
X168.656Y-145.542
X168.91Y-57.15
X168.91Y-59.69
X171.313Y-145.542
X171.45Y-57.15
X171.45Y-59.69
X173.853Y-145.542
X173.99Y-57.15
X173.99Y-59.69
X176.393Y-145.542
X176.53Y-57.15
X176.53Y-59.69
X177.8Y-71.12
X177.8Y-73.66
X177.8Y-76.2
X179.055Y-145.542
X179.07Y-57.15
X179.07Y-59.69
X181.595Y-145.542
X181.61Y-57.15
X181.61Y-59.69
X184.135Y-145.542
X184.15Y-57.15
X184.15Y-59.69
X186.675Y-145.542
X186.69Y-57.15
X186.69Y-59.69
X189.215Y-145.542
X189.23Y-57.15
X189.23Y-59.69
X191.755Y-145.542
X191.77Y-57.15
X191.77Y-59.69
X194.295Y-145.542
X194.31Y-57.15
X194.31Y-59.69
X196.192Y-115.54
X196.192Y-118.31
X196.192Y-121.08
X196.192Y-123.85
X196.312Y-112.77
X196.835Y-145.542
X196.85Y-57.15
X196.85Y-59.69
X199.032Y-114.155
X199.032Y-116.925
X199.032Y-119.695
X199.032Y-122.465
X199.39Y-57.15
X199.39Y-59.69
T9
X62.992Y-104.648
X62.992Y-119.126
X67.992Y-99.648
X67.992Y-102.148
X67.992Y-107.148
X67.992Y-109.648
X67.992Y-114.126
X67.992Y-116.626
X67.992Y-121.626
X67.992Y-124.126
T10
X66.167Y-86.36
T11
X65.91Y-127.482
X65.91Y-139.482
T12
X61.067Y-86.36
X66.167Y-81.26
X66.167Y-91.46
T13
X197.612Y-105.81
X197.612Y-130.81
M30
