%TF.GenerationSoftware,KiCad,Pcbnew,9.0.3*%
%TF.CreationDate,2025-08-02T16:42:51+01:00*%
%TF.ProjectId,ZX81plus38,5a583831-706c-4757-9333-382e6b696361,1.10*%
%TF.SameCoordinates,Original*%
%TF.FileFunction,Soldermask,Bot*%
%TF.FilePolarity,Negative*%
%FSLAX46Y46*%
G04 Gerber Fmt 4.6, Leading zero omitted, Abs format (unit mm)*
G04 Created by KiCad (PCBNEW 9.0.3) date 2025-08-02 16:42:51*
%MOMM*%
%LPD*%
G01*
G04 APERTURE LIST*
G04 Aperture macros list*
%AMRoundRect*
0 Rectangle with rounded corners*
0 $1 Rounding radius*
0 $2 $3 $4 $5 $6 $7 $8 $9 X,Y pos of 4 corners*
0 Add a 4 corners polygon primitive as box body*
4,1,4,$2,$3,$4,$5,$6,$7,$8,$9,$2,$3,0*
0 Add four circle primitives for the rounded corners*
1,1,$1+$1,$2,$3*
1,1,$1+$1,$4,$5*
1,1,$1+$1,$6,$7*
1,1,$1+$1,$8,$9*
0 Add four rect primitives between the rounded corners*
20,1,$1+$1,$2,$3,$4,$5,0*
20,1,$1+$1,$4,$5,$6,$7,0*
20,1,$1+$1,$6,$7,$8,$9,0*
20,1,$1+$1,$8,$9,$2,$3,0*%
G04 Aperture macros list end*
%ADD10C,1.900000*%
%ADD11C,1.924000*%
%ADD12C,5.400000*%
%ADD13RoundRect,0.200000X-0.800000X0.800000X-0.800000X-0.800000X0.800000X-0.800000X0.800000X0.800000X0*%
%ADD14O,2.000000X2.000000*%
%ADD15C,1.920000*%
%ADD16C,3.100000*%
%ADD17C,2.400000*%
%ADD18C,3.900000*%
%ADD19C,4.400000*%
%ADD20RoundRect,0.200000X0.850000X-0.850000X0.850000X0.850000X-0.850000X0.850000X-0.850000X-0.850000X0*%
%ADD21O,2.100000X2.100000*%
%ADD22C,2.000000*%
%ADD23RoundRect,0.400000X0.400000X-0.400000X0.400000X0.400000X-0.400000X0.400000X-0.400000X-0.400000X0*%
%ADD24C,1.600000*%
%ADD25C,1.800000*%
%ADD26O,1.800000X1.800000*%
%ADD27RoundRect,0.200000X0.800000X-0.800000X0.800000X0.800000X-0.800000X0.800000X-0.800000X-0.800000X0*%
%ADD28C,3.600000*%
%ADD29C,2.900000*%
%ADD30RoundRect,0.400000X-0.400000X0.400000X-0.400000X-0.400000X0.400000X-0.400000X0.400000X0.400000X0*%
%ADD31RoundRect,0.200000X-0.850000X-0.850000X0.850000X-0.850000X0.850000X0.850000X-0.850000X0.850000X0*%
%ADD32RoundRect,0.200000X0.800000X0.800000X-0.800000X0.800000X-0.800000X-0.800000X0.800000X-0.800000X0*%
%ADD33RoundRect,0.200000X0.850000X0.850000X-0.850000X0.850000X-0.850000X-0.850000X0.850000X-0.850000X0*%
%ADD34RoundRect,0.500000X0.500000X0.500000X-0.500000X0.500000X-0.500000X-0.500000X0.500000X-0.500000X0*%
%ADD35RoundRect,0.200000X-0.800000X-0.800000X0.800000X-0.800000X0.800000X0.800000X-0.800000X0.800000X0*%
%ADD36RoundRect,0.481000X-0.862000X-0.481000X0.862000X-0.481000X0.862000X0.481000X-0.862000X0.481000X0*%
%ADD37O,2.686000X1.924000*%
%ADD38RoundRect,0.481000X0.481000X-0.862000X0.481000X0.862000X-0.481000X0.862000X-0.481000X-0.862000X0*%
%ADD39O,1.924000X2.686000*%
%ADD40RoundRect,0.485500X-0.730500X-0.485500X0.730500X-0.485500X0.730500X0.485500X-0.730500X0.485500X0*%
%ADD41RoundRect,0.485500X0.485500X-0.730500X0.485500X0.730500X-0.485500X0.730500X-0.485500X-0.730500X0*%
G04 APERTURE END LIST*
D10*
%TO.C,CO4*%
X196192000Y-123850000D03*
X196192000Y-121080000D03*
D11*
X196192000Y-118310000D03*
D10*
X196192000Y-115540000D03*
X196312000Y-112770000D03*
X199032000Y-122465000D03*
X199032000Y-119695000D03*
X199032000Y-116925000D03*
X199032000Y-114155000D03*
D12*
X197612000Y-130810000D03*
X197612000Y-105810000D03*
%TD*%
D13*
%TO.C,D1*%
X179070000Y-135128000D03*
D14*
X179070000Y-142748000D03*
%TD*%
D13*
%TO.C,D2*%
X181610000Y-135128000D03*
D14*
X181610000Y-142748000D03*
%TD*%
D13*
%TO.C,D3*%
X184150000Y-135128000D03*
D14*
X184150000Y-142748000D03*
%TD*%
D13*
%TO.C,D4*%
X186690000Y-135128000D03*
D14*
X186690000Y-142748000D03*
%TD*%
D13*
%TO.C,D5*%
X189230000Y-135128000D03*
D14*
X189230000Y-142748000D03*
%TD*%
D13*
%TO.C,D6*%
X191770000Y-135128000D03*
D14*
X191770000Y-142748000D03*
%TD*%
D13*
%TO.C,D7*%
X194310000Y-135128000D03*
D14*
X194310000Y-142748000D03*
%TD*%
D13*
%TO.C,D8*%
X196850000Y-135128000D03*
D14*
X196850000Y-142748000D03*
%TD*%
D15*
%TO.C,CO1*%
X70610000Y-134752000D03*
X70610000Y-132212000D03*
X68610000Y-132212000D03*
X68610000Y-134752000D03*
D16*
X65910000Y-139482000D03*
X65910000Y-127482000D03*
%TD*%
D17*
%TO.C,CO2*%
X67992000Y-114126000D03*
X67992000Y-124126000D03*
X62992000Y-119126000D03*
X67992000Y-116626000D03*
X67992000Y-121626000D03*
%TD*%
%TO.C,CO3*%
X67992000Y-99648000D03*
X67992000Y-109648000D03*
X62992000Y-104648000D03*
X67992000Y-102148000D03*
X67992000Y-107148000D03*
%TD*%
D18*
%TO.C,CO5*%
X66167000Y-86360000D03*
D19*
X61067000Y-86360000D03*
X66167000Y-91460000D03*
X66167000Y-81260000D03*
%TD*%
D20*
%TO.C,J1B1*%
X143510000Y-57150000D03*
D21*
X146050000Y-57150000D03*
X148590000Y-57150000D03*
X151130000Y-57150000D03*
X153670000Y-57150000D03*
X156210000Y-57150000D03*
X158750000Y-57150000D03*
X161290000Y-57150000D03*
X163830000Y-57150000D03*
X166370000Y-57150000D03*
X168910000Y-57150000D03*
X171450000Y-57150000D03*
X173990000Y-57150000D03*
X176530000Y-57150000D03*
X179070000Y-57150000D03*
X181610000Y-57150000D03*
X184150000Y-57150000D03*
X186690000Y-57150000D03*
X189230000Y-57150000D03*
X191770000Y-57150000D03*
X194310000Y-57150000D03*
X196850000Y-57150000D03*
X199390000Y-57150000D03*
%TD*%
D20*
%TO.C,J1A1*%
X143510000Y-59690000D03*
D21*
X146050000Y-59690000D03*
X148590000Y-59690000D03*
X151130000Y-59690000D03*
X153670000Y-59690000D03*
X156210000Y-59690000D03*
X158750000Y-59690000D03*
X161290000Y-59690000D03*
X163830000Y-59690000D03*
X166370000Y-59690000D03*
X168910000Y-59690000D03*
X171450000Y-59690000D03*
X173990000Y-59690000D03*
X176530000Y-59690000D03*
X179070000Y-59690000D03*
X181610000Y-59690000D03*
X184150000Y-59690000D03*
X186690000Y-59690000D03*
X189230000Y-59690000D03*
X191770000Y-59690000D03*
X194310000Y-59690000D03*
X196850000Y-59690000D03*
X199390000Y-59690000D03*
%TD*%
D20*
%TO.C,J2*%
X179054760Y-145542000D03*
D21*
X181594760Y-145542000D03*
X184134760Y-145542000D03*
X186674760Y-145542000D03*
X189214760Y-145542000D03*
X191754760Y-145542000D03*
X194294760Y-145542000D03*
X196834760Y-145542000D03*
%TD*%
D20*
%TO.C,J3*%
X158496000Y-145542000D03*
D21*
X161036000Y-145542000D03*
X163576000Y-145542000D03*
X166116000Y-145542000D03*
X168656000Y-145542000D03*
%TD*%
D22*
%TO.C,C2*%
X61137800Y-55194200D03*
X63637800Y-55194200D03*
%TD*%
%TO.C,C1*%
X68224400Y-55194200D03*
X65724400Y-55194200D03*
%TD*%
D23*
%TO.C,Q8*%
X78232000Y-91440000D03*
D24*
X79502000Y-90170000D03*
X80772000Y-91440000D03*
%TD*%
D22*
%TO.C,R49*%
X77724000Y-86868000D03*
D14*
X85344000Y-86868000D03*
%TD*%
D22*
%TO.C,R48*%
X77724000Y-83312000D03*
D14*
X85344000Y-83312000D03*
%TD*%
D25*
%TO.C,R10*%
X151130000Y-101092000D03*
D26*
X148590000Y-101092000D03*
%TD*%
D25*
%TO.C,R17*%
X151130000Y-108712000D03*
D26*
X148590000Y-108712000D03*
%TD*%
D25*
%TO.C,R11*%
X151130000Y-98552000D03*
D26*
X148590000Y-98552000D03*
%TD*%
D25*
%TO.C,R12*%
X168148000Y-106743500D03*
D26*
X165608000Y-106743500D03*
%TD*%
D25*
%TO.C,R15*%
X157289500Y-106743500D03*
D26*
X154749500Y-106743500D03*
%TD*%
D25*
%TO.C,R13*%
X151130000Y-103632000D03*
D26*
X148590000Y-103632000D03*
%TD*%
D25*
%TO.C,R14*%
X163068000Y-106743500D03*
D26*
X160528000Y-106743500D03*
%TD*%
D25*
%TO.C,R16*%
X151130000Y-106172000D03*
D26*
X148590000Y-106172000D03*
%TD*%
D27*
%TO.C,D13*%
X84836000Y-98044000D03*
D14*
X84836000Y-90424000D03*
%TD*%
D28*
%TO.C,MKMH5*%
X73830000Y-104140000D03*
%TD*%
%TO.C,MKMH4*%
X195670000Y-76187000D03*
%TD*%
%TO.C,MKMH7*%
X97282000Y-138176000D03*
%TD*%
D29*
%TO.C,MKMH6*%
X173228000Y-65786000D03*
%TD*%
D28*
%TO.C,MKMH2*%
X132400000Y-52770000D03*
%TD*%
%TO.C,MKMH3*%
X132400000Y-65470000D03*
%TD*%
%TO.C,MKMH1*%
X78994000Y-52770000D03*
%TD*%
D22*
%TO.C,R29*%
X60350400Y-67310000D03*
D14*
X60350400Y-59690000D03*
%TD*%
D22*
%TO.C,R30*%
X60350400Y-77063600D03*
D14*
X60350400Y-69443600D03*
%TD*%
D25*
%TO.C,R9*%
X148082000Y-96012000D03*
D26*
X145542000Y-96012000D03*
%TD*%
D25*
%TO.C,R42*%
X162560000Y-67056000D03*
D26*
X160020000Y-67056000D03*
%TD*%
D25*
%TO.C,R43*%
X137668000Y-64897000D03*
D26*
X137668000Y-67437000D03*
%TD*%
D25*
%TO.C,R7*%
X148082000Y-90932000D03*
D26*
X145542000Y-90932000D03*
%TD*%
D25*
%TO.C,R6*%
X148082000Y-88392000D03*
D26*
X145542000Y-88392000D03*
%TD*%
D25*
%TO.C,R5*%
X148082000Y-85852000D03*
D26*
X145542000Y-85852000D03*
%TD*%
D25*
%TO.C,R4*%
X148082000Y-83312000D03*
D26*
X145542000Y-83312000D03*
%TD*%
D25*
%TO.C,R3*%
X148082000Y-80772000D03*
D26*
X145542000Y-80772000D03*
%TD*%
D25*
%TO.C,R2*%
X148082000Y-78232000D03*
D26*
X145542000Y-78232000D03*
%TD*%
D25*
%TO.C,R1*%
X148082000Y-75692000D03*
D26*
X145542000Y-75692000D03*
%TD*%
D25*
%TO.C,R8*%
X148082000Y-93472000D03*
D26*
X145542000Y-93472000D03*
%TD*%
D30*
%TO.C,Q5*%
X198374000Y-81555000D03*
D24*
X197104000Y-82825000D03*
X195834000Y-81555000D03*
%TD*%
D30*
%TO.C,Q4*%
X198374000Y-86042500D03*
D24*
X197104000Y-87312500D03*
X195834000Y-86042500D03*
%TD*%
D30*
%TO.C,Q3*%
X198374000Y-90678000D03*
D24*
X197104000Y-91948000D03*
X195834000Y-90678000D03*
%TD*%
D30*
%TO.C,Q2*%
X198374000Y-95186500D03*
D24*
X197104000Y-96456500D03*
X195834000Y-95186500D03*
%TD*%
D30*
%TO.C,Q1*%
X198374000Y-99758500D03*
D24*
X197104000Y-101028500D03*
X195834000Y-99758500D03*
%TD*%
D23*
%TO.C,Q9*%
X78232000Y-105156000D03*
D24*
X79502000Y-103886000D03*
X80772000Y-105156000D03*
%TD*%
D25*
%TO.C,R70*%
X81280000Y-98552000D03*
D26*
X78740000Y-98552000D03*
%TD*%
D25*
%TO.C,R23*%
X187261500Y-113919000D03*
D26*
X187261500Y-111379000D03*
%TD*%
D25*
%TO.C,R18*%
X192532000Y-62992000D03*
D26*
X192532000Y-65532000D03*
%TD*%
D25*
%TO.C,R81*%
X85725000Y-103632000D03*
D26*
X85725000Y-106172000D03*
%TD*%
D25*
%TO.C,R80*%
X83439000Y-103632000D03*
D26*
X83439000Y-106172000D03*
%TD*%
D25*
%TO.C,R79*%
X82169000Y-101092000D03*
D26*
X79629000Y-101092000D03*
%TD*%
D25*
%TO.C,R59*%
X78740000Y-96012000D03*
D26*
X81280000Y-96012000D03*
%TD*%
D25*
%TO.C,R58*%
X61468000Y-94615000D03*
D26*
X64008000Y-94615000D03*
%TD*%
D25*
%TO.C,R57*%
X72136000Y-124644000D03*
D26*
X72136000Y-122104000D03*
%TD*%
D25*
%TO.C,R56*%
X74930000Y-107950000D03*
D26*
X77470000Y-107950000D03*
%TD*%
D25*
%TO.C,R52*%
X198120000Y-62992000D03*
D26*
X198120000Y-65532000D03*
%TD*%
D31*
%TO.C,JP6*%
X160337500Y-124206000D03*
D21*
X160337500Y-126746000D03*
X160337500Y-129286000D03*
%TD*%
D32*
%TO.C,JP12*%
X177800000Y-76200000D03*
D14*
X177800000Y-73660000D03*
X177800000Y-71120000D03*
%TD*%
D27*
%TO.C,JP11*%
X162052000Y-89408000D03*
D14*
X164592000Y-89408000D03*
X167132000Y-89408000D03*
%TD*%
D32*
%TO.C,JP10*%
X167576500Y-75692000D03*
D14*
X167576500Y-73152000D03*
X167576500Y-70612000D03*
%TD*%
D32*
%TO.C,JP9*%
X164147500Y-75692000D03*
D14*
X164147500Y-73152000D03*
X164147500Y-70612000D03*
%TD*%
D13*
%TO.C,JP8*%
X167132000Y-85852000D03*
D14*
X164592000Y-85852000D03*
X162052000Y-85852000D03*
%TD*%
D33*
%TO.C,JP5*%
X146812000Y-125476000D03*
D21*
X146812000Y-122936000D03*
X146812000Y-120396000D03*
%TD*%
D31*
%TO.C,JP4*%
X153924000Y-142748000D03*
D21*
X153924000Y-145288000D03*
%TD*%
D27*
%TO.C,D14*%
X195580000Y-70104000D03*
D14*
X195580000Y-62484000D03*
%TD*%
D22*
%TO.C,C8*%
X72136000Y-114594000D03*
X72136000Y-119594000D03*
%TD*%
%TO.C,C7*%
X68580000Y-97028000D03*
X63580000Y-97028000D03*
%TD*%
%TO.C,C3*%
X76200000Y-96012000D03*
X71200000Y-96012000D03*
%TD*%
D34*
%TO.C,C9*%
X107188000Y-138430000D03*
D22*
X104688000Y-138430000D03*
%TD*%
D34*
%TO.C,C5*%
X188468000Y-64516000D03*
D22*
X185968000Y-64516000D03*
%TD*%
D25*
%TO.C,R19*%
X124714000Y-123444000D03*
D26*
X124714000Y-120904000D03*
%TD*%
D35*
%TO.C,JP1*%
X78994000Y-112141000D03*
D14*
X78994000Y-114681000D03*
X78994000Y-117221000D03*
%TD*%
D32*
%TO.C,RP1*%
X172720000Y-142748000D03*
D14*
X170180000Y-142748000D03*
X167640000Y-142748000D03*
X165100000Y-142748000D03*
X162560000Y-142748000D03*
X160020000Y-142748000D03*
X157480000Y-142748000D03*
%TD*%
D22*
%TO.C,C21*%
X138684000Y-125730000D03*
X143684000Y-125730000D03*
%TD*%
%TO.C,C20*%
X165100000Y-111506000D03*
X160100000Y-111506000D03*
%TD*%
%TO.C,C19*%
X128778000Y-125476000D03*
X133778000Y-125476000D03*
%TD*%
%TO.C,C18*%
X88900000Y-132232400D03*
X93900000Y-132232400D03*
%TD*%
%TO.C,C17*%
X176022000Y-139700000D03*
X176022000Y-134700000D03*
%TD*%
%TO.C,C16*%
X101574600Y-132232400D03*
X106574600Y-132232400D03*
%TD*%
%TO.C,C15*%
X116666000Y-79146400D03*
X121666000Y-79146400D03*
%TD*%
%TO.C,C14*%
X116713000Y-50673000D03*
X121713000Y-50673000D03*
%TD*%
%TO.C,C13*%
X104216200Y-50673000D03*
X109216200Y-50673000D03*
%TD*%
%TO.C,C12*%
X91541600Y-50800000D03*
X96541600Y-50800000D03*
%TD*%
%TO.C,C11*%
X78740000Y-58140600D03*
X83740000Y-58140600D03*
%TD*%
%TO.C,C10*%
X66141600Y-58140600D03*
X71141600Y-58140600D03*
%TD*%
%TO.C,C6*%
X72136000Y-107482000D03*
X72136000Y-112482000D03*
%TD*%
%TO.C,R55*%
X72390000Y-91440000D03*
D14*
X72390000Y-83820000D03*
%TD*%
D22*
%TO.C,R50*%
X75184000Y-83820000D03*
D14*
X75184000Y-91440000D03*
%TD*%
D36*
%TO.C,U14*%
X88900000Y-53721000D03*
D37*
X88900000Y-56261000D03*
X88900000Y-58801000D03*
X88900000Y-61341000D03*
X88900000Y-63881000D03*
X88900000Y-66421000D03*
X88900000Y-68961000D03*
X96520000Y-68961000D03*
X96520000Y-66421000D03*
X96520000Y-63881000D03*
X96520000Y-61341000D03*
X96520000Y-58801000D03*
X96520000Y-56261000D03*
X96520000Y-53721000D03*
%TD*%
D36*
%TO.C,U28*%
X88900000Y-113792000D03*
D37*
X88900000Y-116332000D03*
X88900000Y-118872000D03*
X88900000Y-121412000D03*
X88900000Y-123952000D03*
X88900000Y-126492000D03*
X88900000Y-129032000D03*
X96520000Y-129032000D03*
X96520000Y-126492000D03*
X96520000Y-123952000D03*
X96520000Y-121412000D03*
X96520000Y-118872000D03*
X96520000Y-116332000D03*
X96520000Y-113792000D03*
%TD*%
D36*
%TO.C,U24*%
X88900000Y-72771000D03*
D37*
X88900000Y-75311000D03*
X88900000Y-77851000D03*
X88900000Y-80391000D03*
X88900000Y-82931000D03*
X88900000Y-85471000D03*
X88900000Y-88011000D03*
X96520000Y-88011000D03*
X96520000Y-85471000D03*
X96520000Y-82931000D03*
X96520000Y-80391000D03*
X96520000Y-77851000D03*
X96520000Y-75311000D03*
X96520000Y-72771000D03*
%TD*%
D36*
%TO.C,U23*%
X75057000Y-110490000D03*
D37*
X75057000Y-113030000D03*
X75057000Y-115570000D03*
X75057000Y-118110000D03*
X75057000Y-120650000D03*
X75057000Y-123190000D03*
X75057000Y-125730000D03*
X82677000Y-125730000D03*
X82677000Y-123190000D03*
X82677000Y-120650000D03*
X82677000Y-118110000D03*
X82677000Y-115570000D03*
X82677000Y-113030000D03*
X82677000Y-110490000D03*
%TD*%
D36*
%TO.C,U19*%
X114173000Y-128778000D03*
D37*
X114173000Y-131318000D03*
X114173000Y-133858000D03*
X114173000Y-136398000D03*
X114173000Y-138938000D03*
X114173000Y-141478000D03*
X114173000Y-144018000D03*
X121793000Y-144018000D03*
X121793000Y-141478000D03*
X121793000Y-138938000D03*
X121793000Y-136398000D03*
X121793000Y-133858000D03*
X121793000Y-131318000D03*
X121793000Y-128778000D03*
%TD*%
D36*
%TO.C,U18*%
X125984000Y-128778000D03*
D37*
X125984000Y-131318000D03*
X125984000Y-133858000D03*
X125984000Y-136398000D03*
X125984000Y-138938000D03*
X125984000Y-141478000D03*
X125984000Y-144018000D03*
X133604000Y-144018000D03*
X133604000Y-141478000D03*
X133604000Y-138938000D03*
X133604000Y-136398000D03*
X133604000Y-133858000D03*
X133604000Y-131318000D03*
X133604000Y-128778000D03*
%TD*%
D36*
%TO.C,U16*%
X88900000Y-93980000D03*
D37*
X88900000Y-96520000D03*
X88900000Y-99060000D03*
X88900000Y-101600000D03*
X88900000Y-104140000D03*
X88900000Y-106680000D03*
X88900000Y-109220000D03*
X96520000Y-109220000D03*
X96520000Y-106680000D03*
X96520000Y-104140000D03*
X96520000Y-101600000D03*
X96520000Y-99060000D03*
X96520000Y-96520000D03*
X96520000Y-93980000D03*
%TD*%
D36*
%TO.C,U15*%
X101600000Y-53721000D03*
D37*
X101600000Y-56261000D03*
X101600000Y-58801000D03*
X101600000Y-61341000D03*
X101600000Y-63881000D03*
X101600000Y-66421000D03*
X101600000Y-68961000D03*
X109220000Y-68961000D03*
X109220000Y-66421000D03*
X109220000Y-63881000D03*
X109220000Y-61341000D03*
X109220000Y-58801000D03*
X109220000Y-56261000D03*
X109220000Y-53721000D03*
%TD*%
D36*
%TO.C,U13*%
X101600000Y-94356000D03*
D37*
X101600000Y-96896000D03*
X101600000Y-99436000D03*
X101600000Y-101976000D03*
X101600000Y-104516000D03*
X101600000Y-107056000D03*
X101600000Y-109596000D03*
X109220000Y-109596000D03*
X109220000Y-107056000D03*
X109220000Y-104516000D03*
X109220000Y-101976000D03*
X109220000Y-99436000D03*
X109220000Y-96896000D03*
X109220000Y-94356000D03*
%TD*%
D36*
%TO.C,U12*%
X137922000Y-128778000D03*
D37*
X137922000Y-131318000D03*
X137922000Y-133858000D03*
X137922000Y-136398000D03*
X137922000Y-138938000D03*
X137922000Y-141478000D03*
X137922000Y-144018000D03*
X145542000Y-144018000D03*
X145542000Y-141478000D03*
X145542000Y-138938000D03*
X145542000Y-136398000D03*
X145542000Y-133858000D03*
X145542000Y-131318000D03*
X145542000Y-128778000D03*
%TD*%
D36*
%TO.C,U11*%
X75057000Y-129413000D03*
D37*
X75057000Y-131953000D03*
X75057000Y-134493000D03*
X75057000Y-137033000D03*
X75057000Y-139573000D03*
X75057000Y-142113000D03*
X75057000Y-144653000D03*
X82677000Y-144653000D03*
X82677000Y-142113000D03*
X82677000Y-139573000D03*
X82677000Y-137033000D03*
X82677000Y-134493000D03*
X82677000Y-131953000D03*
X82677000Y-129413000D03*
%TD*%
D36*
%TO.C,U10*%
X114173000Y-109474000D03*
D37*
X114173000Y-112014000D03*
X114173000Y-114554000D03*
X114173000Y-117094000D03*
X114173000Y-119634000D03*
X114173000Y-122174000D03*
X114173000Y-124714000D03*
X121793000Y-124714000D03*
X121793000Y-122174000D03*
X121793000Y-119634000D03*
X121793000Y-117094000D03*
X121793000Y-114554000D03*
X121793000Y-112014000D03*
X121793000Y-109474000D03*
%TD*%
D36*
%TO.C,U8*%
X114109500Y-53720000D03*
D37*
X114109500Y-56261000D03*
X114109500Y-58801000D03*
X114109500Y-61341000D03*
X114109500Y-63881000D03*
X114109500Y-66421000D03*
X114109500Y-68961000D03*
X121729500Y-68961000D03*
X121729500Y-66421000D03*
X121729500Y-63881000D03*
X121729500Y-61341000D03*
X121729500Y-58801000D03*
X121729500Y-56261000D03*
X121729500Y-53721000D03*
%TD*%
D36*
%TO.C,U7*%
X76200000Y-61341000D03*
D37*
X76200000Y-63881000D03*
X76200000Y-66421000D03*
X76200000Y-68961000D03*
X76200000Y-71501000D03*
X76200000Y-74041000D03*
X76200000Y-76581000D03*
X83820000Y-76581000D03*
X83820000Y-74041000D03*
X83820000Y-71501000D03*
X83820000Y-68961000D03*
X83820000Y-66421000D03*
X83820000Y-63881000D03*
X83820000Y-61341000D03*
%TD*%
D38*
%TO.C,U6*%
X169418000Y-116840000D03*
D39*
X171958000Y-116840000D03*
X174498000Y-116840000D03*
X177038000Y-116840000D03*
X179578000Y-116840000D03*
X182118000Y-116840000D03*
X184658000Y-116840000D03*
X184658000Y-109220000D03*
X182118000Y-109220000D03*
X179578000Y-109220000D03*
X177038000Y-109220000D03*
X174498000Y-109220000D03*
X171958000Y-109220000D03*
X169418000Y-109220000D03*
%TD*%
D36*
%TO.C,U29*%
X101600000Y-113792000D03*
D37*
X101600000Y-116332000D03*
X101600000Y-118872000D03*
X101600000Y-121412000D03*
X101600000Y-123952000D03*
X101600000Y-126492000D03*
X101600000Y-129032000D03*
X109220000Y-129032000D03*
X109220000Y-126492000D03*
X109220000Y-123952000D03*
X109220000Y-121412000D03*
X109220000Y-118872000D03*
X109220000Y-116332000D03*
X109220000Y-113792000D03*
%TD*%
D36*
%TO.C,U27*%
X101600000Y-72771000D03*
D37*
X101600000Y-75311000D03*
X101600000Y-77851000D03*
X101600000Y-80391000D03*
X101600000Y-82931000D03*
X101600000Y-85471000D03*
X101600000Y-88011000D03*
X101600000Y-90551000D03*
X109220000Y-90551000D03*
X109220000Y-88011000D03*
X109220000Y-85471000D03*
X109220000Y-82931000D03*
X109220000Y-80391000D03*
X109220000Y-77851000D03*
X109220000Y-75311000D03*
X109220000Y-72771000D03*
%TD*%
D36*
%TO.C,U9*%
X149860000Y-111506000D03*
D37*
X149860000Y-114046000D03*
X149860000Y-116586000D03*
X149860000Y-119126000D03*
X149860000Y-121666000D03*
X149860000Y-124206000D03*
X149860000Y-126746000D03*
X149860000Y-129286000D03*
X157480000Y-129286000D03*
X157480000Y-126746000D03*
X157480000Y-124206000D03*
X157480000Y-121666000D03*
X157480000Y-119126000D03*
X157480000Y-116586000D03*
X157480000Y-114046000D03*
X157480000Y-111506000D03*
%TD*%
D40*
%TO.C,U1*%
X114300000Y-82296000D03*
D37*
X114300000Y-84836000D03*
X114300000Y-87376000D03*
X114300000Y-89916000D03*
X114300000Y-92456000D03*
X114300000Y-94996000D03*
X114300000Y-97536000D03*
X114300000Y-100076000D03*
X114300000Y-102616000D03*
X114300000Y-105156000D03*
X121920000Y-105156000D03*
X121920000Y-102616000D03*
X121920000Y-100076000D03*
X121920000Y-97536000D03*
X121920000Y-94996000D03*
X121920000Y-92456000D03*
X121920000Y-89916000D03*
X121920000Y-87376000D03*
X121920000Y-84836000D03*
X121920000Y-82296000D03*
%TD*%
D41*
%TO.C,U4*%
X163068000Y-127508000D03*
D39*
X165608000Y-127508000D03*
X168148000Y-127508000D03*
X170688000Y-127508000D03*
X173228000Y-127508000D03*
X175768000Y-127508000D03*
X178308000Y-127508000D03*
X180848000Y-127508000D03*
X183388000Y-127508000D03*
X185928000Y-127508000D03*
X185928000Y-119888000D03*
X183388000Y-119888000D03*
X180848000Y-119888000D03*
X178308000Y-119888000D03*
X175768000Y-119888000D03*
X173228000Y-119888000D03*
X170688000Y-119888000D03*
X168148000Y-119888000D03*
X165608000Y-119888000D03*
X163068000Y-119888000D03*
%TD*%
D41*
%TO.C,U22*%
X149860000Y-139700000D03*
D39*
X152400000Y-139700000D03*
X154940000Y-139700000D03*
X157480000Y-139700000D03*
X160020000Y-139700000D03*
X162560000Y-139700000D03*
X165100000Y-139700000D03*
X167640000Y-139700000D03*
X170180000Y-139700000D03*
X172720000Y-139700000D03*
X172720000Y-132080000D03*
X170180000Y-132080000D03*
X167640000Y-132080000D03*
X165100000Y-132080000D03*
X162560000Y-132080000D03*
X160020000Y-132080000D03*
X157480000Y-132080000D03*
X154940000Y-132080000D03*
X152400000Y-132080000D03*
X149860000Y-132080000D03*
%TD*%
D36*
%TO.C,U2*%
X127762000Y-70612000D03*
D37*
X127762000Y-73152000D03*
X127762000Y-75692000D03*
X127762000Y-78232000D03*
X127762000Y-80772000D03*
X127762000Y-83312000D03*
X127762000Y-85852000D03*
X127762000Y-88392000D03*
X127762000Y-90932000D03*
X127762000Y-93472000D03*
X127762000Y-96012000D03*
X127762000Y-98552000D03*
X127762000Y-101092000D03*
X127762000Y-103632000D03*
X127762000Y-106172000D03*
X127762000Y-108712000D03*
X127762000Y-111252000D03*
X127762000Y-113792000D03*
X127762000Y-116332000D03*
X127762000Y-118872000D03*
X143002000Y-118872000D03*
X143002000Y-116332000D03*
X143002000Y-113792000D03*
X143002000Y-111252000D03*
X143002000Y-108712000D03*
X143002000Y-106172000D03*
X143002000Y-103632000D03*
X143002000Y-101092000D03*
X143002000Y-98552000D03*
X143002000Y-96012000D03*
X143002000Y-93472000D03*
X143002000Y-90932000D03*
X143002000Y-88392000D03*
X143002000Y-85852000D03*
X143002000Y-83312000D03*
X143002000Y-80772000D03*
X143002000Y-78232000D03*
X143002000Y-75692000D03*
X143002000Y-73152000D03*
X143002000Y-70612000D03*
%TD*%
D36*
%TO.C,U5*%
X154940000Y-70612000D03*
D37*
X154940000Y-73152000D03*
X154940000Y-75692000D03*
X154940000Y-78232000D03*
X154940000Y-80772000D03*
X154940000Y-83312000D03*
X154940000Y-85852000D03*
X154940000Y-88392000D03*
X154940000Y-90932000D03*
X154940000Y-93472000D03*
X154940000Y-96012000D03*
X154940000Y-98552000D03*
X154940000Y-101092000D03*
X154940000Y-103632000D03*
X170180000Y-103632000D03*
X170180000Y-101092000D03*
X170180000Y-98552000D03*
X170180000Y-96012000D03*
X170180000Y-93472000D03*
X170180000Y-90932000D03*
X170180000Y-88392000D03*
X170180000Y-85852000D03*
X170180000Y-83312000D03*
X170180000Y-80772000D03*
X170180000Y-78232000D03*
X170180000Y-75692000D03*
X170180000Y-73152000D03*
X170180000Y-70612000D03*
%TD*%
D36*
%TO.C,U3*%
X174244000Y-70612000D03*
D37*
X174244000Y-73152000D03*
X174244000Y-75692000D03*
X174244000Y-78232000D03*
X174244000Y-80772000D03*
X174244000Y-83312000D03*
X174244000Y-85852000D03*
X174244000Y-88392000D03*
X174244000Y-90932000D03*
X174244000Y-93472000D03*
X174244000Y-96012000D03*
X174244000Y-98552000D03*
X174244000Y-101092000D03*
X174244000Y-103632000D03*
X189484000Y-103632000D03*
X189484000Y-101092000D03*
X189484000Y-98552000D03*
X189484000Y-96012000D03*
X189484000Y-93472000D03*
X189484000Y-90932000D03*
X189484000Y-88392000D03*
X189484000Y-85852000D03*
X189484000Y-83312000D03*
X189484000Y-80772000D03*
X189484000Y-78232000D03*
X189484000Y-75692000D03*
X189484000Y-73152000D03*
X189484000Y-70612000D03*
%TD*%
D13*
%TO.C,RP2*%
X124841000Y-84836000D03*
D14*
X124841000Y-87376000D03*
X124841000Y-89916000D03*
X124841000Y-92456000D03*
X124841000Y-94996000D03*
X124841000Y-97536000D03*
X124841000Y-100076000D03*
X124841000Y-102616000D03*
X124841000Y-105156000D03*
%TD*%
D25*
%TO.C,R20*%
X137414000Y-122174000D03*
D26*
X134874000Y-122174000D03*
%TD*%
D20*
%TO.C,J1*%
X171312840Y-145542000D03*
D21*
X173852840Y-145542000D03*
X176392840Y-145542000D03*
%TD*%
D22*
%TO.C,R21*%
X175666400Y-130624580D03*
D14*
X183286400Y-130624580D03*
%TD*%
D20*
%TO.C,JP2*%
X141635480Y-63449200D03*
D21*
X144175480Y-63449200D03*
%TD*%
D13*
%TO.C,RN3*%
X193040000Y-85852000D03*
D14*
X193040000Y-88392000D03*
X193040000Y-90932000D03*
X193040000Y-93472000D03*
X193040000Y-96012000D03*
X193040000Y-98552000D03*
%TD*%
D36*
%TO.C,U21*%
X63510000Y-61336000D03*
D37*
X63510000Y-63876000D03*
X63510000Y-66416000D03*
X63510000Y-68956000D03*
X63510000Y-71496000D03*
X63510000Y-74036000D03*
X63510000Y-76576000D03*
X71130000Y-76576000D03*
X71130000Y-74036000D03*
X71130000Y-71496000D03*
X71130000Y-68956000D03*
X71130000Y-66416000D03*
X71130000Y-63876000D03*
X71130000Y-61336000D03*
%TD*%
G36*
X200602121Y-48280002D02*
G01*
X200648614Y-48333658D01*
X200660000Y-48386000D01*
X200660000Y-55246000D01*
X200639998Y-55314121D01*
X200586342Y-55360614D01*
X200534000Y-55372000D01*
X149859000Y-55372000D01*
X149790879Y-55351998D01*
X149744386Y-55298342D01*
X149733000Y-55246000D01*
X149733000Y-48386000D01*
X149753002Y-48317879D01*
X149806658Y-48271386D01*
X149859000Y-48260000D01*
X200534000Y-48260000D01*
X200602121Y-48280002D01*
G37*
G36*
X147516121Y-48280002D02*
G01*
X147562614Y-48333658D01*
X147574000Y-48386000D01*
X147574000Y-55246000D01*
X147553998Y-55314121D01*
X147500342Y-55360614D01*
X147448000Y-55372000D01*
X142366000Y-55372000D01*
X142297879Y-55351998D01*
X142251386Y-55298342D01*
X142240000Y-55246000D01*
X142240000Y-48386000D01*
X142260002Y-48317879D01*
X142313658Y-48271386D01*
X142366000Y-48260000D01*
X147448000Y-48260000D01*
X147516121Y-48280002D01*
G37*
M02*
