%TF.GenerationSoftware,KiCad,Pcbnew,9.0.3*%
%TF.CreationDate,2025-08-02T16:42:51+01:00*%
%TF.ProjectId,ZX81plus38,5a583831-706c-4757-9333-382e6b696361,1.10*%
%TF.SameCoordinates,Original*%
%TF.FileFunction,Legend,Bot*%
%TF.FilePolarity,Positive*%
%FSLAX46Y46*%
G04 Gerber Fmt 4.6, Leading zero omitted, Abs format (unit mm)*
G04 Created by KiCad (PCBNEW 9.0.3) date 2025-08-02 16:42:51*
%MOMM*%
%LPD*%
G01*
G04 APERTURE LIST*
%ADD10C,0.200000*%
%ADD11C,0.150000*%
%ADD12C,0.300000*%
G04 APERTURE END LIST*
D10*
X166116000Y-69469000D02*
X166243000Y-69469000D01*
X80391000Y-110617000D02*
X80391000Y-118618000D01*
X179070000Y-77724000D02*
X176149000Y-77724000D01*
X165354000Y-77216000D02*
X163068000Y-77216000D01*
X179070000Y-69723000D02*
X179070000Y-77724000D01*
X77470000Y-118618000D02*
X77470000Y-110617000D01*
X168402000Y-88011000D02*
X168402000Y-90678000D01*
X160655000Y-88011000D02*
X168402000Y-88011000D01*
X160655000Y-84582000D02*
X168402000Y-84582000D01*
X80391000Y-118618000D02*
X77470000Y-118618000D01*
X160655000Y-90678000D02*
X160655000Y-88011000D01*
X176276000Y-69723000D02*
X179070000Y-69723000D01*
X176149000Y-77724000D02*
X176149000Y-69723000D01*
X168402000Y-87249000D02*
X160655000Y-87249000D01*
X168402000Y-90678000D02*
X160655000Y-90678000D01*
X168783000Y-77216000D02*
X166116000Y-77216000D01*
X168402000Y-84582000D02*
X168402000Y-87249000D01*
X162941000Y-77216000D02*
X162687000Y-77216000D01*
X160655000Y-87249000D02*
X160655000Y-84582000D01*
X162687000Y-69469000D02*
X162941000Y-69469000D01*
X166116000Y-77216000D02*
X166116000Y-69469000D01*
X162687000Y-77216000D02*
X162687000Y-69469000D01*
X166243000Y-69469000D02*
X168783000Y-69469000D01*
X77470000Y-110617000D02*
X80391000Y-110617000D01*
X162941000Y-69469000D02*
X165354000Y-69469000D01*
X163068000Y-77216000D02*
X162941000Y-77216000D01*
X165354000Y-69469000D02*
X165354000Y-77216000D01*
X168783000Y-69469000D02*
X168783000Y-77216000D01*
D11*
X158855580Y-61914093D02*
X158903200Y-61866474D01*
X158903200Y-61866474D02*
X158950819Y-61723617D01*
X158950819Y-61723617D02*
X158950819Y-61628379D01*
X158950819Y-61628379D02*
X158903200Y-61485522D01*
X158903200Y-61485522D02*
X158807961Y-61390284D01*
X158807961Y-61390284D02*
X158712723Y-61342665D01*
X158712723Y-61342665D02*
X158522247Y-61295046D01*
X158522247Y-61295046D02*
X158379390Y-61295046D01*
X158379390Y-61295046D02*
X158188914Y-61342665D01*
X158188914Y-61342665D02*
X158093676Y-61390284D01*
X158093676Y-61390284D02*
X157998438Y-61485522D01*
X157998438Y-61485522D02*
X157950819Y-61628379D01*
X157950819Y-61628379D02*
X157950819Y-61723617D01*
X157950819Y-61723617D02*
X157998438Y-61866474D01*
X157998438Y-61866474D02*
X158046057Y-61914093D01*
X158284152Y-62771236D02*
X158950819Y-62771236D01*
X158284152Y-62342665D02*
X158807961Y-62342665D01*
X158807961Y-62342665D02*
X158903200Y-62390284D01*
X158903200Y-62390284D02*
X158950819Y-62485522D01*
X158950819Y-62485522D02*
X158950819Y-62628379D01*
X158950819Y-62628379D02*
X158903200Y-62723617D01*
X158903200Y-62723617D02*
X158855580Y-62771236D01*
X158284152Y-63104570D02*
X158284152Y-63485522D01*
X157950819Y-63247427D02*
X158807961Y-63247427D01*
X158807961Y-63247427D02*
X158903200Y-63295046D01*
X158903200Y-63295046D02*
X158950819Y-63390284D01*
X158950819Y-63390284D02*
X158950819Y-63485522D01*
X158284152Y-64437904D02*
X158284152Y-64818856D01*
X157950819Y-64580761D02*
X158807961Y-64580761D01*
X158807961Y-64580761D02*
X158903200Y-64628380D01*
X158903200Y-64628380D02*
X158950819Y-64723618D01*
X158950819Y-64723618D02*
X158950819Y-64818856D01*
X158950819Y-65295047D02*
X158903200Y-65199809D01*
X158903200Y-65199809D02*
X158855580Y-65152190D01*
X158855580Y-65152190D02*
X158760342Y-65104571D01*
X158760342Y-65104571D02*
X158474628Y-65104571D01*
X158474628Y-65104571D02*
X158379390Y-65152190D01*
X158379390Y-65152190D02*
X158331771Y-65199809D01*
X158331771Y-65199809D02*
X158284152Y-65295047D01*
X158284152Y-65295047D02*
X158284152Y-65437904D01*
X158284152Y-65437904D02*
X158331771Y-65533142D01*
X158331771Y-65533142D02*
X158379390Y-65580761D01*
X158379390Y-65580761D02*
X158474628Y-65628380D01*
X158474628Y-65628380D02*
X158760342Y-65628380D01*
X158760342Y-65628380D02*
X158855580Y-65580761D01*
X158855580Y-65580761D02*
X158903200Y-65533142D01*
X158903200Y-65533142D02*
X158950819Y-65437904D01*
X158950819Y-65437904D02*
X158950819Y-65295047D01*
X158950819Y-67247428D02*
X157950819Y-67247428D01*
X158903200Y-67247428D02*
X158950819Y-67152190D01*
X158950819Y-67152190D02*
X158950819Y-66961714D01*
X158950819Y-66961714D02*
X158903200Y-66866476D01*
X158903200Y-66866476D02*
X158855580Y-66818857D01*
X158855580Y-66818857D02*
X158760342Y-66771238D01*
X158760342Y-66771238D02*
X158474628Y-66771238D01*
X158474628Y-66771238D02*
X158379390Y-66818857D01*
X158379390Y-66818857D02*
X158331771Y-66866476D01*
X158331771Y-66866476D02*
X158284152Y-66961714D01*
X158284152Y-66961714D02*
X158284152Y-67152190D01*
X158284152Y-67152190D02*
X158331771Y-67247428D01*
X158950819Y-67723619D02*
X158284152Y-67723619D01*
X157950819Y-67723619D02*
X157998438Y-67676000D01*
X157998438Y-67676000D02*
X158046057Y-67723619D01*
X158046057Y-67723619D02*
X157998438Y-67771238D01*
X157998438Y-67771238D02*
X157950819Y-67723619D01*
X157950819Y-67723619D02*
X158046057Y-67723619D01*
X158903200Y-68152190D02*
X158950819Y-68247428D01*
X158950819Y-68247428D02*
X158950819Y-68437904D01*
X158950819Y-68437904D02*
X158903200Y-68533142D01*
X158903200Y-68533142D02*
X158807961Y-68580761D01*
X158807961Y-68580761D02*
X158760342Y-68580761D01*
X158760342Y-68580761D02*
X158665104Y-68533142D01*
X158665104Y-68533142D02*
X158617485Y-68437904D01*
X158617485Y-68437904D02*
X158617485Y-68295047D01*
X158617485Y-68295047D02*
X158569866Y-68199809D01*
X158569866Y-68199809D02*
X158474628Y-68152190D01*
X158474628Y-68152190D02*
X158427009Y-68152190D01*
X158427009Y-68152190D02*
X158331771Y-68199809D01*
X158331771Y-68199809D02*
X158284152Y-68295047D01*
X158284152Y-68295047D02*
X158284152Y-68437904D01*
X158284152Y-68437904D02*
X158331771Y-68533142D01*
X158903200Y-69437904D02*
X158950819Y-69342666D01*
X158950819Y-69342666D02*
X158950819Y-69152190D01*
X158950819Y-69152190D02*
X158903200Y-69056952D01*
X158903200Y-69056952D02*
X158855580Y-69009333D01*
X158855580Y-69009333D02*
X158760342Y-68961714D01*
X158760342Y-68961714D02*
X158474628Y-68961714D01*
X158474628Y-68961714D02*
X158379390Y-69009333D01*
X158379390Y-69009333D02*
X158331771Y-69056952D01*
X158331771Y-69056952D02*
X158284152Y-69152190D01*
X158284152Y-69152190D02*
X158284152Y-69342666D01*
X158284152Y-69342666D02*
X158331771Y-69437904D01*
X158950819Y-70009333D02*
X158903200Y-69914095D01*
X158903200Y-69914095D02*
X158855580Y-69866476D01*
X158855580Y-69866476D02*
X158760342Y-69818857D01*
X158760342Y-69818857D02*
X158474628Y-69818857D01*
X158474628Y-69818857D02*
X158379390Y-69866476D01*
X158379390Y-69866476D02*
X158331771Y-69914095D01*
X158331771Y-69914095D02*
X158284152Y-70009333D01*
X158284152Y-70009333D02*
X158284152Y-70152190D01*
X158284152Y-70152190D02*
X158331771Y-70247428D01*
X158331771Y-70247428D02*
X158379390Y-70295047D01*
X158379390Y-70295047D02*
X158474628Y-70342666D01*
X158474628Y-70342666D02*
X158760342Y-70342666D01*
X158760342Y-70342666D02*
X158855580Y-70295047D01*
X158855580Y-70295047D02*
X158903200Y-70247428D01*
X158903200Y-70247428D02*
X158950819Y-70152190D01*
X158950819Y-70152190D02*
X158950819Y-70009333D01*
X158284152Y-70771238D02*
X158950819Y-70771238D01*
X158379390Y-70771238D02*
X158331771Y-70818857D01*
X158331771Y-70818857D02*
X158284152Y-70914095D01*
X158284152Y-70914095D02*
X158284152Y-71056952D01*
X158284152Y-71056952D02*
X158331771Y-71152190D01*
X158331771Y-71152190D02*
X158427009Y-71199809D01*
X158427009Y-71199809D02*
X158950819Y-71199809D01*
X158284152Y-71676000D02*
X158950819Y-71676000D01*
X158379390Y-71676000D02*
X158331771Y-71723619D01*
X158331771Y-71723619D02*
X158284152Y-71818857D01*
X158284152Y-71818857D02*
X158284152Y-71961714D01*
X158284152Y-71961714D02*
X158331771Y-72056952D01*
X158331771Y-72056952D02*
X158427009Y-72104571D01*
X158427009Y-72104571D02*
X158950819Y-72104571D01*
X158903200Y-72961714D02*
X158950819Y-72866476D01*
X158950819Y-72866476D02*
X158950819Y-72676000D01*
X158950819Y-72676000D02*
X158903200Y-72580762D01*
X158903200Y-72580762D02*
X158807961Y-72533143D01*
X158807961Y-72533143D02*
X158427009Y-72533143D01*
X158427009Y-72533143D02*
X158331771Y-72580762D01*
X158331771Y-72580762D02*
X158284152Y-72676000D01*
X158284152Y-72676000D02*
X158284152Y-72866476D01*
X158284152Y-72866476D02*
X158331771Y-72961714D01*
X158331771Y-72961714D02*
X158427009Y-73009333D01*
X158427009Y-73009333D02*
X158522247Y-73009333D01*
X158522247Y-73009333D02*
X158617485Y-72533143D01*
X158903200Y-73866476D02*
X158950819Y-73771238D01*
X158950819Y-73771238D02*
X158950819Y-73580762D01*
X158950819Y-73580762D02*
X158903200Y-73485524D01*
X158903200Y-73485524D02*
X158855580Y-73437905D01*
X158855580Y-73437905D02*
X158760342Y-73390286D01*
X158760342Y-73390286D02*
X158474628Y-73390286D01*
X158474628Y-73390286D02*
X158379390Y-73437905D01*
X158379390Y-73437905D02*
X158331771Y-73485524D01*
X158331771Y-73485524D02*
X158284152Y-73580762D01*
X158284152Y-73580762D02*
X158284152Y-73771238D01*
X158284152Y-73771238D02*
X158331771Y-73866476D01*
X158284152Y-74152191D02*
X158284152Y-74533143D01*
X157950819Y-74295048D02*
X158807961Y-74295048D01*
X158807961Y-74295048D02*
X158903200Y-74342667D01*
X158903200Y-74342667D02*
X158950819Y-74437905D01*
X158950819Y-74437905D02*
X158950819Y-74533143D01*
X158950819Y-75628382D02*
X157950819Y-75628382D01*
X157950819Y-75628382D02*
X157950819Y-76009334D01*
X157950819Y-76009334D02*
X157998438Y-76104572D01*
X157998438Y-76104572D02*
X158046057Y-76152191D01*
X158046057Y-76152191D02*
X158141295Y-76199810D01*
X158141295Y-76199810D02*
X158284152Y-76199810D01*
X158284152Y-76199810D02*
X158379390Y-76152191D01*
X158379390Y-76152191D02*
X158427009Y-76104572D01*
X158427009Y-76104572D02*
X158474628Y-76009334D01*
X158474628Y-76009334D02*
X158474628Y-75628382D01*
X158950819Y-76628382D02*
X157950819Y-76628382D01*
X158950819Y-77104572D02*
X157950819Y-77104572D01*
X157950819Y-77104572D02*
X158950819Y-77676000D01*
X158950819Y-77676000D02*
X157950819Y-77676000D01*
X158950819Y-78676000D02*
X158950819Y-78104572D01*
X158950819Y-78390286D02*
X157950819Y-78390286D01*
X157950819Y-78390286D02*
X158093676Y-78295048D01*
X158093676Y-78295048D02*
X158188914Y-78199810D01*
X158188914Y-78199810D02*
X158236533Y-78104572D01*
X158284152Y-79723620D02*
X158284152Y-80104572D01*
X158950819Y-79866477D02*
X158093676Y-79866477D01*
X158093676Y-79866477D02*
X157998438Y-79914096D01*
X157998438Y-79914096D02*
X157950819Y-80009334D01*
X157950819Y-80009334D02*
X157950819Y-80104572D01*
X158950819Y-80580763D02*
X158903200Y-80485525D01*
X158903200Y-80485525D02*
X158855580Y-80437906D01*
X158855580Y-80437906D02*
X158760342Y-80390287D01*
X158760342Y-80390287D02*
X158474628Y-80390287D01*
X158474628Y-80390287D02*
X158379390Y-80437906D01*
X158379390Y-80437906D02*
X158331771Y-80485525D01*
X158331771Y-80485525D02*
X158284152Y-80580763D01*
X158284152Y-80580763D02*
X158284152Y-80723620D01*
X158284152Y-80723620D02*
X158331771Y-80818858D01*
X158331771Y-80818858D02*
X158379390Y-80866477D01*
X158379390Y-80866477D02*
X158474628Y-80914096D01*
X158474628Y-80914096D02*
X158760342Y-80914096D01*
X158760342Y-80914096D02*
X158855580Y-80866477D01*
X158855580Y-80866477D02*
X158903200Y-80818858D01*
X158903200Y-80818858D02*
X158950819Y-80723620D01*
X158950819Y-80723620D02*
X158950819Y-80580763D01*
X158950819Y-81342668D02*
X158284152Y-81342668D01*
X158474628Y-81342668D02*
X158379390Y-81390287D01*
X158379390Y-81390287D02*
X158331771Y-81437906D01*
X158331771Y-81437906D02*
X158284152Y-81533144D01*
X158284152Y-81533144D02*
X158284152Y-81628382D01*
X158046057Y-82676002D02*
X157998438Y-82723621D01*
X157998438Y-82723621D02*
X157950819Y-82818859D01*
X157950819Y-82818859D02*
X157950819Y-83056954D01*
X157950819Y-83056954D02*
X157998438Y-83152192D01*
X157998438Y-83152192D02*
X158046057Y-83199811D01*
X158046057Y-83199811D02*
X158141295Y-83247430D01*
X158141295Y-83247430D02*
X158236533Y-83247430D01*
X158236533Y-83247430D02*
X158379390Y-83199811D01*
X158379390Y-83199811D02*
X158950819Y-82628383D01*
X158950819Y-82628383D02*
X158950819Y-83247430D01*
X158379390Y-83818859D02*
X158331771Y-83723621D01*
X158331771Y-83723621D02*
X158284152Y-83676002D01*
X158284152Y-83676002D02*
X158188914Y-83628383D01*
X158188914Y-83628383D02*
X158141295Y-83628383D01*
X158141295Y-83628383D02*
X158046057Y-83676002D01*
X158046057Y-83676002D02*
X157998438Y-83723621D01*
X157998438Y-83723621D02*
X157950819Y-83818859D01*
X157950819Y-83818859D02*
X157950819Y-84009335D01*
X157950819Y-84009335D02*
X157998438Y-84104573D01*
X157998438Y-84104573D02*
X158046057Y-84152192D01*
X158046057Y-84152192D02*
X158141295Y-84199811D01*
X158141295Y-84199811D02*
X158188914Y-84199811D01*
X158188914Y-84199811D02*
X158284152Y-84152192D01*
X158284152Y-84152192D02*
X158331771Y-84104573D01*
X158331771Y-84104573D02*
X158379390Y-84009335D01*
X158379390Y-84009335D02*
X158379390Y-83818859D01*
X158379390Y-83818859D02*
X158427009Y-83723621D01*
X158427009Y-83723621D02*
X158474628Y-83676002D01*
X158474628Y-83676002D02*
X158569866Y-83628383D01*
X158569866Y-83628383D02*
X158760342Y-83628383D01*
X158760342Y-83628383D02*
X158855580Y-83676002D01*
X158855580Y-83676002D02*
X158903200Y-83723621D01*
X158903200Y-83723621D02*
X158950819Y-83818859D01*
X158950819Y-83818859D02*
X158950819Y-84009335D01*
X158950819Y-84009335D02*
X158903200Y-84104573D01*
X158903200Y-84104573D02*
X158855580Y-84152192D01*
X158855580Y-84152192D02*
X158760342Y-84199811D01*
X158760342Y-84199811D02*
X158569866Y-84199811D01*
X158569866Y-84199811D02*
X158474628Y-84152192D01*
X158474628Y-84152192D02*
X158427009Y-84104573D01*
X158427009Y-84104573D02*
X158379390Y-84009335D01*
X158855580Y-85199811D02*
X158903200Y-85152192D01*
X158903200Y-85152192D02*
X158950819Y-85009335D01*
X158950819Y-85009335D02*
X158950819Y-84914097D01*
X158950819Y-84914097D02*
X158903200Y-84771240D01*
X158903200Y-84771240D02*
X158807961Y-84676002D01*
X158807961Y-84676002D02*
X158712723Y-84628383D01*
X158712723Y-84628383D02*
X158522247Y-84580764D01*
X158522247Y-84580764D02*
X158379390Y-84580764D01*
X158379390Y-84580764D02*
X158188914Y-84628383D01*
X158188914Y-84628383D02*
X158093676Y-84676002D01*
X158093676Y-84676002D02*
X157998438Y-84771240D01*
X157998438Y-84771240D02*
X157950819Y-84914097D01*
X157950819Y-84914097D02*
X157950819Y-85009335D01*
X157950819Y-85009335D02*
X157998438Y-85152192D01*
X157998438Y-85152192D02*
X158046057Y-85199811D01*
X158046057Y-85580764D02*
X157998438Y-85628383D01*
X157998438Y-85628383D02*
X157950819Y-85723621D01*
X157950819Y-85723621D02*
X157950819Y-85961716D01*
X157950819Y-85961716D02*
X157998438Y-86056954D01*
X157998438Y-86056954D02*
X158046057Y-86104573D01*
X158046057Y-86104573D02*
X158141295Y-86152192D01*
X158141295Y-86152192D02*
X158236533Y-86152192D01*
X158236533Y-86152192D02*
X158379390Y-86104573D01*
X158379390Y-86104573D02*
X158950819Y-85533145D01*
X158950819Y-85533145D02*
X158950819Y-86152192D01*
X157950819Y-87056954D02*
X157950819Y-86580764D01*
X157950819Y-86580764D02*
X158427009Y-86533145D01*
X158427009Y-86533145D02*
X158379390Y-86580764D01*
X158379390Y-86580764D02*
X158331771Y-86676002D01*
X158331771Y-86676002D02*
X158331771Y-86914097D01*
X158331771Y-86914097D02*
X158379390Y-87009335D01*
X158379390Y-87009335D02*
X158427009Y-87056954D01*
X158427009Y-87056954D02*
X158522247Y-87104573D01*
X158522247Y-87104573D02*
X158760342Y-87104573D01*
X158760342Y-87104573D02*
X158855580Y-87056954D01*
X158855580Y-87056954D02*
X158903200Y-87009335D01*
X158903200Y-87009335D02*
X158950819Y-86914097D01*
X158950819Y-86914097D02*
X158950819Y-86676002D01*
X158950819Y-86676002D02*
X158903200Y-86580764D01*
X158903200Y-86580764D02*
X158855580Y-86533145D01*
X157950819Y-87961716D02*
X157950819Y-87771240D01*
X157950819Y-87771240D02*
X157998438Y-87676002D01*
X157998438Y-87676002D02*
X158046057Y-87628383D01*
X158046057Y-87628383D02*
X158188914Y-87533145D01*
X158188914Y-87533145D02*
X158379390Y-87485526D01*
X158379390Y-87485526D02*
X158760342Y-87485526D01*
X158760342Y-87485526D02*
X158855580Y-87533145D01*
X158855580Y-87533145D02*
X158903200Y-87580764D01*
X158903200Y-87580764D02*
X158950819Y-87676002D01*
X158950819Y-87676002D02*
X158950819Y-87866478D01*
X158950819Y-87866478D02*
X158903200Y-87961716D01*
X158903200Y-87961716D02*
X158855580Y-88009335D01*
X158855580Y-88009335D02*
X158760342Y-88056954D01*
X158760342Y-88056954D02*
X158522247Y-88056954D01*
X158522247Y-88056954D02*
X158427009Y-88009335D01*
X158427009Y-88009335D02*
X158379390Y-87961716D01*
X158379390Y-87961716D02*
X158331771Y-87866478D01*
X158331771Y-87866478D02*
X158331771Y-87676002D01*
X158331771Y-87676002D02*
X158379390Y-87580764D01*
X158379390Y-87580764D02*
X158427009Y-87533145D01*
X158427009Y-87533145D02*
X158522247Y-87485526D01*
D10*
X185625857Y-79985980D02*
X185673476Y-80033600D01*
X185673476Y-80033600D02*
X185816333Y-80081219D01*
X185816333Y-80081219D02*
X185911571Y-80081219D01*
X185911571Y-80081219D02*
X186054428Y-80033600D01*
X186054428Y-80033600D02*
X186149666Y-79938361D01*
X186149666Y-79938361D02*
X186197285Y-79843123D01*
X186197285Y-79843123D02*
X186244904Y-79652647D01*
X186244904Y-79652647D02*
X186244904Y-79509790D01*
X186244904Y-79509790D02*
X186197285Y-79319314D01*
X186197285Y-79319314D02*
X186149666Y-79224076D01*
X186149666Y-79224076D02*
X186054428Y-79128838D01*
X186054428Y-79128838D02*
X185911571Y-79081219D01*
X185911571Y-79081219D02*
X185816333Y-79081219D01*
X185816333Y-79081219D02*
X185673476Y-79128838D01*
X185673476Y-79128838D02*
X185625857Y-79176457D01*
X185197285Y-80081219D02*
X185197285Y-79081219D01*
X184768714Y-80081219D02*
X184768714Y-79557409D01*
X184768714Y-79557409D02*
X184816333Y-79462171D01*
X184816333Y-79462171D02*
X184911571Y-79414552D01*
X184911571Y-79414552D02*
X185054428Y-79414552D01*
X185054428Y-79414552D02*
X185149666Y-79462171D01*
X185149666Y-79462171D02*
X185197285Y-79509790D01*
X183863952Y-80081219D02*
X183863952Y-79557409D01*
X183863952Y-79557409D02*
X183911571Y-79462171D01*
X183911571Y-79462171D02*
X184006809Y-79414552D01*
X184006809Y-79414552D02*
X184197285Y-79414552D01*
X184197285Y-79414552D02*
X184292523Y-79462171D01*
X183863952Y-80033600D02*
X183959190Y-80081219D01*
X183959190Y-80081219D02*
X184197285Y-80081219D01*
X184197285Y-80081219D02*
X184292523Y-80033600D01*
X184292523Y-80033600D02*
X184340142Y-79938361D01*
X184340142Y-79938361D02*
X184340142Y-79843123D01*
X184340142Y-79843123D02*
X184292523Y-79747885D01*
X184292523Y-79747885D02*
X184197285Y-79700266D01*
X184197285Y-79700266D02*
X183959190Y-79700266D01*
X183959190Y-79700266D02*
X183863952Y-79652647D01*
X183387761Y-79414552D02*
X183387761Y-80081219D01*
X183387761Y-79509790D02*
X183340142Y-79462171D01*
X183340142Y-79462171D02*
X183244904Y-79414552D01*
X183244904Y-79414552D02*
X183102047Y-79414552D01*
X183102047Y-79414552D02*
X183006809Y-79462171D01*
X183006809Y-79462171D02*
X182959190Y-79557409D01*
X182959190Y-79557409D02*
X182959190Y-80081219D01*
X182054428Y-79414552D02*
X182054428Y-80224076D01*
X182054428Y-80224076D02*
X182102047Y-80319314D01*
X182102047Y-80319314D02*
X182149666Y-80366933D01*
X182149666Y-80366933D02*
X182244904Y-80414552D01*
X182244904Y-80414552D02*
X182387761Y-80414552D01*
X182387761Y-80414552D02*
X182482999Y-80366933D01*
X182054428Y-80033600D02*
X182149666Y-80081219D01*
X182149666Y-80081219D02*
X182340142Y-80081219D01*
X182340142Y-80081219D02*
X182435380Y-80033600D01*
X182435380Y-80033600D02*
X182482999Y-79985980D01*
X182482999Y-79985980D02*
X182530618Y-79890742D01*
X182530618Y-79890742D02*
X182530618Y-79605028D01*
X182530618Y-79605028D02*
X182482999Y-79509790D01*
X182482999Y-79509790D02*
X182435380Y-79462171D01*
X182435380Y-79462171D02*
X182340142Y-79414552D01*
X182340142Y-79414552D02*
X182149666Y-79414552D01*
X182149666Y-79414552D02*
X182054428Y-79462171D01*
X181197285Y-80033600D02*
X181292523Y-80081219D01*
X181292523Y-80081219D02*
X181482999Y-80081219D01*
X181482999Y-80081219D02*
X181578237Y-80033600D01*
X181578237Y-80033600D02*
X181625856Y-79938361D01*
X181625856Y-79938361D02*
X181625856Y-79557409D01*
X181625856Y-79557409D02*
X181578237Y-79462171D01*
X181578237Y-79462171D02*
X181482999Y-79414552D01*
X181482999Y-79414552D02*
X181292523Y-79414552D01*
X181292523Y-79414552D02*
X181197285Y-79462171D01*
X181197285Y-79462171D02*
X181149666Y-79557409D01*
X181149666Y-79557409D02*
X181149666Y-79652647D01*
X181149666Y-79652647D02*
X181625856Y-79747885D01*
X179673475Y-79081219D02*
X179673475Y-79795504D01*
X179673475Y-79795504D02*
X179721094Y-79938361D01*
X179721094Y-79938361D02*
X179816332Y-80033600D01*
X179816332Y-80033600D02*
X179959189Y-80081219D01*
X179959189Y-80081219D02*
X180054427Y-80081219D01*
X179197284Y-80081219D02*
X179197284Y-79081219D01*
X179197284Y-79081219D02*
X178816332Y-79081219D01*
X178816332Y-79081219D02*
X178721094Y-79128838D01*
X178721094Y-79128838D02*
X178673475Y-79176457D01*
X178673475Y-79176457D02*
X178625856Y-79271695D01*
X178625856Y-79271695D02*
X178625856Y-79414552D01*
X178625856Y-79414552D02*
X178673475Y-79509790D01*
X178673475Y-79509790D02*
X178721094Y-79557409D01*
X178721094Y-79557409D02*
X178816332Y-79605028D01*
X178816332Y-79605028D02*
X179197284Y-79605028D01*
X177673475Y-80081219D02*
X178244903Y-80081219D01*
X177959189Y-80081219D02*
X177959189Y-79081219D01*
X177959189Y-79081219D02*
X178054427Y-79224076D01*
X178054427Y-79224076D02*
X178149665Y-79319314D01*
X178149665Y-79319314D02*
X178244903Y-79366933D01*
X177292522Y-79176457D02*
X177244903Y-79128838D01*
X177244903Y-79128838D02*
X177149665Y-79081219D01*
X177149665Y-79081219D02*
X176911570Y-79081219D01*
X176911570Y-79081219D02*
X176816332Y-79128838D01*
X176816332Y-79128838D02*
X176768713Y-79176457D01*
X176768713Y-79176457D02*
X176721094Y-79271695D01*
X176721094Y-79271695D02*
X176721094Y-79366933D01*
X176721094Y-79366933D02*
X176768713Y-79509790D01*
X176768713Y-79509790D02*
X177340141Y-80081219D01*
X177340141Y-80081219D02*
X176721094Y-80081219D01*
X186276666Y-81446552D02*
X185895714Y-81446552D01*
X186133809Y-82113219D02*
X186133809Y-81256076D01*
X186133809Y-81256076D02*
X186086190Y-81160838D01*
X186086190Y-81160838D02*
X185990952Y-81113219D01*
X185990952Y-81113219D02*
X185895714Y-81113219D01*
X185419523Y-82113219D02*
X185514761Y-82065600D01*
X185514761Y-82065600D02*
X185562380Y-82017980D01*
X185562380Y-82017980D02*
X185609999Y-81922742D01*
X185609999Y-81922742D02*
X185609999Y-81637028D01*
X185609999Y-81637028D02*
X185562380Y-81541790D01*
X185562380Y-81541790D02*
X185514761Y-81494171D01*
X185514761Y-81494171D02*
X185419523Y-81446552D01*
X185419523Y-81446552D02*
X185276666Y-81446552D01*
X185276666Y-81446552D02*
X185181428Y-81494171D01*
X185181428Y-81494171D02*
X185133809Y-81541790D01*
X185133809Y-81541790D02*
X185086190Y-81637028D01*
X185086190Y-81637028D02*
X185086190Y-81922742D01*
X185086190Y-81922742D02*
X185133809Y-82017980D01*
X185133809Y-82017980D02*
X185181428Y-82065600D01*
X185181428Y-82065600D02*
X185276666Y-82113219D01*
X185276666Y-82113219D02*
X185419523Y-82113219D01*
X184657618Y-82113219D02*
X184657618Y-81446552D01*
X184657618Y-81637028D02*
X184609999Y-81541790D01*
X184609999Y-81541790D02*
X184562380Y-81494171D01*
X184562380Y-81494171D02*
X184467142Y-81446552D01*
X184467142Y-81446552D02*
X184371904Y-81446552D01*
X183371903Y-81113219D02*
X182752856Y-81113219D01*
X182752856Y-81113219D02*
X183086189Y-81494171D01*
X183086189Y-81494171D02*
X182943332Y-81494171D01*
X182943332Y-81494171D02*
X182848094Y-81541790D01*
X182848094Y-81541790D02*
X182800475Y-81589409D01*
X182800475Y-81589409D02*
X182752856Y-81684647D01*
X182752856Y-81684647D02*
X182752856Y-81922742D01*
X182752856Y-81922742D02*
X182800475Y-82017980D01*
X182800475Y-82017980D02*
X182848094Y-82065600D01*
X182848094Y-82065600D02*
X182943332Y-82113219D01*
X182943332Y-82113219D02*
X183229046Y-82113219D01*
X183229046Y-82113219D02*
X183324284Y-82065600D01*
X183324284Y-82065600D02*
X183371903Y-82017980D01*
X182371903Y-81208457D02*
X182324284Y-81160838D01*
X182324284Y-81160838D02*
X182229046Y-81113219D01*
X182229046Y-81113219D02*
X181990951Y-81113219D01*
X181990951Y-81113219D02*
X181895713Y-81160838D01*
X181895713Y-81160838D02*
X181848094Y-81208457D01*
X181848094Y-81208457D02*
X181800475Y-81303695D01*
X181800475Y-81303695D02*
X181800475Y-81398933D01*
X181800475Y-81398933D02*
X181848094Y-81541790D01*
X181848094Y-81541790D02*
X182419522Y-82113219D01*
X182419522Y-82113219D02*
X181800475Y-82113219D01*
X181371903Y-82113219D02*
X181371903Y-81113219D01*
X180800475Y-82113219D02*
X181229046Y-81541790D01*
X180800475Y-81113219D02*
X181371903Y-81684647D01*
X179038570Y-82113219D02*
X179371903Y-81637028D01*
X179609998Y-82113219D02*
X179609998Y-81113219D01*
X179609998Y-81113219D02*
X179229046Y-81113219D01*
X179229046Y-81113219D02*
X179133808Y-81160838D01*
X179133808Y-81160838D02*
X179086189Y-81208457D01*
X179086189Y-81208457D02*
X179038570Y-81303695D01*
X179038570Y-81303695D02*
X179038570Y-81446552D01*
X179038570Y-81446552D02*
X179086189Y-81541790D01*
X179086189Y-81541790D02*
X179133808Y-81589409D01*
X179133808Y-81589409D02*
X179229046Y-81637028D01*
X179229046Y-81637028D02*
X179609998Y-81637028D01*
X178657617Y-81827504D02*
X178181427Y-81827504D01*
X178752855Y-82113219D02*
X178419522Y-81113219D01*
X178419522Y-81113219D02*
X178086189Y-82113219D01*
X177752855Y-82113219D02*
X177752855Y-81113219D01*
X177752855Y-81113219D02*
X177419522Y-81827504D01*
X177419522Y-81827504D02*
X177086189Y-81113219D01*
X177086189Y-81113219D02*
X177086189Y-82113219D01*
D11*
X158966819Y-88805808D02*
X158966819Y-89377236D01*
X159966819Y-89091522D02*
X158966819Y-89091522D01*
X159966819Y-89853427D02*
X159919200Y-89758189D01*
X159919200Y-89758189D02*
X159871580Y-89710570D01*
X159871580Y-89710570D02*
X159776342Y-89662951D01*
X159776342Y-89662951D02*
X159490628Y-89662951D01*
X159490628Y-89662951D02*
X159395390Y-89710570D01*
X159395390Y-89710570D02*
X159347771Y-89758189D01*
X159347771Y-89758189D02*
X159300152Y-89853427D01*
X159300152Y-89853427D02*
X159300152Y-89996284D01*
X159300152Y-89996284D02*
X159347771Y-90091522D01*
X159347771Y-90091522D02*
X159395390Y-90139141D01*
X159395390Y-90139141D02*
X159490628Y-90186760D01*
X159490628Y-90186760D02*
X159776342Y-90186760D01*
X159776342Y-90186760D02*
X159871580Y-90139141D01*
X159871580Y-90139141D02*
X159919200Y-90091522D01*
X159919200Y-90091522D02*
X159966819Y-89996284D01*
X159966819Y-89996284D02*
X159966819Y-89853427D01*
X159919200Y-91329618D02*
X159966819Y-91424856D01*
X159966819Y-91424856D02*
X159966819Y-91615332D01*
X159966819Y-91615332D02*
X159919200Y-91710570D01*
X159919200Y-91710570D02*
X159823961Y-91758189D01*
X159823961Y-91758189D02*
X159776342Y-91758189D01*
X159776342Y-91758189D02*
X159681104Y-91710570D01*
X159681104Y-91710570D02*
X159633485Y-91615332D01*
X159633485Y-91615332D02*
X159633485Y-91472475D01*
X159633485Y-91472475D02*
X159585866Y-91377237D01*
X159585866Y-91377237D02*
X159490628Y-91329618D01*
X159490628Y-91329618D02*
X159443009Y-91329618D01*
X159443009Y-91329618D02*
X159347771Y-91377237D01*
X159347771Y-91377237D02*
X159300152Y-91472475D01*
X159300152Y-91472475D02*
X159300152Y-91615332D01*
X159300152Y-91615332D02*
X159347771Y-91710570D01*
X159300152Y-92091523D02*
X159966819Y-92281999D01*
X159966819Y-92281999D02*
X159490628Y-92472475D01*
X159490628Y-92472475D02*
X159966819Y-92662951D01*
X159966819Y-92662951D02*
X159300152Y-92853427D01*
X159966819Y-93234380D02*
X159300152Y-93234380D01*
X158966819Y-93234380D02*
X159014438Y-93186761D01*
X159014438Y-93186761D02*
X159062057Y-93234380D01*
X159062057Y-93234380D02*
X159014438Y-93281999D01*
X159014438Y-93281999D02*
X158966819Y-93234380D01*
X158966819Y-93234380D02*
X159062057Y-93234380D01*
X159300152Y-93567713D02*
X159300152Y-93948665D01*
X158966819Y-93710570D02*
X159823961Y-93710570D01*
X159823961Y-93710570D02*
X159919200Y-93758189D01*
X159919200Y-93758189D02*
X159966819Y-93853427D01*
X159966819Y-93853427D02*
X159966819Y-93948665D01*
X159919200Y-94710570D02*
X159966819Y-94615332D01*
X159966819Y-94615332D02*
X159966819Y-94424856D01*
X159966819Y-94424856D02*
X159919200Y-94329618D01*
X159919200Y-94329618D02*
X159871580Y-94281999D01*
X159871580Y-94281999D02*
X159776342Y-94234380D01*
X159776342Y-94234380D02*
X159490628Y-94234380D01*
X159490628Y-94234380D02*
X159395390Y-94281999D01*
X159395390Y-94281999D02*
X159347771Y-94329618D01*
X159347771Y-94329618D02*
X159300152Y-94424856D01*
X159300152Y-94424856D02*
X159300152Y-94615332D01*
X159300152Y-94615332D02*
X159347771Y-94710570D01*
X159966819Y-95139142D02*
X158966819Y-95139142D01*
X159966819Y-95567713D02*
X159443009Y-95567713D01*
X159443009Y-95567713D02*
X159347771Y-95520094D01*
X159347771Y-95520094D02*
X159300152Y-95424856D01*
X159300152Y-95424856D02*
X159300152Y-95281999D01*
X159300152Y-95281999D02*
X159347771Y-95186761D01*
X159347771Y-95186761D02*
X159395390Y-95139142D01*
X159919200Y-97234380D02*
X159966819Y-97139142D01*
X159966819Y-97139142D02*
X159966819Y-96948666D01*
X159966819Y-96948666D02*
X159919200Y-96853428D01*
X159919200Y-96853428D02*
X159871580Y-96805809D01*
X159871580Y-96805809D02*
X159776342Y-96758190D01*
X159776342Y-96758190D02*
X159490628Y-96758190D01*
X159490628Y-96758190D02*
X159395390Y-96805809D01*
X159395390Y-96805809D02*
X159347771Y-96853428D01*
X159347771Y-96853428D02*
X159300152Y-96948666D01*
X159300152Y-96948666D02*
X159300152Y-97139142D01*
X159300152Y-97139142D02*
X159347771Y-97234380D01*
X159966819Y-97805809D02*
X159919200Y-97710571D01*
X159919200Y-97710571D02*
X159871580Y-97662952D01*
X159871580Y-97662952D02*
X159776342Y-97615333D01*
X159776342Y-97615333D02*
X159490628Y-97615333D01*
X159490628Y-97615333D02*
X159395390Y-97662952D01*
X159395390Y-97662952D02*
X159347771Y-97710571D01*
X159347771Y-97710571D02*
X159300152Y-97805809D01*
X159300152Y-97805809D02*
X159300152Y-97948666D01*
X159300152Y-97948666D02*
X159347771Y-98043904D01*
X159347771Y-98043904D02*
X159395390Y-98091523D01*
X159395390Y-98091523D02*
X159490628Y-98139142D01*
X159490628Y-98139142D02*
X159776342Y-98139142D01*
X159776342Y-98139142D02*
X159871580Y-98091523D01*
X159871580Y-98091523D02*
X159919200Y-98043904D01*
X159919200Y-98043904D02*
X159966819Y-97948666D01*
X159966819Y-97948666D02*
X159966819Y-97805809D01*
X159300152Y-98567714D02*
X159966819Y-98567714D01*
X159395390Y-98567714D02*
X159347771Y-98615333D01*
X159347771Y-98615333D02*
X159300152Y-98710571D01*
X159300152Y-98710571D02*
X159300152Y-98853428D01*
X159300152Y-98853428D02*
X159347771Y-98948666D01*
X159347771Y-98948666D02*
X159443009Y-98996285D01*
X159443009Y-98996285D02*
X159966819Y-98996285D01*
X159300152Y-99329619D02*
X159300152Y-99710571D01*
X158966819Y-99472476D02*
X159823961Y-99472476D01*
X159823961Y-99472476D02*
X159919200Y-99520095D01*
X159919200Y-99520095D02*
X159966819Y-99615333D01*
X159966819Y-99615333D02*
X159966819Y-99710571D01*
X159966819Y-100043905D02*
X159300152Y-100043905D01*
X159490628Y-100043905D02*
X159395390Y-100091524D01*
X159395390Y-100091524D02*
X159347771Y-100139143D01*
X159347771Y-100139143D02*
X159300152Y-100234381D01*
X159300152Y-100234381D02*
X159300152Y-100329619D01*
X159966819Y-100805810D02*
X159919200Y-100710572D01*
X159919200Y-100710572D02*
X159871580Y-100662953D01*
X159871580Y-100662953D02*
X159776342Y-100615334D01*
X159776342Y-100615334D02*
X159490628Y-100615334D01*
X159490628Y-100615334D02*
X159395390Y-100662953D01*
X159395390Y-100662953D02*
X159347771Y-100710572D01*
X159347771Y-100710572D02*
X159300152Y-100805810D01*
X159300152Y-100805810D02*
X159300152Y-100948667D01*
X159300152Y-100948667D02*
X159347771Y-101043905D01*
X159347771Y-101043905D02*
X159395390Y-101091524D01*
X159395390Y-101091524D02*
X159490628Y-101139143D01*
X159490628Y-101139143D02*
X159776342Y-101139143D01*
X159776342Y-101139143D02*
X159871580Y-101091524D01*
X159871580Y-101091524D02*
X159919200Y-101043905D01*
X159919200Y-101043905D02*
X159966819Y-100948667D01*
X159966819Y-100948667D02*
X159966819Y-100805810D01*
X159966819Y-101710572D02*
X159919200Y-101615334D01*
X159919200Y-101615334D02*
X159823961Y-101567715D01*
X159823961Y-101567715D02*
X158966819Y-101567715D01*
X159681104Y-102805811D02*
X159681104Y-103282001D01*
X159966819Y-102710573D02*
X158966819Y-103043906D01*
X158966819Y-103043906D02*
X159966819Y-103377239D01*
X159966819Y-104234382D02*
X159966819Y-103662954D01*
X159966819Y-103948668D02*
X158966819Y-103948668D01*
X158966819Y-103948668D02*
X159109676Y-103853430D01*
X159109676Y-103853430D02*
X159204914Y-103758192D01*
X159204914Y-103758192D02*
X159252533Y-103662954D01*
X158966819Y-104567716D02*
X158966819Y-105186763D01*
X158966819Y-105186763D02*
X159347771Y-104853430D01*
X159347771Y-104853430D02*
X159347771Y-104996287D01*
X159347771Y-104996287D02*
X159395390Y-105091525D01*
X159395390Y-105091525D02*
X159443009Y-105139144D01*
X159443009Y-105139144D02*
X159538247Y-105186763D01*
X159538247Y-105186763D02*
X159776342Y-105186763D01*
X159776342Y-105186763D02*
X159871580Y-105139144D01*
X159871580Y-105139144D02*
X159919200Y-105091525D01*
X159919200Y-105091525D02*
X159966819Y-104996287D01*
X159966819Y-104996287D02*
X159966819Y-104710573D01*
X159966819Y-104710573D02*
X159919200Y-104615335D01*
X159919200Y-104615335D02*
X159871580Y-104567716D01*
X159919200Y-105662954D02*
X159966819Y-105662954D01*
X159966819Y-105662954D02*
X160062057Y-105615335D01*
X160062057Y-105615335D02*
X160109676Y-105567716D01*
X161887819Y-94020285D02*
X162602104Y-94020285D01*
X162602104Y-94020285D02*
X162744961Y-93972666D01*
X162744961Y-93972666D02*
X162840200Y-93877428D01*
X162840200Y-93877428D02*
X162887819Y-93734571D01*
X162887819Y-93734571D02*
X162887819Y-93639333D01*
X162887819Y-94496476D02*
X161887819Y-94496476D01*
X161887819Y-94496476D02*
X161887819Y-94877428D01*
X161887819Y-94877428D02*
X161935438Y-94972666D01*
X161935438Y-94972666D02*
X161983057Y-95020285D01*
X161983057Y-95020285D02*
X162078295Y-95067904D01*
X162078295Y-95067904D02*
X162221152Y-95067904D01*
X162221152Y-95067904D02*
X162316390Y-95020285D01*
X162316390Y-95020285D02*
X162364009Y-94972666D01*
X162364009Y-94972666D02*
X162411628Y-94877428D01*
X162411628Y-94877428D02*
X162411628Y-94496476D01*
X162887819Y-95544095D02*
X162887819Y-95734571D01*
X162887819Y-95734571D02*
X162840200Y-95829809D01*
X162840200Y-95829809D02*
X162792580Y-95877428D01*
X162792580Y-95877428D02*
X162649723Y-95972666D01*
X162649723Y-95972666D02*
X162459247Y-96020285D01*
X162459247Y-96020285D02*
X162078295Y-96020285D01*
X162078295Y-96020285D02*
X161983057Y-95972666D01*
X161983057Y-95972666D02*
X161935438Y-95925047D01*
X161935438Y-95925047D02*
X161887819Y-95829809D01*
X161887819Y-95829809D02*
X161887819Y-95639333D01*
X161887819Y-95639333D02*
X161935438Y-95544095D01*
X161935438Y-95544095D02*
X161983057Y-95496476D01*
X161983057Y-95496476D02*
X162078295Y-95448857D01*
X162078295Y-95448857D02*
X162316390Y-95448857D01*
X162316390Y-95448857D02*
X162411628Y-95496476D01*
X162411628Y-95496476D02*
X162459247Y-95544095D01*
X162459247Y-95544095D02*
X162506866Y-95639333D01*
X162506866Y-95639333D02*
X162506866Y-95829809D01*
X162506866Y-95829809D02*
X162459247Y-95925047D01*
X162459247Y-95925047D02*
X162411628Y-95972666D01*
X162411628Y-95972666D02*
X162316390Y-96020285D01*
X162887819Y-97639333D02*
X162364009Y-97639333D01*
X162364009Y-97639333D02*
X162268771Y-97591714D01*
X162268771Y-97591714D02*
X162221152Y-97496476D01*
X162221152Y-97496476D02*
X162221152Y-97306000D01*
X162221152Y-97306000D02*
X162268771Y-97210762D01*
X162840200Y-97639333D02*
X162887819Y-97544095D01*
X162887819Y-97544095D02*
X162887819Y-97306000D01*
X162887819Y-97306000D02*
X162840200Y-97210762D01*
X162840200Y-97210762D02*
X162744961Y-97163143D01*
X162744961Y-97163143D02*
X162649723Y-97163143D01*
X162649723Y-97163143D02*
X162554485Y-97210762D01*
X162554485Y-97210762D02*
X162506866Y-97306000D01*
X162506866Y-97306000D02*
X162506866Y-97544095D01*
X162506866Y-97544095D02*
X162459247Y-97639333D01*
X162221152Y-98115524D02*
X162887819Y-98115524D01*
X162316390Y-98115524D02*
X162268771Y-98163143D01*
X162268771Y-98163143D02*
X162221152Y-98258381D01*
X162221152Y-98258381D02*
X162221152Y-98401238D01*
X162221152Y-98401238D02*
X162268771Y-98496476D01*
X162268771Y-98496476D02*
X162364009Y-98544095D01*
X162364009Y-98544095D02*
X162887819Y-98544095D01*
X162887819Y-99448857D02*
X161887819Y-99448857D01*
X162840200Y-99448857D02*
X162887819Y-99353619D01*
X162887819Y-99353619D02*
X162887819Y-99163143D01*
X162887819Y-99163143D02*
X162840200Y-99067905D01*
X162840200Y-99067905D02*
X162792580Y-99020286D01*
X162792580Y-99020286D02*
X162697342Y-98972667D01*
X162697342Y-98972667D02*
X162411628Y-98972667D01*
X162411628Y-98972667D02*
X162316390Y-99020286D01*
X162316390Y-99020286D02*
X162268771Y-99067905D01*
X162268771Y-99067905D02*
X162221152Y-99163143D01*
X162221152Y-99163143D02*
X162221152Y-99353619D01*
X162221152Y-99353619D02*
X162268771Y-99448857D01*
X161887819Y-100972667D02*
X162602104Y-100972667D01*
X162602104Y-100972667D02*
X162744961Y-100925048D01*
X162744961Y-100925048D02*
X162840200Y-100829810D01*
X162840200Y-100829810D02*
X162887819Y-100686953D01*
X162887819Y-100686953D02*
X162887819Y-100591715D01*
X162887819Y-101448858D02*
X161887819Y-101448858D01*
X161887819Y-101448858D02*
X161887819Y-101829810D01*
X161887819Y-101829810D02*
X161935438Y-101925048D01*
X161935438Y-101925048D02*
X161983057Y-101972667D01*
X161983057Y-101972667D02*
X162078295Y-102020286D01*
X162078295Y-102020286D02*
X162221152Y-102020286D01*
X162221152Y-102020286D02*
X162316390Y-101972667D01*
X162316390Y-101972667D02*
X162364009Y-101925048D01*
X162364009Y-101925048D02*
X162411628Y-101829810D01*
X162411628Y-101829810D02*
X162411628Y-101448858D01*
X162887819Y-102972667D02*
X162887819Y-102401239D01*
X162887819Y-102686953D02*
X161887819Y-102686953D01*
X161887819Y-102686953D02*
X162030676Y-102591715D01*
X162030676Y-102591715D02*
X162125914Y-102496477D01*
X162125914Y-102496477D02*
X162173533Y-102401239D01*
X161887819Y-103591715D02*
X161887819Y-103686953D01*
X161887819Y-103686953D02*
X161935438Y-103782191D01*
X161935438Y-103782191D02*
X161983057Y-103829810D01*
X161983057Y-103829810D02*
X162078295Y-103877429D01*
X162078295Y-103877429D02*
X162268771Y-103925048D01*
X162268771Y-103925048D02*
X162506866Y-103925048D01*
X162506866Y-103925048D02*
X162697342Y-103877429D01*
X162697342Y-103877429D02*
X162792580Y-103829810D01*
X162792580Y-103829810D02*
X162840200Y-103782191D01*
X162840200Y-103782191D02*
X162887819Y-103686953D01*
X162887819Y-103686953D02*
X162887819Y-103591715D01*
X162887819Y-103591715D02*
X162840200Y-103496477D01*
X162840200Y-103496477D02*
X162792580Y-103448858D01*
X162792580Y-103448858D02*
X162697342Y-103401239D01*
X162697342Y-103401239D02*
X162506866Y-103353620D01*
X162506866Y-103353620D02*
X162268771Y-103353620D01*
X162268771Y-103353620D02*
X162078295Y-103401239D01*
X162078295Y-103401239D02*
X161983057Y-103448858D01*
X161983057Y-103448858D02*
X161935438Y-103496477D01*
X161935438Y-103496477D02*
X161887819Y-103591715D01*
D10*
X137564524Y-76175980D02*
X137612143Y-76223600D01*
X137612143Y-76223600D02*
X137755000Y-76271219D01*
X137755000Y-76271219D02*
X137850238Y-76271219D01*
X137850238Y-76271219D02*
X137993095Y-76223600D01*
X137993095Y-76223600D02*
X138088333Y-76128361D01*
X138088333Y-76128361D02*
X138135952Y-76033123D01*
X138135952Y-76033123D02*
X138183571Y-75842647D01*
X138183571Y-75842647D02*
X138183571Y-75699790D01*
X138183571Y-75699790D02*
X138135952Y-75509314D01*
X138135952Y-75509314D02*
X138088333Y-75414076D01*
X138088333Y-75414076D02*
X137993095Y-75318838D01*
X137993095Y-75318838D02*
X137850238Y-75271219D01*
X137850238Y-75271219D02*
X137755000Y-75271219D01*
X137755000Y-75271219D02*
X137612143Y-75318838D01*
X137612143Y-75318838D02*
X137564524Y-75366457D01*
X137135952Y-76271219D02*
X137135952Y-75271219D01*
X136707381Y-76271219D02*
X136707381Y-75747409D01*
X136707381Y-75747409D02*
X136755000Y-75652171D01*
X136755000Y-75652171D02*
X136850238Y-75604552D01*
X136850238Y-75604552D02*
X136993095Y-75604552D01*
X136993095Y-75604552D02*
X137088333Y-75652171D01*
X137088333Y-75652171D02*
X137135952Y-75699790D01*
X135802619Y-76271219D02*
X135802619Y-75747409D01*
X135802619Y-75747409D02*
X135850238Y-75652171D01*
X135850238Y-75652171D02*
X135945476Y-75604552D01*
X135945476Y-75604552D02*
X136135952Y-75604552D01*
X136135952Y-75604552D02*
X136231190Y-75652171D01*
X135802619Y-76223600D02*
X135897857Y-76271219D01*
X135897857Y-76271219D02*
X136135952Y-76271219D01*
X136135952Y-76271219D02*
X136231190Y-76223600D01*
X136231190Y-76223600D02*
X136278809Y-76128361D01*
X136278809Y-76128361D02*
X136278809Y-76033123D01*
X136278809Y-76033123D02*
X136231190Y-75937885D01*
X136231190Y-75937885D02*
X136135952Y-75890266D01*
X136135952Y-75890266D02*
X135897857Y-75890266D01*
X135897857Y-75890266D02*
X135802619Y-75842647D01*
X135326428Y-75604552D02*
X135326428Y-76271219D01*
X135326428Y-75699790D02*
X135278809Y-75652171D01*
X135278809Y-75652171D02*
X135183571Y-75604552D01*
X135183571Y-75604552D02*
X135040714Y-75604552D01*
X135040714Y-75604552D02*
X134945476Y-75652171D01*
X134945476Y-75652171D02*
X134897857Y-75747409D01*
X134897857Y-75747409D02*
X134897857Y-76271219D01*
X133993095Y-75604552D02*
X133993095Y-76414076D01*
X133993095Y-76414076D02*
X134040714Y-76509314D01*
X134040714Y-76509314D02*
X134088333Y-76556933D01*
X134088333Y-76556933D02*
X134183571Y-76604552D01*
X134183571Y-76604552D02*
X134326428Y-76604552D01*
X134326428Y-76604552D02*
X134421666Y-76556933D01*
X133993095Y-76223600D02*
X134088333Y-76271219D01*
X134088333Y-76271219D02*
X134278809Y-76271219D01*
X134278809Y-76271219D02*
X134374047Y-76223600D01*
X134374047Y-76223600D02*
X134421666Y-76175980D01*
X134421666Y-76175980D02*
X134469285Y-76080742D01*
X134469285Y-76080742D02*
X134469285Y-75795028D01*
X134469285Y-75795028D02*
X134421666Y-75699790D01*
X134421666Y-75699790D02*
X134374047Y-75652171D01*
X134374047Y-75652171D02*
X134278809Y-75604552D01*
X134278809Y-75604552D02*
X134088333Y-75604552D01*
X134088333Y-75604552D02*
X133993095Y-75652171D01*
X133135952Y-76223600D02*
X133231190Y-76271219D01*
X133231190Y-76271219D02*
X133421666Y-76271219D01*
X133421666Y-76271219D02*
X133516904Y-76223600D01*
X133516904Y-76223600D02*
X133564523Y-76128361D01*
X133564523Y-76128361D02*
X133564523Y-75747409D01*
X133564523Y-75747409D02*
X133516904Y-75652171D01*
X133516904Y-75652171D02*
X133421666Y-75604552D01*
X133421666Y-75604552D02*
X133231190Y-75604552D01*
X133231190Y-75604552D02*
X133135952Y-75652171D01*
X133135952Y-75652171D02*
X133088333Y-75747409D01*
X133088333Y-75747409D02*
X133088333Y-75842647D01*
X133088333Y-75842647D02*
X133564523Y-75937885D01*
D11*
X161078104Y-93845809D02*
X161078104Y-94321999D01*
X161363819Y-93750571D02*
X160363819Y-94083904D01*
X160363819Y-94083904D02*
X161363819Y-94417237D01*
X161363819Y-95274380D02*
X161363819Y-94702952D01*
X161363819Y-94988666D02*
X160363819Y-94988666D01*
X160363819Y-94988666D02*
X160506676Y-94893428D01*
X160506676Y-94893428D02*
X160601914Y-94798190D01*
X160601914Y-94798190D02*
X160649533Y-94702952D01*
X160697152Y-96131523D02*
X161363819Y-96131523D01*
X160316200Y-95893428D02*
X161030485Y-95655333D01*
X161030485Y-95655333D02*
X161030485Y-96274380D01*
X161363819Y-97845809D02*
X160363819Y-97845809D01*
X161316200Y-97845809D02*
X161363819Y-97750571D01*
X161363819Y-97750571D02*
X161363819Y-97560095D01*
X161363819Y-97560095D02*
X161316200Y-97464857D01*
X161316200Y-97464857D02*
X161268580Y-97417238D01*
X161268580Y-97417238D02*
X161173342Y-97369619D01*
X161173342Y-97369619D02*
X160887628Y-97369619D01*
X160887628Y-97369619D02*
X160792390Y-97417238D01*
X160792390Y-97417238D02*
X160744771Y-97464857D01*
X160744771Y-97464857D02*
X160697152Y-97560095D01*
X160697152Y-97560095D02*
X160697152Y-97750571D01*
X160697152Y-97750571D02*
X160744771Y-97845809D01*
X161363819Y-98322000D02*
X160697152Y-98322000D01*
X160363819Y-98322000D02*
X160411438Y-98274381D01*
X160411438Y-98274381D02*
X160459057Y-98322000D01*
X160459057Y-98322000D02*
X160411438Y-98369619D01*
X160411438Y-98369619D02*
X160363819Y-98322000D01*
X160363819Y-98322000D02*
X160459057Y-98322000D01*
X161316200Y-98750571D02*
X161363819Y-98845809D01*
X161363819Y-98845809D02*
X161363819Y-99036285D01*
X161363819Y-99036285D02*
X161316200Y-99131523D01*
X161316200Y-99131523D02*
X161220961Y-99179142D01*
X161220961Y-99179142D02*
X161173342Y-99179142D01*
X161173342Y-99179142D02*
X161078104Y-99131523D01*
X161078104Y-99131523D02*
X161030485Y-99036285D01*
X161030485Y-99036285D02*
X161030485Y-98893428D01*
X161030485Y-98893428D02*
X160982866Y-98798190D01*
X160982866Y-98798190D02*
X160887628Y-98750571D01*
X160887628Y-98750571D02*
X160840009Y-98750571D01*
X160840009Y-98750571D02*
X160744771Y-98798190D01*
X160744771Y-98798190D02*
X160697152Y-98893428D01*
X160697152Y-98893428D02*
X160697152Y-99036285D01*
X160697152Y-99036285D02*
X160744771Y-99131523D01*
X161316200Y-100036285D02*
X161363819Y-99941047D01*
X161363819Y-99941047D02*
X161363819Y-99750571D01*
X161363819Y-99750571D02*
X161316200Y-99655333D01*
X161316200Y-99655333D02*
X161268580Y-99607714D01*
X161268580Y-99607714D02*
X161173342Y-99560095D01*
X161173342Y-99560095D02*
X160887628Y-99560095D01*
X160887628Y-99560095D02*
X160792390Y-99607714D01*
X160792390Y-99607714D02*
X160744771Y-99655333D01*
X160744771Y-99655333D02*
X160697152Y-99750571D01*
X160697152Y-99750571D02*
X160697152Y-99941047D01*
X160697152Y-99941047D02*
X160744771Y-100036285D01*
X161363819Y-100607714D02*
X161316200Y-100512476D01*
X161316200Y-100512476D02*
X161268580Y-100464857D01*
X161268580Y-100464857D02*
X161173342Y-100417238D01*
X161173342Y-100417238D02*
X160887628Y-100417238D01*
X160887628Y-100417238D02*
X160792390Y-100464857D01*
X160792390Y-100464857D02*
X160744771Y-100512476D01*
X160744771Y-100512476D02*
X160697152Y-100607714D01*
X160697152Y-100607714D02*
X160697152Y-100750571D01*
X160697152Y-100750571D02*
X160744771Y-100845809D01*
X160744771Y-100845809D02*
X160792390Y-100893428D01*
X160792390Y-100893428D02*
X160887628Y-100941047D01*
X160887628Y-100941047D02*
X161173342Y-100941047D01*
X161173342Y-100941047D02*
X161268580Y-100893428D01*
X161268580Y-100893428D02*
X161316200Y-100845809D01*
X161316200Y-100845809D02*
X161363819Y-100750571D01*
X161363819Y-100750571D02*
X161363819Y-100607714D01*
X160697152Y-101369619D02*
X161363819Y-101369619D01*
X160792390Y-101369619D02*
X160744771Y-101417238D01*
X160744771Y-101417238D02*
X160697152Y-101512476D01*
X160697152Y-101512476D02*
X160697152Y-101655333D01*
X160697152Y-101655333D02*
X160744771Y-101750571D01*
X160744771Y-101750571D02*
X160840009Y-101798190D01*
X160840009Y-101798190D02*
X161363819Y-101798190D01*
X160697152Y-102274381D02*
X161363819Y-102274381D01*
X160792390Y-102274381D02*
X160744771Y-102322000D01*
X160744771Y-102322000D02*
X160697152Y-102417238D01*
X160697152Y-102417238D02*
X160697152Y-102560095D01*
X160697152Y-102560095D02*
X160744771Y-102655333D01*
X160744771Y-102655333D02*
X160840009Y-102702952D01*
X160840009Y-102702952D02*
X161363819Y-102702952D01*
X161316200Y-103560095D02*
X161363819Y-103464857D01*
X161363819Y-103464857D02*
X161363819Y-103274381D01*
X161363819Y-103274381D02*
X161316200Y-103179143D01*
X161316200Y-103179143D02*
X161220961Y-103131524D01*
X161220961Y-103131524D02*
X160840009Y-103131524D01*
X160840009Y-103131524D02*
X160744771Y-103179143D01*
X160744771Y-103179143D02*
X160697152Y-103274381D01*
X160697152Y-103274381D02*
X160697152Y-103464857D01*
X160697152Y-103464857D02*
X160744771Y-103560095D01*
X160744771Y-103560095D02*
X160840009Y-103607714D01*
X160840009Y-103607714D02*
X160935247Y-103607714D01*
X160935247Y-103607714D02*
X161030485Y-103131524D01*
X161316200Y-104464857D02*
X161363819Y-104369619D01*
X161363819Y-104369619D02*
X161363819Y-104179143D01*
X161363819Y-104179143D02*
X161316200Y-104083905D01*
X161316200Y-104083905D02*
X161268580Y-104036286D01*
X161268580Y-104036286D02*
X161173342Y-103988667D01*
X161173342Y-103988667D02*
X160887628Y-103988667D01*
X160887628Y-103988667D02*
X160792390Y-104036286D01*
X160792390Y-104036286D02*
X160744771Y-104083905D01*
X160744771Y-104083905D02*
X160697152Y-104179143D01*
X160697152Y-104179143D02*
X160697152Y-104369619D01*
X160697152Y-104369619D02*
X160744771Y-104464857D01*
X160697152Y-104750572D02*
X160697152Y-105131524D01*
X160363819Y-104893429D02*
X161220961Y-104893429D01*
X161220961Y-104893429D02*
X161316200Y-104941048D01*
X161316200Y-104941048D02*
X161363819Y-105036286D01*
X161363819Y-105036286D02*
X161363819Y-105131524D01*
D12*
X157029511Y-68893963D02*
X156600940Y-70036820D01*
X156600940Y-70036820D02*
X156172368Y-68893963D01*
X156600940Y-68179677D02*
X156600940Y-67036820D01*
D10*
X141342333Y-79287552D02*
X140961381Y-79287552D01*
X141199476Y-79954219D02*
X141199476Y-79097076D01*
X141199476Y-79097076D02*
X141151857Y-79001838D01*
X141151857Y-79001838D02*
X141056619Y-78954219D01*
X141056619Y-78954219D02*
X140961381Y-78954219D01*
X140485190Y-79954219D02*
X140580428Y-79906600D01*
X140580428Y-79906600D02*
X140628047Y-79858980D01*
X140628047Y-79858980D02*
X140675666Y-79763742D01*
X140675666Y-79763742D02*
X140675666Y-79478028D01*
X140675666Y-79478028D02*
X140628047Y-79382790D01*
X140628047Y-79382790D02*
X140580428Y-79335171D01*
X140580428Y-79335171D02*
X140485190Y-79287552D01*
X140485190Y-79287552D02*
X140342333Y-79287552D01*
X140342333Y-79287552D02*
X140247095Y-79335171D01*
X140247095Y-79335171D02*
X140199476Y-79382790D01*
X140199476Y-79382790D02*
X140151857Y-79478028D01*
X140151857Y-79478028D02*
X140151857Y-79763742D01*
X140151857Y-79763742D02*
X140199476Y-79858980D01*
X140199476Y-79858980D02*
X140247095Y-79906600D01*
X140247095Y-79906600D02*
X140342333Y-79954219D01*
X140342333Y-79954219D02*
X140485190Y-79954219D01*
X139723285Y-79954219D02*
X139723285Y-79287552D01*
X139723285Y-79478028D02*
X139675666Y-79382790D01*
X139675666Y-79382790D02*
X139628047Y-79335171D01*
X139628047Y-79335171D02*
X139532809Y-79287552D01*
X139532809Y-79287552D02*
X139437571Y-79287552D01*
X138437570Y-78954219D02*
X137770904Y-78954219D01*
X137770904Y-78954219D02*
X138437570Y-79954219D01*
X138437570Y-79954219D02*
X137770904Y-79954219D01*
X137485189Y-78954219D02*
X136818523Y-79954219D01*
X136818523Y-78954219D02*
X137485189Y-79954219D01*
X136437570Y-79573266D02*
X135675666Y-79573266D01*
X135056618Y-79382790D02*
X135151856Y-79335171D01*
X135151856Y-79335171D02*
X135199475Y-79287552D01*
X135199475Y-79287552D02*
X135247094Y-79192314D01*
X135247094Y-79192314D02*
X135247094Y-79144695D01*
X135247094Y-79144695D02*
X135199475Y-79049457D01*
X135199475Y-79049457D02*
X135151856Y-79001838D01*
X135151856Y-79001838D02*
X135056618Y-78954219D01*
X135056618Y-78954219D02*
X134866142Y-78954219D01*
X134866142Y-78954219D02*
X134770904Y-79001838D01*
X134770904Y-79001838D02*
X134723285Y-79049457D01*
X134723285Y-79049457D02*
X134675666Y-79144695D01*
X134675666Y-79144695D02*
X134675666Y-79192314D01*
X134675666Y-79192314D02*
X134723285Y-79287552D01*
X134723285Y-79287552D02*
X134770904Y-79335171D01*
X134770904Y-79335171D02*
X134866142Y-79382790D01*
X134866142Y-79382790D02*
X135056618Y-79382790D01*
X135056618Y-79382790D02*
X135151856Y-79430409D01*
X135151856Y-79430409D02*
X135199475Y-79478028D01*
X135199475Y-79478028D02*
X135247094Y-79573266D01*
X135247094Y-79573266D02*
X135247094Y-79763742D01*
X135247094Y-79763742D02*
X135199475Y-79858980D01*
X135199475Y-79858980D02*
X135151856Y-79906600D01*
X135151856Y-79906600D02*
X135056618Y-79954219D01*
X135056618Y-79954219D02*
X134866142Y-79954219D01*
X134866142Y-79954219D02*
X134770904Y-79906600D01*
X134770904Y-79906600D02*
X134723285Y-79858980D01*
X134723285Y-79858980D02*
X134675666Y-79763742D01*
X134675666Y-79763742D02*
X134675666Y-79573266D01*
X134675666Y-79573266D02*
X134723285Y-79478028D01*
X134723285Y-79478028D02*
X134770904Y-79430409D01*
X134770904Y-79430409D02*
X134866142Y-79382790D01*
X133723285Y-79954219D02*
X134294713Y-79954219D01*
X134008999Y-79954219D02*
X134008999Y-78954219D01*
X134008999Y-78954219D02*
X134104237Y-79097076D01*
X134104237Y-79097076D02*
X134199475Y-79192314D01*
X134199475Y-79192314D02*
X134294713Y-79239933D01*
X131961380Y-79954219D02*
X132294713Y-79478028D01*
X132532808Y-79954219D02*
X132532808Y-78954219D01*
X132532808Y-78954219D02*
X132151856Y-78954219D01*
X132151856Y-78954219D02*
X132056618Y-79001838D01*
X132056618Y-79001838D02*
X132008999Y-79049457D01*
X132008999Y-79049457D02*
X131961380Y-79144695D01*
X131961380Y-79144695D02*
X131961380Y-79287552D01*
X131961380Y-79287552D02*
X132008999Y-79382790D01*
X132008999Y-79382790D02*
X132056618Y-79430409D01*
X132056618Y-79430409D02*
X132151856Y-79478028D01*
X132151856Y-79478028D02*
X132532808Y-79478028D01*
X131342332Y-78954219D02*
X131151856Y-78954219D01*
X131151856Y-78954219D02*
X131056618Y-79001838D01*
X131056618Y-79001838D02*
X130961380Y-79097076D01*
X130961380Y-79097076D02*
X130913761Y-79287552D01*
X130913761Y-79287552D02*
X130913761Y-79620885D01*
X130913761Y-79620885D02*
X130961380Y-79811361D01*
X130961380Y-79811361D02*
X131056618Y-79906600D01*
X131056618Y-79906600D02*
X131151856Y-79954219D01*
X131151856Y-79954219D02*
X131342332Y-79954219D01*
X131342332Y-79954219D02*
X131437570Y-79906600D01*
X131437570Y-79906600D02*
X131532808Y-79811361D01*
X131532808Y-79811361D02*
X131580427Y-79620885D01*
X131580427Y-79620885D02*
X131580427Y-79287552D01*
X131580427Y-79287552D02*
X131532808Y-79097076D01*
X131532808Y-79097076D02*
X131437570Y-79001838D01*
X131437570Y-79001838D02*
X131342332Y-78954219D01*
X130485189Y-79954219D02*
X130485189Y-78954219D01*
X130485189Y-78954219D02*
X130151856Y-79668504D01*
X130151856Y-79668504D02*
X129818523Y-78954219D01*
X129818523Y-78954219D02*
X129818523Y-79954219D01*
D11*
X85148009Y-108546617D02*
X85148009Y-108213284D01*
X85671819Y-108213284D02*
X84671819Y-108213284D01*
X84671819Y-108213284D02*
X84671819Y-108689474D01*
X85671819Y-109213284D02*
X85624200Y-109118046D01*
X85624200Y-109118046D02*
X85576580Y-109070427D01*
X85576580Y-109070427D02*
X85481342Y-109022808D01*
X85481342Y-109022808D02*
X85195628Y-109022808D01*
X85195628Y-109022808D02*
X85100390Y-109070427D01*
X85100390Y-109070427D02*
X85052771Y-109118046D01*
X85052771Y-109118046D02*
X85005152Y-109213284D01*
X85005152Y-109213284D02*
X85005152Y-109356141D01*
X85005152Y-109356141D02*
X85052771Y-109451379D01*
X85052771Y-109451379D02*
X85100390Y-109498998D01*
X85100390Y-109498998D02*
X85195628Y-109546617D01*
X85195628Y-109546617D02*
X85481342Y-109546617D01*
X85481342Y-109546617D02*
X85576580Y-109498998D01*
X85576580Y-109498998D02*
X85624200Y-109451379D01*
X85624200Y-109451379D02*
X85671819Y-109356141D01*
X85671819Y-109356141D02*
X85671819Y-109213284D01*
X85671819Y-109975189D02*
X85005152Y-109975189D01*
X85195628Y-109975189D02*
X85100390Y-110022808D01*
X85100390Y-110022808D02*
X85052771Y-110070427D01*
X85052771Y-110070427D02*
X85005152Y-110165665D01*
X85005152Y-110165665D02*
X85005152Y-110260903D01*
X85100390Y-111498999D02*
X85052771Y-111403761D01*
X85052771Y-111403761D02*
X85005152Y-111356142D01*
X85005152Y-111356142D02*
X84909914Y-111308523D01*
X84909914Y-111308523D02*
X84862295Y-111308523D01*
X84862295Y-111308523D02*
X84767057Y-111356142D01*
X84767057Y-111356142D02*
X84719438Y-111403761D01*
X84719438Y-111403761D02*
X84671819Y-111498999D01*
X84671819Y-111498999D02*
X84671819Y-111689475D01*
X84671819Y-111689475D02*
X84719438Y-111784713D01*
X84719438Y-111784713D02*
X84767057Y-111832332D01*
X84767057Y-111832332D02*
X84862295Y-111879951D01*
X84862295Y-111879951D02*
X84909914Y-111879951D01*
X84909914Y-111879951D02*
X85005152Y-111832332D01*
X85005152Y-111832332D02*
X85052771Y-111784713D01*
X85052771Y-111784713D02*
X85100390Y-111689475D01*
X85100390Y-111689475D02*
X85100390Y-111498999D01*
X85100390Y-111498999D02*
X85148009Y-111403761D01*
X85148009Y-111403761D02*
X85195628Y-111356142D01*
X85195628Y-111356142D02*
X85290866Y-111308523D01*
X85290866Y-111308523D02*
X85481342Y-111308523D01*
X85481342Y-111308523D02*
X85576580Y-111356142D01*
X85576580Y-111356142D02*
X85624200Y-111403761D01*
X85624200Y-111403761D02*
X85671819Y-111498999D01*
X85671819Y-111498999D02*
X85671819Y-111689475D01*
X85671819Y-111689475D02*
X85624200Y-111784713D01*
X85624200Y-111784713D02*
X85576580Y-111832332D01*
X85576580Y-111832332D02*
X85481342Y-111879951D01*
X85481342Y-111879951D02*
X85290866Y-111879951D01*
X85290866Y-111879951D02*
X85195628Y-111832332D01*
X85195628Y-111832332D02*
X85148009Y-111784713D01*
X85148009Y-111784713D02*
X85100390Y-111689475D01*
X85671819Y-112308523D02*
X84671819Y-112308523D01*
X85671819Y-112879951D02*
X85100390Y-112451380D01*
X84671819Y-112879951D02*
X85243247Y-112308523D01*
X85671819Y-114641856D02*
X85195628Y-114308523D01*
X85671819Y-114070428D02*
X84671819Y-114070428D01*
X84671819Y-114070428D02*
X84671819Y-114451380D01*
X84671819Y-114451380D02*
X84719438Y-114546618D01*
X84719438Y-114546618D02*
X84767057Y-114594237D01*
X84767057Y-114594237D02*
X84862295Y-114641856D01*
X84862295Y-114641856D02*
X85005152Y-114641856D01*
X85005152Y-114641856D02*
X85100390Y-114594237D01*
X85100390Y-114594237D02*
X85148009Y-114546618D01*
X85148009Y-114546618D02*
X85195628Y-114451380D01*
X85195628Y-114451380D02*
X85195628Y-114070428D01*
X84671819Y-115260904D02*
X84671819Y-115451380D01*
X84671819Y-115451380D02*
X84719438Y-115546618D01*
X84719438Y-115546618D02*
X84814676Y-115641856D01*
X84814676Y-115641856D02*
X85005152Y-115689475D01*
X85005152Y-115689475D02*
X85338485Y-115689475D01*
X85338485Y-115689475D02*
X85528961Y-115641856D01*
X85528961Y-115641856D02*
X85624200Y-115546618D01*
X85624200Y-115546618D02*
X85671819Y-115451380D01*
X85671819Y-115451380D02*
X85671819Y-115260904D01*
X85671819Y-115260904D02*
X85624200Y-115165666D01*
X85624200Y-115165666D02*
X85528961Y-115070428D01*
X85528961Y-115070428D02*
X85338485Y-115022809D01*
X85338485Y-115022809D02*
X85005152Y-115022809D01*
X85005152Y-115022809D02*
X84814676Y-115070428D01*
X84814676Y-115070428D02*
X84719438Y-115165666D01*
X84719438Y-115165666D02*
X84671819Y-115260904D01*
X85671819Y-116118047D02*
X84671819Y-116118047D01*
X84671819Y-116118047D02*
X85386104Y-116451380D01*
X85386104Y-116451380D02*
X84671819Y-116784713D01*
X84671819Y-116784713D02*
X85671819Y-116784713D01*
X85624200Y-117975190D02*
X85671819Y-118070428D01*
X85671819Y-118070428D02*
X85671819Y-118260904D01*
X85671819Y-118260904D02*
X85624200Y-118356142D01*
X85624200Y-118356142D02*
X85528961Y-118403761D01*
X85528961Y-118403761D02*
X85481342Y-118403761D01*
X85481342Y-118403761D02*
X85386104Y-118356142D01*
X85386104Y-118356142D02*
X85338485Y-118260904D01*
X85338485Y-118260904D02*
X85338485Y-118118047D01*
X85338485Y-118118047D02*
X85290866Y-118022809D01*
X85290866Y-118022809D02*
X85195628Y-117975190D01*
X85195628Y-117975190D02*
X85148009Y-117975190D01*
X85148009Y-117975190D02*
X85052771Y-118022809D01*
X85052771Y-118022809D02*
X85005152Y-118118047D01*
X85005152Y-118118047D02*
X85005152Y-118260904D01*
X85005152Y-118260904D02*
X85052771Y-118356142D01*
X85005152Y-118832333D02*
X86005152Y-118832333D01*
X85052771Y-118832333D02*
X85005152Y-118927571D01*
X85005152Y-118927571D02*
X85005152Y-119118047D01*
X85005152Y-119118047D02*
X85052771Y-119213285D01*
X85052771Y-119213285D02*
X85100390Y-119260904D01*
X85100390Y-119260904D02*
X85195628Y-119308523D01*
X85195628Y-119308523D02*
X85481342Y-119308523D01*
X85481342Y-119308523D02*
X85576580Y-119260904D01*
X85576580Y-119260904D02*
X85624200Y-119213285D01*
X85624200Y-119213285D02*
X85671819Y-119118047D01*
X85671819Y-119118047D02*
X85671819Y-118927571D01*
X85671819Y-118927571D02*
X85624200Y-118832333D01*
X85671819Y-120165666D02*
X85148009Y-120165666D01*
X85148009Y-120165666D02*
X85052771Y-120118047D01*
X85052771Y-120118047D02*
X85005152Y-120022809D01*
X85005152Y-120022809D02*
X85005152Y-119832333D01*
X85005152Y-119832333D02*
X85052771Y-119737095D01*
X85624200Y-120165666D02*
X85671819Y-120070428D01*
X85671819Y-120070428D02*
X85671819Y-119832333D01*
X85671819Y-119832333D02*
X85624200Y-119737095D01*
X85624200Y-119737095D02*
X85528961Y-119689476D01*
X85528961Y-119689476D02*
X85433723Y-119689476D01*
X85433723Y-119689476D02*
X85338485Y-119737095D01*
X85338485Y-119737095D02*
X85290866Y-119832333D01*
X85290866Y-119832333D02*
X85290866Y-120070428D01*
X85290866Y-120070428D02*
X85243247Y-120165666D01*
X85624200Y-121070428D02*
X85671819Y-120975190D01*
X85671819Y-120975190D02*
X85671819Y-120784714D01*
X85671819Y-120784714D02*
X85624200Y-120689476D01*
X85624200Y-120689476D02*
X85576580Y-120641857D01*
X85576580Y-120641857D02*
X85481342Y-120594238D01*
X85481342Y-120594238D02*
X85195628Y-120594238D01*
X85195628Y-120594238D02*
X85100390Y-120641857D01*
X85100390Y-120641857D02*
X85052771Y-120689476D01*
X85052771Y-120689476D02*
X85005152Y-120784714D01*
X85005152Y-120784714D02*
X85005152Y-120975190D01*
X85005152Y-120975190D02*
X85052771Y-121070428D01*
X85624200Y-121879952D02*
X85671819Y-121784714D01*
X85671819Y-121784714D02*
X85671819Y-121594238D01*
X85671819Y-121594238D02*
X85624200Y-121499000D01*
X85624200Y-121499000D02*
X85528961Y-121451381D01*
X85528961Y-121451381D02*
X85148009Y-121451381D01*
X85148009Y-121451381D02*
X85052771Y-121499000D01*
X85052771Y-121499000D02*
X85005152Y-121594238D01*
X85005152Y-121594238D02*
X85005152Y-121784714D01*
X85005152Y-121784714D02*
X85052771Y-121879952D01*
X85052771Y-121879952D02*
X85148009Y-121927571D01*
X85148009Y-121927571D02*
X85243247Y-121927571D01*
X85243247Y-121927571D02*
X85338485Y-121451381D01*
X85624200Y-123070429D02*
X85671819Y-123165667D01*
X85671819Y-123165667D02*
X85671819Y-123356143D01*
X85671819Y-123356143D02*
X85624200Y-123451381D01*
X85624200Y-123451381D02*
X85528961Y-123499000D01*
X85528961Y-123499000D02*
X85481342Y-123499000D01*
X85481342Y-123499000D02*
X85386104Y-123451381D01*
X85386104Y-123451381D02*
X85338485Y-123356143D01*
X85338485Y-123356143D02*
X85338485Y-123213286D01*
X85338485Y-123213286D02*
X85290866Y-123118048D01*
X85290866Y-123118048D02*
X85195628Y-123070429D01*
X85195628Y-123070429D02*
X85148009Y-123070429D01*
X85148009Y-123070429D02*
X85052771Y-123118048D01*
X85052771Y-123118048D02*
X85005152Y-123213286D01*
X85005152Y-123213286D02*
X85005152Y-123356143D01*
X85005152Y-123356143D02*
X85052771Y-123451381D01*
X85005152Y-123832334D02*
X85671819Y-124022810D01*
X85671819Y-124022810D02*
X85195628Y-124213286D01*
X85195628Y-124213286D02*
X85671819Y-124403762D01*
X85671819Y-124403762D02*
X85005152Y-124594238D01*
X85671819Y-125403762D02*
X85148009Y-125403762D01*
X85148009Y-125403762D02*
X85052771Y-125356143D01*
X85052771Y-125356143D02*
X85005152Y-125260905D01*
X85005152Y-125260905D02*
X85005152Y-125070429D01*
X85005152Y-125070429D02*
X85052771Y-124975191D01*
X85624200Y-125403762D02*
X85671819Y-125308524D01*
X85671819Y-125308524D02*
X85671819Y-125070429D01*
X85671819Y-125070429D02*
X85624200Y-124975191D01*
X85624200Y-124975191D02*
X85528961Y-124927572D01*
X85528961Y-124927572D02*
X85433723Y-124927572D01*
X85433723Y-124927572D02*
X85338485Y-124975191D01*
X85338485Y-124975191D02*
X85290866Y-125070429D01*
X85290866Y-125070429D02*
X85290866Y-125308524D01*
X85290866Y-125308524D02*
X85243247Y-125403762D01*
X85005152Y-125879953D02*
X86005152Y-125879953D01*
X85052771Y-125879953D02*
X85005152Y-125975191D01*
X85005152Y-125975191D02*
X85005152Y-126165667D01*
X85005152Y-126165667D02*
X85052771Y-126260905D01*
X85052771Y-126260905D02*
X85100390Y-126308524D01*
X85100390Y-126308524D02*
X85195628Y-126356143D01*
X85195628Y-126356143D02*
X85481342Y-126356143D01*
X85481342Y-126356143D02*
X85576580Y-126308524D01*
X85576580Y-126308524D02*
X85624200Y-126260905D01*
X85624200Y-126260905D02*
X85671819Y-126165667D01*
X85671819Y-126165667D02*
X85671819Y-125975191D01*
X85671819Y-125975191D02*
X85624200Y-125879953D01*
X84671819Y-127832334D02*
X85386104Y-127832334D01*
X85386104Y-127832334D02*
X85528961Y-127784715D01*
X85528961Y-127784715D02*
X85624200Y-127689477D01*
X85624200Y-127689477D02*
X85671819Y-127546620D01*
X85671819Y-127546620D02*
X85671819Y-127451382D01*
X85671819Y-128308525D02*
X84671819Y-128308525D01*
X84671819Y-128308525D02*
X84671819Y-128689477D01*
X84671819Y-128689477D02*
X84719438Y-128784715D01*
X84719438Y-128784715D02*
X84767057Y-128832334D01*
X84767057Y-128832334D02*
X84862295Y-128879953D01*
X84862295Y-128879953D02*
X85005152Y-128879953D01*
X85005152Y-128879953D02*
X85100390Y-128832334D01*
X85100390Y-128832334D02*
X85148009Y-128784715D01*
X85148009Y-128784715D02*
X85195628Y-128689477D01*
X85195628Y-128689477D02*
X85195628Y-128308525D01*
X85671819Y-129832334D02*
X85671819Y-129260906D01*
X85671819Y-129546620D02*
X84671819Y-129546620D01*
X84671819Y-129546620D02*
X84814676Y-129451382D01*
X84814676Y-129451382D02*
X84909914Y-129356144D01*
X84909914Y-129356144D02*
X84957533Y-129260906D01*
D10*
X138921714Y-77176219D02*
X138921714Y-77890504D01*
X138921714Y-77890504D02*
X138969333Y-78033361D01*
X138969333Y-78033361D02*
X139064571Y-78128600D01*
X139064571Y-78128600D02*
X139207428Y-78176219D01*
X139207428Y-78176219D02*
X139302666Y-78176219D01*
X138445523Y-78176219D02*
X138445523Y-77176219D01*
X138445523Y-77176219D02*
X138064571Y-77176219D01*
X138064571Y-77176219D02*
X137969333Y-77223838D01*
X137969333Y-77223838D02*
X137921714Y-77271457D01*
X137921714Y-77271457D02*
X137874095Y-77366695D01*
X137874095Y-77366695D02*
X137874095Y-77509552D01*
X137874095Y-77509552D02*
X137921714Y-77604790D01*
X137921714Y-77604790D02*
X137969333Y-77652409D01*
X137969333Y-77652409D02*
X138064571Y-77700028D01*
X138064571Y-77700028D02*
X138445523Y-77700028D01*
X137302666Y-77604790D02*
X137397904Y-77557171D01*
X137397904Y-77557171D02*
X137445523Y-77509552D01*
X137445523Y-77509552D02*
X137493142Y-77414314D01*
X137493142Y-77414314D02*
X137493142Y-77366695D01*
X137493142Y-77366695D02*
X137445523Y-77271457D01*
X137445523Y-77271457D02*
X137397904Y-77223838D01*
X137397904Y-77223838D02*
X137302666Y-77176219D01*
X137302666Y-77176219D02*
X137112190Y-77176219D01*
X137112190Y-77176219D02*
X137016952Y-77223838D01*
X137016952Y-77223838D02*
X136969333Y-77271457D01*
X136969333Y-77271457D02*
X136921714Y-77366695D01*
X136921714Y-77366695D02*
X136921714Y-77414314D01*
X136921714Y-77414314D02*
X136969333Y-77509552D01*
X136969333Y-77509552D02*
X137016952Y-77557171D01*
X137016952Y-77557171D02*
X137112190Y-77604790D01*
X137112190Y-77604790D02*
X137302666Y-77604790D01*
X137302666Y-77604790D02*
X137397904Y-77652409D01*
X137397904Y-77652409D02*
X137445523Y-77700028D01*
X137445523Y-77700028D02*
X137493142Y-77795266D01*
X137493142Y-77795266D02*
X137493142Y-77985742D01*
X137493142Y-77985742D02*
X137445523Y-78080980D01*
X137445523Y-78080980D02*
X137397904Y-78128600D01*
X137397904Y-78128600D02*
X137302666Y-78176219D01*
X137302666Y-78176219D02*
X137112190Y-78176219D01*
X137112190Y-78176219D02*
X137016952Y-78128600D01*
X137016952Y-78128600D02*
X136969333Y-78080980D01*
X136969333Y-78080980D02*
X136921714Y-77985742D01*
X136921714Y-77985742D02*
X136921714Y-77795266D01*
X136921714Y-77795266D02*
X136969333Y-77700028D01*
X136969333Y-77700028D02*
X137016952Y-77652409D01*
X137016952Y-77652409D02*
X137112190Y-77604790D01*
X135874094Y-77509552D02*
X135493142Y-77509552D01*
X135731237Y-77176219D02*
X135731237Y-78033361D01*
X135731237Y-78033361D02*
X135683618Y-78128600D01*
X135683618Y-78128600D02*
X135588380Y-78176219D01*
X135588380Y-78176219D02*
X135493142Y-78176219D01*
X135016951Y-78176219D02*
X135112189Y-78128600D01*
X135112189Y-78128600D02*
X135159808Y-78080980D01*
X135159808Y-78080980D02*
X135207427Y-77985742D01*
X135207427Y-77985742D02*
X135207427Y-77700028D01*
X135207427Y-77700028D02*
X135159808Y-77604790D01*
X135159808Y-77604790D02*
X135112189Y-77557171D01*
X135112189Y-77557171D02*
X135016951Y-77509552D01*
X135016951Y-77509552D02*
X134874094Y-77509552D01*
X134874094Y-77509552D02*
X134778856Y-77557171D01*
X134778856Y-77557171D02*
X134731237Y-77604790D01*
X134731237Y-77604790D02*
X134683618Y-77700028D01*
X134683618Y-77700028D02*
X134683618Y-77985742D01*
X134683618Y-77985742D02*
X134731237Y-78080980D01*
X134731237Y-78080980D02*
X134778856Y-78128600D01*
X134778856Y-78128600D02*
X134874094Y-78176219D01*
X134874094Y-78176219D02*
X135016951Y-78176219D01*
X132969332Y-78176219D02*
X133540760Y-78176219D01*
X133255046Y-78176219D02*
X133255046Y-77176219D01*
X133255046Y-77176219D02*
X133350284Y-77319076D01*
X133350284Y-77319076D02*
X133445522Y-77414314D01*
X133445522Y-77414314D02*
X133540760Y-77461933D01*
X132016951Y-78176219D02*
X132588379Y-78176219D01*
X132302665Y-78176219D02*
X132302665Y-77176219D01*
X132302665Y-77176219D02*
X132397903Y-77319076D01*
X132397903Y-77319076D02*
X132493141Y-77414314D01*
X132493141Y-77414314D02*
X132588379Y-77461933D01*
D11*
X179794819Y-72350476D02*
X180509104Y-72350476D01*
X180509104Y-72350476D02*
X180651961Y-72302857D01*
X180651961Y-72302857D02*
X180747200Y-72207619D01*
X180747200Y-72207619D02*
X180794819Y-72064762D01*
X180794819Y-72064762D02*
X180794819Y-71969524D01*
X180794819Y-72826667D02*
X179794819Y-72826667D01*
X179794819Y-72826667D02*
X179794819Y-73207619D01*
X179794819Y-73207619D02*
X179842438Y-73302857D01*
X179842438Y-73302857D02*
X179890057Y-73350476D01*
X179890057Y-73350476D02*
X179985295Y-73398095D01*
X179985295Y-73398095D02*
X180128152Y-73398095D01*
X180128152Y-73398095D02*
X180223390Y-73350476D01*
X180223390Y-73350476D02*
X180271009Y-73302857D01*
X180271009Y-73302857D02*
X180318628Y-73207619D01*
X180318628Y-73207619D02*
X180318628Y-72826667D01*
X180794819Y-74350476D02*
X180794819Y-73779048D01*
X180794819Y-74064762D02*
X179794819Y-74064762D01*
X179794819Y-74064762D02*
X179937676Y-73969524D01*
X179937676Y-73969524D02*
X180032914Y-73874286D01*
X180032914Y-73874286D02*
X180080533Y-73779048D01*
X179890057Y-74731429D02*
X179842438Y-74779048D01*
X179842438Y-74779048D02*
X179794819Y-74874286D01*
X179794819Y-74874286D02*
X179794819Y-75112381D01*
X179794819Y-75112381D02*
X179842438Y-75207619D01*
X179842438Y-75207619D02*
X179890057Y-75255238D01*
X179890057Y-75255238D02*
X179985295Y-75302857D01*
X179985295Y-75302857D02*
X180080533Y-75302857D01*
X180080533Y-75302857D02*
X180223390Y-75255238D01*
X180223390Y-75255238D02*
X180794819Y-74683810D01*
X180794819Y-74683810D02*
X180794819Y-75302857D01*
X165901523Y-91402819D02*
X165901523Y-92117104D01*
X165901523Y-92117104D02*
X165949142Y-92259961D01*
X165949142Y-92259961D02*
X166044380Y-92355200D01*
X166044380Y-92355200D02*
X166187237Y-92402819D01*
X166187237Y-92402819D02*
X166282475Y-92402819D01*
X165425332Y-92402819D02*
X165425332Y-91402819D01*
X165425332Y-91402819D02*
X165044380Y-91402819D01*
X165044380Y-91402819D02*
X164949142Y-91450438D01*
X164949142Y-91450438D02*
X164901523Y-91498057D01*
X164901523Y-91498057D02*
X164853904Y-91593295D01*
X164853904Y-91593295D02*
X164853904Y-91736152D01*
X164853904Y-91736152D02*
X164901523Y-91831390D01*
X164901523Y-91831390D02*
X164949142Y-91879009D01*
X164949142Y-91879009D02*
X165044380Y-91926628D01*
X165044380Y-91926628D02*
X165425332Y-91926628D01*
X163901523Y-92402819D02*
X164472951Y-92402819D01*
X164187237Y-92402819D02*
X164187237Y-91402819D01*
X164187237Y-91402819D02*
X164282475Y-91545676D01*
X164282475Y-91545676D02*
X164377713Y-91640914D01*
X164377713Y-91640914D02*
X164472951Y-91688533D01*
X162949142Y-92402819D02*
X163520570Y-92402819D01*
X163234856Y-92402819D02*
X163234856Y-91402819D01*
X163234856Y-91402819D02*
X163330094Y-91545676D01*
X163330094Y-91545676D02*
X163425332Y-91640914D01*
X163425332Y-91640914D02*
X163520570Y-91688533D01*
X167031319Y-77938476D02*
X167745604Y-77938476D01*
X167745604Y-77938476D02*
X167888461Y-77890857D01*
X167888461Y-77890857D02*
X167983700Y-77795619D01*
X167983700Y-77795619D02*
X168031319Y-77652762D01*
X168031319Y-77652762D02*
X168031319Y-77557524D01*
X168031319Y-78414667D02*
X167031319Y-78414667D01*
X167031319Y-78414667D02*
X167031319Y-78795619D01*
X167031319Y-78795619D02*
X167078938Y-78890857D01*
X167078938Y-78890857D02*
X167126557Y-78938476D01*
X167126557Y-78938476D02*
X167221795Y-78986095D01*
X167221795Y-78986095D02*
X167364652Y-78986095D01*
X167364652Y-78986095D02*
X167459890Y-78938476D01*
X167459890Y-78938476D02*
X167507509Y-78890857D01*
X167507509Y-78890857D02*
X167555128Y-78795619D01*
X167555128Y-78795619D02*
X167555128Y-78414667D01*
X168031319Y-79938476D02*
X168031319Y-79367048D01*
X168031319Y-79652762D02*
X167031319Y-79652762D01*
X167031319Y-79652762D02*
X167174176Y-79557524D01*
X167174176Y-79557524D02*
X167269414Y-79462286D01*
X167269414Y-79462286D02*
X167317033Y-79367048D01*
X167031319Y-80557524D02*
X167031319Y-80652762D01*
X167031319Y-80652762D02*
X167078938Y-80748000D01*
X167078938Y-80748000D02*
X167126557Y-80795619D01*
X167126557Y-80795619D02*
X167221795Y-80843238D01*
X167221795Y-80843238D02*
X167412271Y-80890857D01*
X167412271Y-80890857D02*
X167650366Y-80890857D01*
X167650366Y-80890857D02*
X167840842Y-80843238D01*
X167840842Y-80843238D02*
X167936080Y-80795619D01*
X167936080Y-80795619D02*
X167983700Y-80748000D01*
X167983700Y-80748000D02*
X168031319Y-80652762D01*
X168031319Y-80652762D02*
X168031319Y-80557524D01*
X168031319Y-80557524D02*
X167983700Y-80462286D01*
X167983700Y-80462286D02*
X167936080Y-80414667D01*
X167936080Y-80414667D02*
X167840842Y-80367048D01*
X167840842Y-80367048D02*
X167650366Y-80319429D01*
X167650366Y-80319429D02*
X167412271Y-80319429D01*
X167412271Y-80319429D02*
X167221795Y-80367048D01*
X167221795Y-80367048D02*
X167126557Y-80414667D01*
X167126557Y-80414667D02*
X167078938Y-80462286D01*
X167078938Y-80462286D02*
X167031319Y-80557524D01*
X163602319Y-77906666D02*
X164316604Y-77906666D01*
X164316604Y-77906666D02*
X164459461Y-77859047D01*
X164459461Y-77859047D02*
X164554700Y-77763809D01*
X164554700Y-77763809D02*
X164602319Y-77620952D01*
X164602319Y-77620952D02*
X164602319Y-77525714D01*
X164602319Y-78382857D02*
X163602319Y-78382857D01*
X163602319Y-78382857D02*
X163602319Y-78763809D01*
X163602319Y-78763809D02*
X163649938Y-78859047D01*
X163649938Y-78859047D02*
X163697557Y-78906666D01*
X163697557Y-78906666D02*
X163792795Y-78954285D01*
X163792795Y-78954285D02*
X163935652Y-78954285D01*
X163935652Y-78954285D02*
X164030890Y-78906666D01*
X164030890Y-78906666D02*
X164078509Y-78859047D01*
X164078509Y-78859047D02*
X164126128Y-78763809D01*
X164126128Y-78763809D02*
X164126128Y-78382857D01*
X164602319Y-79430476D02*
X164602319Y-79620952D01*
X164602319Y-79620952D02*
X164554700Y-79716190D01*
X164554700Y-79716190D02*
X164507080Y-79763809D01*
X164507080Y-79763809D02*
X164364223Y-79859047D01*
X164364223Y-79859047D02*
X164173747Y-79906666D01*
X164173747Y-79906666D02*
X163792795Y-79906666D01*
X163792795Y-79906666D02*
X163697557Y-79859047D01*
X163697557Y-79859047D02*
X163649938Y-79811428D01*
X163649938Y-79811428D02*
X163602319Y-79716190D01*
X163602319Y-79716190D02*
X163602319Y-79525714D01*
X163602319Y-79525714D02*
X163649938Y-79430476D01*
X163649938Y-79430476D02*
X163697557Y-79382857D01*
X163697557Y-79382857D02*
X163792795Y-79335238D01*
X163792795Y-79335238D02*
X164030890Y-79335238D01*
X164030890Y-79335238D02*
X164126128Y-79382857D01*
X164126128Y-79382857D02*
X164173747Y-79430476D01*
X164173747Y-79430476D02*
X164221366Y-79525714D01*
X164221366Y-79525714D02*
X164221366Y-79716190D01*
X164221366Y-79716190D02*
X164173747Y-79811428D01*
X164173747Y-79811428D02*
X164126128Y-79859047D01*
X164126128Y-79859047D02*
X164030890Y-79906666D01*
X165425333Y-82766819D02*
X165425333Y-83481104D01*
X165425333Y-83481104D02*
X165472952Y-83623961D01*
X165472952Y-83623961D02*
X165568190Y-83719200D01*
X165568190Y-83719200D02*
X165711047Y-83766819D01*
X165711047Y-83766819D02*
X165806285Y-83766819D01*
X164949142Y-83766819D02*
X164949142Y-82766819D01*
X164949142Y-82766819D02*
X164568190Y-82766819D01*
X164568190Y-82766819D02*
X164472952Y-82814438D01*
X164472952Y-82814438D02*
X164425333Y-82862057D01*
X164425333Y-82862057D02*
X164377714Y-82957295D01*
X164377714Y-82957295D02*
X164377714Y-83100152D01*
X164377714Y-83100152D02*
X164425333Y-83195390D01*
X164425333Y-83195390D02*
X164472952Y-83243009D01*
X164472952Y-83243009D02*
X164568190Y-83290628D01*
X164568190Y-83290628D02*
X164949142Y-83290628D01*
X163806285Y-83195390D02*
X163901523Y-83147771D01*
X163901523Y-83147771D02*
X163949142Y-83100152D01*
X163949142Y-83100152D02*
X163996761Y-83004914D01*
X163996761Y-83004914D02*
X163996761Y-82957295D01*
X163996761Y-82957295D02*
X163949142Y-82862057D01*
X163949142Y-82862057D02*
X163901523Y-82814438D01*
X163901523Y-82814438D02*
X163806285Y-82766819D01*
X163806285Y-82766819D02*
X163615809Y-82766819D01*
X163615809Y-82766819D02*
X163520571Y-82814438D01*
X163520571Y-82814438D02*
X163472952Y-82862057D01*
X163472952Y-82862057D02*
X163425333Y-82957295D01*
X163425333Y-82957295D02*
X163425333Y-83004914D01*
X163425333Y-83004914D02*
X163472952Y-83100152D01*
X163472952Y-83100152D02*
X163520571Y-83147771D01*
X163520571Y-83147771D02*
X163615809Y-83195390D01*
X163615809Y-83195390D02*
X163806285Y-83195390D01*
X163806285Y-83195390D02*
X163901523Y-83243009D01*
X163901523Y-83243009D02*
X163949142Y-83290628D01*
X163949142Y-83290628D02*
X163996761Y-83385866D01*
X163996761Y-83385866D02*
X163996761Y-83576342D01*
X163996761Y-83576342D02*
X163949142Y-83671580D01*
X163949142Y-83671580D02*
X163901523Y-83719200D01*
X163901523Y-83719200D02*
X163806285Y-83766819D01*
X163806285Y-83766819D02*
X163615809Y-83766819D01*
X163615809Y-83766819D02*
X163520571Y-83719200D01*
X163520571Y-83719200D02*
X163472952Y-83671580D01*
X163472952Y-83671580D02*
X163425333Y-83576342D01*
X163425333Y-83576342D02*
X163425333Y-83385866D01*
X163425333Y-83385866D02*
X163472952Y-83290628D01*
X163472952Y-83290628D02*
X163520571Y-83243009D01*
X163520571Y-83243009D02*
X163615809Y-83195390D01*
X79827333Y-119215819D02*
X79827333Y-119930104D01*
X79827333Y-119930104D02*
X79874952Y-120072961D01*
X79874952Y-120072961D02*
X79970190Y-120168200D01*
X79970190Y-120168200D02*
X80113047Y-120215819D01*
X80113047Y-120215819D02*
X80208285Y-120215819D01*
X79351142Y-120215819D02*
X79351142Y-119215819D01*
X79351142Y-119215819D02*
X78970190Y-119215819D01*
X78970190Y-119215819D02*
X78874952Y-119263438D01*
X78874952Y-119263438D02*
X78827333Y-119311057D01*
X78827333Y-119311057D02*
X78779714Y-119406295D01*
X78779714Y-119406295D02*
X78779714Y-119549152D01*
X78779714Y-119549152D02*
X78827333Y-119644390D01*
X78827333Y-119644390D02*
X78874952Y-119692009D01*
X78874952Y-119692009D02*
X78970190Y-119739628D01*
X78970190Y-119739628D02*
X79351142Y-119739628D01*
X77827333Y-120215819D02*
X78398761Y-120215819D01*
X78113047Y-120215819D02*
X78113047Y-119215819D01*
X78113047Y-119215819D02*
X78208285Y-119358676D01*
X78208285Y-119358676D02*
X78303523Y-119453914D01*
X78303523Y-119453914D02*
X78398761Y-119501533D01*
M02*
